<?xml version="1.0" standalone="no"?>
<!DOCTYPE svg PUBLIC "-//W3C//DTD SVG 1.1//EN" "http://www.w3.org/Graphics/SVG/1.1/DTD/svg11.dtd" >
<svg xmlns="http://www.w3.org/2000/svg" xmlns:xlink="http://www.w3.org/1999/xlink" version="1.1">
<metadata>
Created by FontForge 20161003 at Thu Sep  5 13:35:16 2019
 By www-data
Copyright (c) 2011-2015, Omnibus-Type (www.omnibus-type.com omnibus.type@gmail.com)
</metadata>
<defs>
<font id="AsapItalic" horiz-adv-x="557" >
  <font-face 
    font-family="AsapItalic"
    font-weight="400"
    font-style="italic"
    font-stretch="normal"
    units-per-em="1000"
    panose-1="2 15 5 4 3 1 2 13 2 3"
    ascent="800"
    descent="-200"
    x-height="523"
    cap-height="702"
    bbox="-330 -237 1297 1008"
    underline-thickness="50"
    underline-position="-150"
    slope="-6"
    unicode-range="U+000D-FB02"
  />
<missing-glyph horiz-adv-x="515" 
d="M-20 0l74 700h500l-74 -700h-500zM272 395l196 255h-340zM93 605l-54 -510l198 255zM297 350l142 -255l54 510zM65 50h340l-144 255z" />
    <glyph glyph-name="uniFB01" unicode="fi" horiz-adv-x="563" 
d="M276 756q71 0 71 -31q0 -10 -9 -29t-17 -19q-1 0 -6 1.5t-15.5 3.5t-23.5 2q-26 0 -41 -14t-19 -56l-9 -91h87q16 0 16 -19q0 -5 -3 -16t-14 -24t-28 -13h-66l-45 -431q-3 -22 -42 -22h-4q-38 0 -38 22l45 431h-40q-17 0 -17 27q0 45 25 45h40l10 101q13 132 143 132z
M476 752q38 0 38 -22l-6 -59q0 -22 -38 -22h-12q-42 0 -42 22l6 59q3 22 42 22h12zM448 525q38 0 38 -22q-40 -366 -40 -396q0 -19 6 -28.5t12 -11t17 -1.5q7 0 16 2.5t11 2.5q6 0 6 -7q0 -15 -4 -37q-3 -17 -22.5 -25t-37.5 -8q-89 0 -89 95q0 19 10 122t20 197.5t11 94.5
q3 22 42 22h4z" />
    <glyph glyph-name="uniFB02" unicode="fl" horiz-adv-x="591" 
d="M276 756q71 0 71 -31q0 -10 -9 -29t-17 -19q-1 0 -6 1.5t-15.5 3.5t-23.5 2q-26 0 -41 -14t-19 -56l-9 -91h87q16 0 16 -19q0 -5 -3 -16t-14 -24t-28 -13h-66l-45 -431q-3 -22 -42 -22h-4q-38 0 -38 22l45 431h-40q-17 0 -17 27q0 45 25 45h40l10 101q13 132 143 132z
M490 752q38 0 38 -22q-64 -593 -64 -623q0 -15 3 -24t9.5 -12t11 -4t12.5 -1q7 0 16 2.5t11 2.5q6 0 6 -7q0 -15 -4 -37q-3 -17 -22.5 -25t-37.5 -8q-90 0 -90 98q0 20 16.5 178.5t32.5 309.5l16 150q3 22 42 22h4z" />
    <glyph glyph-name="f_f" unicode="ff" horiz-adv-x="650" 
d="M278 756q71 0 71 -31q0 -10 -9 -29t-17 -19q-1 0 -6 1.5t-15.5 3.5t-23.5 2q-26 0 -41 -14t-19 -56l-9 -91h87q16 0 16 -19q0 -5 -3 -16t-14 -24t-28 -13h-66l-45 -431q-3 -22 -42 -22h-4q-38 0 -38 22l45 431h-40q-17 0 -17 27q0 45 25 45h40l10 101q13 132 143 132z
M603 756q71 0 71 -31q0 -10 -9 -29t-17 -19q-1 0 -6 1.5t-15.5 3.5t-23.5 2q-26 0 -41 -14t-19 -56l-9 -91h87q16 0 16 -19q0 -5 -3 -16t-14 -24t-28 -13h-66l-45 -431q-3 -22 -42 -22h-4q-38 0 -38 22l45 431h-40q-17 0 -17 27q0 45 25 45h40l10 101q13 132 143 132z" />
    <glyph glyph-name=".notdef" horiz-adv-x="515" 
d="M-20 0l74 700h500l-74 -700h-500zM272 395l196 255h-340zM93 605l-54 -510l198 255zM297 350l142 -255l54 510zM65 50h340l-144 255z" />
    <glyph glyph-name=".null" horiz-adv-x="0" 
 />
    <glyph glyph-name="nonmarkingreturn" horiz-adv-x="333" 
 />
    <glyph glyph-name="CR" unicode="&#xd;" horiz-adv-x="240" 
 />
    <glyph glyph-name="space" unicode=" " horiz-adv-x="240" 
 />
    <glyph glyph-name="exclam" unicode="!" horiz-adv-x="294" 
d="M208 702q37 0 37 -22l-75 -456q-3 -22 -33 -22h-11q-28 0 -28 22l48 456q3 22 42 22h20zM131 108q38 0 38 -22l-7 -66q-3 -22 -42 -22h-17q-38 0 -38 22l7 66q2 22 42 22h17z" />
    <glyph glyph-name="quotedbl" unicode="&#x22;" horiz-adv-x="319" 
d="M112 702q37 0 37 -22q0 -2 -7.5 -35.5t-19 -84.5t-16.5 -76q-3 -12 -24 -12h-1q-21 0 -21 12v196q0 22 42 22h10zM240 702q37 0 37 -22q0 -2 -7.5 -35.5t-19 -84.5t-16.5 -76q-3 -12 -24 -12h-1q-21 0 -21 12v196q0 22 42 22h10z" />
    <glyph glyph-name="numbersign" unicode="#" horiz-adv-x="534" 
d="M471 686q26 0 26 -15q0 -3 -1.5 -9.5t-5.5 -20.5t-9 -30.5t-14 -48t-19 -65.5h69q11 0 14 -7t3 -23q0 -47 -25 -47h-84l-41 -147h76q11 0 14 -7t3 -23q0 -47 -25 -47h-92l-49 -176q-4 -12 -13 -17t-33 -5h-4q-26 0 -26 17q0 4 3 14t16.5 56.5t31.5 110.5h-118l-50 -176
q-3 -12 -12.5 -17t-33.5 -5h-4q-26 0 -26 17q0 4 3 14t16.5 56.5t31.5 110.5h-76q-11 0 -14 6.5t-3 23.5q0 47 25 47h91l42 147h-82q-11 0 -14 6.5t-3 23.5q0 47 25 47h95l48 167q3 12 12 17t35 5h4q26 0 26 -15q0 -3 -2 -9.5t-6 -20.5t-9 -30.5t-14.5 -47.5t-19.5 -66h119
l47 167q3 12 12 17t35 5h5zM351 420h-118l-42 -147h118z" />
    <glyph glyph-name="dollar" unicode="$" horiz-adv-x="496" 
d="M298 755q16 0 16 -20q0 -1 -0.5 -6t-1.5 -12t-1 -11q49 -1 100 -18.5t51 -41.5q0 -10 -15.5 -32t-22.5 -22q-5 0 -20 9t-41.5 18.5t-59.5 10.5l-25 -227q39 -15 62 -26.5t51.5 -33t42.5 -53t14 -72.5q0 -95 -58.5 -154.5t-154.5 -67.5l-4 -44q-1 -20 -22 -20h-1
q-17 0 -17 20q0 1 1 8.5t2 17.5t1 16q-56 2 -108.5 17t-52.5 45q0 65 16 65q1 0 20 -12.5t55 -25t78 -13.5l27 254q-33 14 -48.5 20.5t-42.5 23t-40 32t-23.5 41.5t-10.5 57q0 84 56 140t149 66l4 31q2 11 6 15.5t16 4.5h2zM262 627q-48 -9 -77.5 -39t-29.5 -80
q0 -32 21.5 -52t63.5 -38zM268 308l-25 -235q50 9 82 44.5t32 86.5q0 37 -23 60.5t-66 43.5z" />
    <glyph glyph-name="percent" unicode="%" horiz-adv-x="765" 
d="M234 706q122 0 122 -132q0 -83 -38.5 -138t-117.5 -55q-122 0 -122 129q0 58 14.5 98.5t39 60.5t49.5 28.5t53 8.5zM626 702q13 0 13 -9q0 -5 -4 -10l-439 -666q-13 -19 -31 -19h-25q-13 0 -13 8q0 6 4 11l439 666q13 19 31 19h25zM228 652q-84 0 -84 -143q0 -73 61 -73
q47 0 67 41.5t20 97.5q0 77 -64 77zM564 319q122 0 122 -132q0 -83 -38.5 -138t-117.5 -55q-122 0 -122 129q0 58 14.5 98.5t39 60.5t49.5 28.5t53 8.5zM558 265q-84 0 -84 -143q0 -73 61 -73q47 0 67 41.5t20 97.5q0 77 -64 77z" />
    <glyph glyph-name="ampersand" unicode="&#x26;" horiz-adv-x="624" 
d="M312 706q79 0 79 -27q0 -12 -9.5 -31.5t-17.5 -19.5q-1 0 -19 3t-39 3q-40 0 -68.5 -13t-41 -33.5t-17.5 -37t-5 -32.5q0 -43 30.5 -76.5t92.5 -33.5h117l12 105q3 22 41 22h4q38 0 38 -22l-11 -105h85q16 0 16 -19q0 -5 -3 -16t-14 -24t-28 -13h-64q-21 -193 -21 -213
q0 -57 48 -57q19 0 32 4l13 3q7 0 7 -9q0 -27 -3 -36q-11 -34 -70 -34q-69 0 -96 42q-74 -42 -165 -42q-51 0 -94.5 16.5t-76 59t-32.5 105.5q0 84 45 140.5t102 71.5l1 4q-40 16 -64.5 49.5t-24.5 79.5q0 90 63 138t158 48zM406 336h-121q-165 0 -165 -152
q0 -63 39.5 -90.5t91.5 -27.5q69 0 133 37z" />
    <glyph glyph-name="quotesingle" unicode="'" horiz-adv-x="183" 
d="M112 702q37 0 37 -22q0 -2 -7.5 -35.5t-19 -84.5t-16.5 -76q-3 -12 -24 -12h-1q-21 0 -21 12v196q0 22 42 22h10z" />
    <glyph glyph-name="parenleft" unicode="(" horiz-adv-x="301" 
d="M312 783q9 0 18 -7t9 -16q0 -11 -11 -24q-90 -94 -143.5 -239t-53.5 -305q0 -219 101 -356q7 -8 7 -17q0 -8 -9.5 -19.5t-21.5 -11.5q-10 0 -21 11q-65 66 -101 169.5t-36 227.5q0 177 66 332t174 245q10 10 22 10z" />
    <glyph glyph-name="parenright" unicode=")" horiz-adv-x="301" 
d="M92 784q10 0 21 -11q65 -66 101 -169.5t36 -227.5q0 -177 -66.5 -332t-173.5 -245q-10 -10 -21 -10q-10 0 -19.5 8t-9.5 17q0 7 9 16q97 101 148.5 251t51.5 298q0 216 -101 357q-7 8 -7 17q0 8 9.5 19.5t21.5 11.5z" />
    <glyph glyph-name="asterisk" unicode="*" horiz-adv-x="373" 
d="M196 709q18 0 18 -20l-11 -105l102 32q3 1 9 1t11 -5.5t5 -15.5q0 -14 -16 -18l-102 -32l61 -99q4 -8 4 -11q0 -7 -8.5 -14.5t-15.5 -7.5q-9 0 -14 9l-62 101l-84 -101q-9 -9 -16 -9q-6 0 -13 6t-7 12q0 8 6 15l82 99l-95 32q-12 4 -12 13q0 11 6.5 18.5t13.5 7.5
q6 0 9 -1l96 -32l11 105q1 20 22 20z" />
    <glyph glyph-name="plus" unicode="+" horiz-adv-x="560" 
d="M308 463q28 0 28 -20l-19 -179h178q11 0 14 -7t3 -23q0 -37 -24 -37h-178l-19 -179q-3 -20 -32 -20h-7q-28 0 -28 20l19 179h-179q-11 0 -14 7t-3 23q0 37 24 37h179l19 179q1 20 32 20h7z" />
    <glyph glyph-name="comma" unicode="," horiz-adv-x="198" 
d="M115 108q37 0 37 -28q-8 -81 -50.5 -138.5t-72.5 -57.5q-28 0 -28 14q0 5 8 18q44 68 54 160q3 32 43 32h9z" />
    <glyph glyph-name="hyphen" unicode="-" horiz-adv-x="320" 
d="M259 301q17 0 17 -27q0 -45 -25 -45h-194q-17 0 -17 27q0 45 25 45h194z" />
    <glyph glyph-name="period" unicode="." horiz-adv-x="198" 
d="M113 108q38 0 38 -22l-7 -66q-3 -22 -42 -22h-17q-38 0 -38 22l7 66q2 22 42 22h17z" />
    <glyph glyph-name="slash" unicode="/" horiz-adv-x="370" 
d="M396 702q14 0 14 -10q0 -4 -3 -10l-396 -741q-11 -20 -29 -20h-23q-14 0 -14 10q0 4 3 10l395 741q12 20 29 20h24z" />
    <glyph glyph-name="zero" unicode="0" horiz-adv-x="535" 
d="M303 706q86 0 141 -70.5t55 -208.5q0 -211 -82 -322t-189 -111q-85 0 -139.5 69.5t-54.5 205.5q0 110 24 197t63.5 137.5t85.5 76.5t96 26zM295 634q-67 0 -121.5 -90t-54.5 -274q0 -105 33 -154.5t84 -49.5q30 0 59.5 19.5t57 59.5t44.5 112.5t17 167.5q0 107 -34 158
t-85 51z" />
    <glyph glyph-name="one" unicode="1" horiz-adv-x="535" 
d="M326 702q12 0 20.5 -6t8.5 -15l-64 -609h149q17 0 17 -27q0 -45 -25 -45h-407q-17 0 -17 27q0 45 25 45h174l57 539l-180 -30q-16 0 -16 40q0 15 4 21t17 9z" />
    <glyph glyph-name="two" unicode="2" horiz-adv-x="535" 
d="M291 706q91 0 143.5 -41t52.5 -109q0 -53 -18.5 -95t-62.5 -91l-270 -298h288q17 0 17 -27q0 -45 -25 -45h-374q-7 0 -13.5 18.5t-6.5 33.5q0 7 2 9l309 342q67 74 67 140q0 42 -30.5 66.5t-84.5 24.5q-40 0 -74.5 -13t-55 -25.5t-25.5 -12.5q-7 0 -17 18t-10 30
q0 30 66.5 52.5t121.5 22.5z" />
    <glyph glyph-name="three" unicode="3" horiz-adv-x="535" 
d="M281 706q85 0 134.5 -38.5t49.5 -113.5q0 -60 -33 -102t-85 -61l-1 -4q45 -12 76.5 -54t31.5 -105q0 -62 -24 -109t-62 -73t-78.5 -39t-81.5 -13q-24 0 -57 3t-72 15t-39 32q0 59 15 59q1 0 20.5 -9.5t55.5 -18.5t77 -9q27 0 52.5 7.5t50.5 24.5t40.5 50.5t15.5 79.5
q0 59 -35.5 83.5t-101.5 24.5h-34q-17 0 -17 27q0 44 25 44h29q39 0 69.5 15.5t46 38.5t23.5 45.5t8 41.5q0 35 -24.5 60.5t-84.5 25.5q-40 0 -72.5 -8t-51 -16.5t-23.5 -8.5q-8 0 -18 19t-10 32q0 21 65.5 37.5t119.5 16.5z" />
    <glyph glyph-name="four" unicode="4" horiz-adv-x="535" 
d="M435 702q28 0 28 -22l-46 -441h68q17 0 17 -27q0 -45 -25 -45h-68l-15 -147q-3 -22 -32 -22h-23q-28 0 -28 22l15 147h-304q-7 0 -12.5 15t-5.5 30q0 14 3 17l377 459q12 14 35 14h16zM363 559l-258 -320h229l33 318z" />
    <glyph glyph-name="five" unicode="5" horiz-adv-x="535" 
d="M448 700q17 0 17 -27q0 -45 -25 -45h-218l-35 -206h52q41 0 77.5 -9t70 -29t53.5 -56.5t20 -86.5q0 -70 -24.5 -121t-65.5 -77t-84 -37.5t-90 -11.5q-23 0 -53 3t-65.5 15t-35.5 32q0 59 15 59q1 0 20 -9.5t53.5 -18.5t72.5 -9q67 0 119 43t52 123q0 58 -42.5 88
t-123.5 30h-85q-26 0 -26 22q0 1 4 25q17 104 44 273q4 30 36 30h267z" />
    <glyph glyph-name="six" unicode="6" horiz-adv-x="535" 
d="M413 702q13 0 20 -17.5t7 -33.5q0 -9 -9 -13q-202 -80 -275 -266q60 33 138 33q75 0 123 -48t48 -128q0 -104 -69.5 -169t-169.5 -65q-94 0 -141.5 52.5t-47.5 149.5q0 91 32.5 175.5t80 142t101 101.5t96.5 65t66 21zM262 333q-65 0 -129 -34q-12 -58 -12 -97
q0 -135 118 -135q51 0 96 39.5t45 112.5q0 58 -33.5 86t-84.5 28z" />
    <glyph glyph-name="seven" unicode="7" horiz-adv-x="535" 
d="M506 700q5 0 10 -15t5 -30q0 -9 -3 -17l-362 -624q-10 -16 -41 -16h-12q-41 0 -41 15q0 6 5 15l352 600h-316q-17 0 -17 27q0 45 25 45h395z" />
    <glyph glyph-name="eight" unicode="8" horiz-adv-x="535" 
d="M306 706q77 0 126 -39.5t49 -111.5q0 -124 -114 -174q49 -23 75.5 -56t26.5 -94q0 -116 -69.5 -176.5t-170.5 -60.5q-88 0 -142 45t-54 132q0 73 33.5 128.5t98.5 80.5q-68 44 -68 130q0 93 60.5 144.5t148.5 51.5zM298 634q-51 0 -84 -29.5t-33 -87.5q0 -24 8.5 -42
t27 -30.5t35 -19.5t45.5 -17q100 56 100 139q0 44 -27.5 65.5t-71.5 21.5zM229 350q-109 -60 -109 -169q0 -55 33 -85t84 -30q59 0 102.5 40t43.5 113q0 21 -7.5 38t-16 27.5t-27.5 21.5t-30 16t-37 14.5t-36 13.5z" />
    <glyph glyph-name="nine" unicode="9" horiz-adv-x="535" 
d="M308 706q94 0 141.5 -52.5t47.5 -149.5q0 -91 -32.5 -175.5t-80 -142t-101 -101.5t-96.5 -65t-66 -21q-13 0 -20 17.5t-7 33.5q0 9 9 13q202 80 275 266q-60 -33 -138 -33q-75 0 -123 48t-48 128q0 104 69.5 169t169.5 65zM295 634q-51 0 -96 -39.5t-45 -112.5
q0 -58 33.5 -86t84.5 -28q65 0 129 34q12 58 12 97q0 135 -118 135z" />
    <glyph glyph-name="colon" unicode=":" horiz-adv-x="198" 
d="M135 525q38 0 38 -22l-7 -66q-3 -22 -42 -22h-17q-38 0 -38 22l7 66q2 22 42 22h17zM91 108q38 0 38 -22l-7 -66q-3 -22 -42 -22h-17q-38 0 -38 22l7 66q2 22 42 22h17z" />
    <glyph glyph-name="semicolon" unicode=";" horiz-adv-x="198" 
d="M141 525q38 0 38 -22l-7 -66q-3 -22 -42 -22h-17q-38 0 -38 22l7 66q2 22 42 22h17zM99 108q37 0 37 -28q-8 -81 -50.5 -138.5t-72.5 -57.5q-28 0 -28 14q0 5 8 18q44 68 54 160q3 32 43 32h9z" />
    <glyph glyph-name="less" unicode="&#x3c;" horiz-adv-x="560" 
d="M515 448q18 0 18 -26q0 -39 -29 -49l-371 -145l340 -146q20 -9 20 -35q0 -40 -25 -40q-8 0 -14 3l-393 174q-21 10 -21 31q0 43 30 56l429 174q9 3 16 3z" />
    <glyph glyph-name="equal" unicode="=" horiz-adv-x="560" 
d="M507 338q17 0 17 -24q0 -43 -25 -43h-428q-17 0 -17 29q0 38 25 38h428zM490 175q17 0 17 -24q0 -43 -25 -43h-428q-17 0 -17 29q0 38 25 38h428z" />
    <glyph glyph-name="greater" unicode="&#x3e;" horiz-adv-x="560" 
d="M90 447q8 0 14 -3l393 -174q21 -10 21 -31q0 -43 -30 -56l-429 -174q-9 -3 -16 -3q-18 0 -18 26q0 39 29 49l371 145l-340 146q-20 9 -20 35q0 40 25 40z" />
    <glyph glyph-name="question" unicode="?" horiz-adv-x="445" 
d="M257 706q89 0 138.5 -42.5t49.5 -107.5q0 -41 -21 -79t-52.5 -68.5t-64 -58.5t-59.5 -61.5t-35 -66.5q-5 -20 -35 -20h-15q-28 0 -28 21q0 32 28.5 76t74.5 85q41 37 59.5 55.5t35 47t16.5 56.5q0 89 -116 89q-38 0 -82.5 -17t-45.5 -17q-7 0 -16.5 18.5t-9.5 30.5
q0 25 58 42t120 17zM170 108q38 0 38 -22l-7 -66q-3 -22 -43 -22h-17q-37 0 -37 22l7 66q2 22 42 22h17z" />
    <glyph glyph-name="at" unicode="@" horiz-adv-x="974" 
d="M534 705q151 0 242 -89t91 -236q0 -138 -59 -232t-151 -94q-45 0 -71 24t-28 59v7q-49 -90 -135 -90q-24 0 -47 8.5t-46.5 27t-37.5 56.5t-14 90q0 119 58 194t153 75q64 0 111 -47q2 6 5.5 15.5t5 13t4.5 8t8 6t12 1.5h6q22 0 22 -21q-33 -308 -33 -332q0 -42 40 -42
q56 0 99.5 82.5t43.5 190.5q0 127 -77 204t-202 77q-167 0 -281.5 -123t-114.5 -301q0 -142 75 -230.5t197 -88.5q40 0 75 8t55 16.5t23 8.5q4 0 4 -6q-1 -15 -3 -23q-6 -23 -52 -35.5t-102 -12.5q-145 0 -235.5 100.5t-90.5 262.5q0 197 130 332.5t320 135.5zM568 256
q13 134 19 153q-41 34 -92 34q-144 0 -144 -202q0 -126 88 -126q34 0 69 33t60 108z" />
    <glyph glyph-name="A" unicode="A" horiz-adv-x="613" 
d="M357 702q35 0 39 -16l168 -658q1 -4 1 -10q0 -20 -44 -20h-8q-35 0 -39 16l-42 164h-294l-74 -164q-7 -16 -41 -16h-5q-41 0 -41 16q0 5 5 15l305 657q7 16 41 16h29zM334 610h-2q-12 -37 -21 -58l-137 -298h239l-73 298q-6 23 -6 58z" />
    <glyph glyph-name="B" unicode="B" horiz-adv-x="593" 
d="M335 700q102 0 156 -42t54 -114q0 -56 -39.5 -107.5t-90.5 -65.5l-1 -4q5 -1 13.5 -4t30.5 -14.5t39 -26.5t30.5 -42.5t13.5 -60.5q0 -110 -77 -164.5t-209 -54.5h-177q-27 0 -27 24q0 4 67 646q3 30 33 30h184zM318 624h-117l-23 -226h121q66 0 110 39t44 95
q0 92 -135 92zM304 322h-134l-26 -246h151q70 0 112.5 39t42.5 105q0 49 -37.5 75.5t-108.5 26.5z" />
    <glyph glyph-name="C" unicode="C" horiz-adv-x="619" 
d="M407 706q70 0 126.5 -20t56.5 -41q0 -12 -15.5 -35.5t-24.5 -23.5q-2 0 -22 11t-57 22t-79 11q-93 0 -153.5 -46.5t-85.5 -121t-25 -176.5q0 -111 50.5 -163.5t155.5 -52.5q48 0 92 12t68 24t25 12q7 0 7 -11q0 -23 -7 -55q-6 -27 -65.5 -42.5t-127.5 -15.5
q-147 0 -217.5 68.5t-70.5 211.5q0 90 18.5 164t59.5 136t115 97t176 35z" />
    <glyph glyph-name="D" unicode="D" horiz-adv-x="695" 
d="M365 700q127 0 202.5 -68.5t75.5 -216.5q0 -112 -29 -195t-80 -129.5t-111 -68.5t-131 -22h-215q-27 0 -27 24q0 6 11.5 116.5t29.5 278.5t26 251q3 30 33 30h215zM350 624h-150l-57 -548h150q109 0 184 79.5t75 245.5q0 118 -54.5 170.5t-147.5 52.5z" />
    <glyph glyph-name="E" unicode="E" horiz-adv-x="546" 
d="M498 700q17 0 17 -22q0 -54 -25 -54h-295l-24 -228h264q17 0 17 -22q0 -54 -25 -54h-264l-25 -244h296q17 0 17 -22q0 -54 -25 -54h-354q-27 0 -27 24q0 4 67 646q3 30 33 30h353z" />
    <glyph glyph-name="F" unicode="F" horiz-adv-x="503" 
d="M467 700q17 0 17 -22q0 -54 -25 -54h-259l-24 -228h251q17 0 17 -22q0 -54 -25 -54h-251l-31 -300q-3 -22 -42 -22h-8q-38 0 -38 22l68 650q3 30 33 30h317z" />
    <glyph glyph-name="G" unicode="G" horiz-adv-x="672" 
d="M418 706q70 0 127 -20t57 -41q0 -12 -15.5 -35.5t-24.5 -23.5q-2 0 -21 11t-55.5 22t-81.5 11q-129 0 -194.5 -89.5t-65.5 -252.5q0 -218 198 -218q80 0 130 13l22 202h-118q-17 0 -17 22q0 54 25 54h176q27 0 27 -24q0 -7 -5 -53l-12.5 -115t-10.5 -103q-8 -72 -231 -72
q-276 0 -276 281q0 216 97 323.5t269 107.5z" />
    <glyph glyph-name="H" unicode="H" horiz-adv-x="733" 
d="M631 702q38 0 38 -22l-69 -660q-3 -22 -42 -22h-8q-38 0 -38 22l31 301h-362l-31 -301q-3 -22 -42 -22h-8q-38 0 -38 22l69 660q2 22 42 22h8q38 0 38 -22l-30 -283h362l30 283q2 22 42 22h8z" />
    <glyph glyph-name="I" unicode="I" horiz-adv-x="282" 
d="M181 702q38 0 38 -22l-69 -660q-3 -22 -42 -22h-8q-38 0 -38 22l69 660q2 22 42 22h8z" />
    <glyph glyph-name="J" unicode="J" horiz-adv-x="402" 
d="M316 702q38 0 38 -22l-50 -475q-22 -211 -227 -211q-88 0 -88 32q0 59 15 59q1 0 21.5 -4.5t44.5 -4.5q69 0 103.5 30t41.5 95l51 479q2 22 42 22h8z" />
    <glyph glyph-name="K" unicode="K" horiz-adv-x="576" 
d="M515 702q34 0 34 -12q0 -9 -12 -21l-278 -309l261 -332q7 -9 7 -16q-1 -14 -45 -14h-7q-43 0 -54 13l-252 322h-4l-33 -313q-3 -22 -42 -22h-8q-38 0 -38 22l69 660q2 22 42 22h8q38 0 38 -22l-32 -306h4l277 314q13 14 55 14h10z" />
    <glyph glyph-name="L" unicode="L" horiz-adv-x="484" 
d="M168 702q38 0 38 -22l-63 -604h291q17 0 17 -22q0 -54 -25 -54h-349q-16 0 -21.5 7t-5.5 23l68 650q2 22 42 22h8z" />
    <glyph glyph-name="M" unicode="M" horiz-adv-x="843" 
d="M748 702q38 0 38 -22l-69 -660q-3 -22 -42 -22h-7q-38 0 -38 22l56 538l-3 -4l-234 -346q-9 -13 -24 -13h-40q-14 0 -20 13l-164 350l-3 6l-57 -544q-3 -22 -42 -22h-7q-38 0 -38 22l69 660q2 22 42 22h36q33 0 41 -18l154 -328l20 -63l32 57l224 334q11 18 43 18h33z
" />
    <glyph glyph-name="N" unicode="N" horiz-adv-x="719" 
d="M628 702q38 0 38 -22l-69 -660q-3 -22 -42 -22h-20q-26 0 -34 14l-284 498l-21 51l-57 -541q-3 -22 -42 -22h-7q-38 0 -38 22l69 660q2 22 42 22h21q29 0 40 -19l275 -482l24 -56l56 535q2 22 42 22h7z" />
    <glyph glyph-name="O" unicode="O" horiz-adv-x="731" 
d="M402 706q135 0 205.5 -72.5t70.5 -213.5q0 -205 -94 -315.5t-257 -110.5q-134 0 -204 73t-70 215q0 66 11 125t36.5 114.5t64.5 96t100 64.5t137 24zM394 630q-116 0 -183 -87t-67 -252q0 -109 48.5 -165t142.5 -56q115 0 183 88.5t68 251.5q0 109 -49 164.5t-143 55.5z
" />
    <glyph glyph-name="P" unicode="P" horiz-adv-x="570" 
d="M354 700q35 0 67 -6.5t65 -23t53 -51.5t20 -86q0 -59 -20 -104.5t-48 -69.5t-63.5 -38.5t-60.5 -18.5t-45 -4h-155l-29 -278q-3 -22 -42 -22h-8q-38 0 -38 22l68 650q3 30 33 30h203zM343 624h-142l-26 -250h156q18 0 38.5 6t44 20.5t38.5 46t15 74.5q0 57 -36.5 80
t-87.5 23z" />
    <glyph glyph-name="Q" unicode="Q" horiz-adv-x="731" 
d="M410 706q135 0 205 -73.5t70 -215.5q0 -169 -64.5 -276t-176.5 -136v-4l194 -63q12 -5 12 -20q0 -75 -21 -75q-8 0 -101.5 37t-199.5 80.5t-111 45.5q-157 61 -157 272q0 206 93.5 317t256.5 111zM402 630q-113 0 -181.5 -89.5t-68.5 -250.5q0 -108 49.5 -165.5
t141.5 -57.5q114 0 182 88.5t68 248.5q0 110 -49 168t-142 58z" />
    <glyph glyph-name="R" unicode="R" horiz-adv-x="610" 
d="M319 700q111 0 167.5 -36.5t56.5 -115.5q0 -72 -36 -121t-98 -73v-4q26 -10 42.5 -39.5t33.5 -85.5l58 -197q2 -8 2 -11q0 -19 -44 -19h-10q-35 0 -39 16l-55 196q-16 57 -47 77.5t-92 20.5h-90l-30 -288q-3 -22 -42 -22h-8q-38 0 -38 22l68 650q3 30 33 30h168zM326 624
h-125l-25 -240h132q59 0 100.5 42.5t41.5 98.5q0 50 -33 74.5t-91 24.5z" />
    <glyph glyph-name="S" unicode="S" horiz-adv-x="500" 
d="M300 706q60 0 112 -18t52 -41q0 -13 -14 -34t-25 -21q-4 0 -17 7q-54 31 -108 31q-61 0 -102 -30.5t-41 -86.5q0 -26 8.5 -46t27.5 -35t35 -24t44 -22t37 -17t34 -17t35 -21.5t27.5 -24.5t24.5 -31t13.5 -36t6.5 -45q0 -85 -64.5 -142.5t-188.5 -57.5q-66 0 -113.5 18.5
t-47.5 61.5q0 47 19 47q4 0 26 -13q60 -38 133 -38q65 0 105 32.5t40 83.5q0 26 -10 45.5t-32.5 35.5t-36.5 23t-44 21q-29 13 -46.5 21.5t-43.5 26.5t-41 36.5t-26.5 47.5t-11.5 63q0 90 66.5 145t166.5 55z" />
    <glyph glyph-name="T" unicode="T" horiz-adv-x="549" 
d="M545 700q17 0 17 -22q0 -54 -25 -54h-190l-63 -604q-3 -22 -42 -22h-8q-38 0 -38 22l63 604h-194q-17 0 -17 22q0 54 25 54h472z" />
    <glyph glyph-name="U" unicode="U" horiz-adv-x="712" 
d="M623 702q37 0 37 -22l-48 -456q-11 -109 -88.5 -169.5t-208.5 -60.5q-122 0 -186.5 52t-64.5 147q0 10 50 487q2 22 43 22h8q37 0 37 -22q-49 -464 -49 -474q0 -62 44 -99t126 -37q80 0 137 42.5t64 108.5l48 459q2 22 43 22h8z" />
    <glyph glyph-name="V" unicode="V" horiz-adv-x="617" 
d="M589 702q42 0 42 -16q0 -5 -5 -15l-298 -657q-7 -16 -41 -16h-31q-35 0 -39 16q-162 665 -162 667q0 21 45 21h9q35 0 39 -16l129 -534l5 -52h3l16 53l241 533q7 16 41 16h6z" />
    <glyph glyph-name="W" unicode="W" horiz-adv-x="882" 
d="M860 702q42 0 42 -16q0 -4 -247 -672q-5 -16 -41 -16h-41q-36 0 -39 16l-66 407l-7 130l-35 -130l-151 -407q-7 -16 -41 -16h-41q-36 0 -39 16l-105 668q0 20 45 20h9q36 0 39 -16l76 -492q8 -54 8 -93l35 98l172 486q5 17 40 17h16q35 0 38 -17l72 -492l7 -92l35 100
l172 485q5 16 41 16h6z" />
    <glyph glyph-name="X" unicode="X" horiz-adv-x="611" 
d="M555 702q45 0 45 -16q0 -5 -10 -19l-231 -297l189 -337q6 -12 6 -16q0 -19 -47 -19h-16q-33 0 -42 15l-155 275l-215 -276q-10 -14 -44 -14h-8q-44 0 -44 16q0 7 10 19l258 332l-168 302q-6 9 -6 16q0 19 47 19h14q33 0 42 -15l135 -241l190 242q10 14 44 14h6z" />
    <glyph glyph-name="Y" unicode="Y" horiz-adv-x="559" 
d="M531 702h9q36 -1 36 -16q0 -5 -10 -19l-243 -311l-35 -336q-3 -22 -42 -22h-8q-38 0 -38 22l35 339l-176 308q-6 9 -6 16q0 19 47 19h11q33 0 42 -15l138 -246l194 247q10 14 46 14z" />
    <glyph glyph-name="Z" unicode="Z" horiz-adv-x="616" 
d="M585 700q5 0 11 -16.5t6 -31.5q0 -12 -5 -17l-468 -559h392q17 0 17 -22q0 -54 -25 -54h-488q-7 0 -13 16.5t-6 31.5q0 12 5 17l468 559h-361q-17 0 -17 22q0 54 25 54h459z" />
    <glyph glyph-name="bracketleft" unicode="[" horiz-adv-x="291" 
d="M288 768q18 0 18 -20q0 -42 -24 -42h-78l-82 -782h77q18 0 18 -20q0 -42 -24 -42h-121q-16 0 -21.5 7t-5.5 23q0 9 89 846q3 30 33 30h121z" />
    <glyph glyph-name="backslash" unicode="\" horiz-adv-x="361" 
d="M76 703q20 0 26 -21l223 -683q1 -3 1 -8q0 -13 -15 -13h-25q-20 0 -26 21l-223 683q-2 6 -2 8q0 13 16 13h25z" />
    <glyph glyph-name="bracketright" unicode="]" horiz-adv-x="291" 
d="M217 768q16 0 21.5 -7t5.5 -23q0 -9 -89 -846q-3 -30 -33 -30h-121q-18 0 -18 20q0 42 24 42h78l82 782h-77q-18 0 -18 20q0 42 24 42h121z" />
    <glyph glyph-name="asciicircum" unicode="^" horiz-adv-x="450" 
d="M254 684q24 0 32 -20l92 -309q2 -5 2 -14q-3 -21 -30 -21h-4q-25 0 -32 23l-79 261l-134 -261q-13 -23 -37 -23h-4q-24 0 -24 17q0 9 4 18l158 309q11 20 36 20h20z" />
    <glyph glyph-name="underscore" unicode="_" horiz-adv-x="534" 
d="M537 -90q18 0 18 -20q0 -28 -23 -28h-535q-18 0 -18 20q0 28 23 28h535z" />
    <glyph glyph-name="grave" unicode="`" horiz-adv-x="320" 
d="M118 732q47 0 62 -26q58 -99 58 -112q0 -9 -23 -9q-36 0 -51 18q-88 100 -92 109q-2 4 -2 8q1 12 48 12z" />
    <glyph glyph-name="a" unicode="a" horiz-adv-x="545" 
d="M511 71q6 0 6 -7q0 -15 -4 -37q-3 -17 -22.5 -25t-37.5 -8q-90 0 -90 98v10q-57 -108 -156 -108q-27 0 -54 10t-53.5 32.5t-43 67t-16.5 106.5q0 141 67 230t178 89q70 0 127 -54q6 19 10 27t13 15.5t22 7.5h6q25 0 25 -21q-40 -370 -40 -397q0 -15 3 -24t9.5 -12t11 -4
t12.5 -1q7 0 16 2.5t11 2.5zM389 367q2 18 8 50q-49 39 -104 39q-166 0 -166 -240q0 -149 99 -149q40 0 81 39.5t69 129.5z" />
    <glyph glyph-name="b" unicode="b" horiz-adv-x="569" 
d="M159 752q38 0 38 -22l-32 -305q59 104 159 104q31 0 60.5 -9.5t59.5 -31t48.5 -66t18.5 -106.5q0 -141 -73 -231.5t-192 -90.5q-77 0 -133 54q-14 -50 -42 -50h-8q-25 0 -25 22l75 710q3 22 42 22h4zM305 456q-41 0 -83 -38.5t-71 -127.5l-14 -134q-3 -22 -8 -50
q46 -39 109 -39q53 0 91.5 20.5t58 56.5t28 76.5t8.5 89.5q0 146 -119 146z" />
    <glyph glyph-name="c" unicode="c" horiz-adv-x="485" 
d="M311 529q63 0 101.5 -17t38.5 -35q0 -11 -13.5 -30.5t-25.5 -19.5q-1 0 -22 12q-36 18 -89 18q-76 0 -121.5 -59.5t-45.5 -187.5q0 -75 32.5 -109.5t103.5 -34.5q56 0 110 22q22 9 24 9q6 0 6 -12q0 -20 -5 -45q-5 -26 -52.5 -36t-89.5 -10q-108 0 -162 50t-54 160
q0 91 25 161.5t86 117t153 46.5z" />
    <glyph glyph-name="d" unicode="d" horiz-adv-x="565" 
d="M538 71q6 0 6 -7q0 -15 -4 -37q-3 -17 -22.5 -25t-37.5 -8q-90 0 -90 98v10q-58 -108 -161 -108q-31 0 -61 10t-60 32.5t-48.5 67t-18.5 106.5q0 141 69 230t182 89q82 0 136 -45l27 246q3 22 42 22h4q38 0 38 -22q-64 -593 -64 -623q0 -15 3 -24t9.5 -12t11 -4t12.5 -1
q7 0 16 2.5t11 2.5zM402 234l19 184q-48 38 -117 38q-50 0 -85.5 -20t-54 -55.5t-27 -76t-8.5 -88.5q0 -82 30 -115.5t89 -33.5q41 0 83 39t71 128z" />
    <glyph glyph-name="e" unicode="e" horiz-adv-x="539" 
d="M219 213q-49 0 -86 7v-10q0 -79 37.5 -111.5t108.5 -32.5q40 0 75 12t55.5 24.5t24.5 12.5q7 0 7 -12q0 -19 -5 -45q-6 -31 -62 -47.5t-102 -16.5q-226 0 -226 207q0 145 68 236.5t207 91.5q85 0 126.5 -42.5t41.5 -90.5q0 -50 -22.5 -87t-62 -57t-85.5 -29.5t-100 -9.5z
M312 457q-150 0 -174 -172h71q17 0 32 0.5t47.5 6t55 15.5t40.5 31t18 50t-24.5 49t-65.5 20z" />
    <glyph glyph-name="f" unicode="f" horiz-adv-x="325" 
d="M278 756q71 0 71 -31q0 -10 -9 -29t-17 -19q-1 0 -6 1.5t-15.5 3.5t-23.5 2q-26 0 -41 -14t-19 -56l-9 -91h87q16 0 16 -19q0 -5 -3 -16t-14 -24t-28 -13h-66l-45 -431q-3 -22 -42 -22h-4q-38 0 -38 22l45 431h-40q-17 0 -17 27q0 45 25 45h40l10 101q13 132 143 132z
" />
    <glyph glyph-name="g" unicode="g" horiz-adv-x="546" 
d="M475 525q25 0 25 -21l-43 -405q-18 -174 -75.5 -242.5t-168.5 -68.5q-72 0 -122 23t-50 48q0 55 14 55q2 0 20.5 -13.5t55 -27t82.5 -13.5q74 0 113 58t49 190q-58 -108 -161 -108q-28 0 -55.5 9.5t-55 31.5t-44.5 65.5t-17 103.5q0 141 68.5 230t181.5 89q73 0 132 -54
q6 19 10 27t13 15.5t22 7.5h6zM401 367q2 18 8 50q-52 39 -109 39q-171 0 -171 -240q0 -143 104 -143q41 0 83.5 40t71.5 131z" />
    <glyph glyph-name="h" unicode="h" horiz-adv-x="565" 
d="M175 752q38 0 38 -22l-32 -298q72 97 175 97q132 0 132 -130q0 -8 -14.5 -144.5t-14.5 -147.5q0 -15 3 -24t9.5 -12t11 -4t12.5 -1q7 0 16 2.5t11 2.5q6 0 6 -7q0 -15 -4 -37q-3 -17 -22.5 -25t-37.5 -8q-90 0 -90 98q0 18 14 148.5t14 138.5q0 77 -76 77
q-41 0 -85 -36.5t-74 -122.5l-29 -277q-3 -22 -42 -22h-4q-38 0 -38 21l75 711q3 22 42 22h4z" />
    <glyph glyph-name="i" unicode="i" horiz-adv-x="265" 
d="M178 752q38 0 38 -22l-6 -59q0 -22 -38 -22h-12q-42 0 -42 22l6 59q3 22 42 22h12zM150 525q38 0 38 -22q-40 -366 -40 -396q0 -19 6 -28.5t12 -11t17 -1.5q7 0 16 2.5t11 2.5q6 0 6 -7q0 -15 -4 -37q-3 -17 -22.5 -25t-37.5 -8q-89 0 -89 95q0 19 10 122t20 197.5
t11 94.5q3 22 42 22h4z" />
    <glyph glyph-name="j" unicode="j" horiz-adv-x="276" 
d="M194 752q38 0 38 -22l-6 -59q0 -22 -38 -22h-12q-42 0 -42 22l6 59q3 22 42 22h12zM166 525q38 0 38 -22l-61 -577q-8 -78 -45.5 -108t-86.5 -30q-34 0 -56 11.5t-22 29.5q0 48 11 48q1 0 18 -8.5t38 -8.5q26 0 41 16t19 58l60 569q3 22 42 22h4z" />
    <glyph glyph-name="k" unicode="k" horiz-adv-x="521" 
d="M175 752q38 0 38 -22l-47 -447h4l224 228q13 14 54 14h4q34 0 34 -12q0 -9 -12 -21l-218 -220l201 -244q7 -10 7 -14q0 -10 -10 -13t-35 -3h-4q-43 0 -53 13l-196 237h-4l-24 -228q-3 -22 -42 -22h-4q-38 0 -38 22l75 710q2 22 42 22h4z" />
    <glyph glyph-name="l" unicode="l" horiz-adv-x="297" 
d="M187 752q38 0 38 -22q-64 -593 -64 -623q0 -15 3 -24t9.5 -12t11 -4t12.5 -1q7 0 16 2.5t11 2.5q6 0 6 -7q0 -15 -4 -37q-3 -17 -22.5 -25t-37.5 -8q-90 0 -90 98q0 20 16 178.5t32 309.5l17 150q3 22 42 22h4z" />
    <glyph glyph-name="m" unicode="m" horiz-adv-x="848" 
d="M797 71q6 0 6 -7q0 -15 -4 -37q-3 -17 -22.5 -25t-37.5 -8q-90 0 -90 98q0 18 14 148.5t14 138.5q0 77 -76 77q-38 0 -78.5 -35t-70.5 -116l-30 -285q-2 -22 -42 -22h-4q-38 0 -38 21q37 344 37 360q0 77 -76 77q-38 0 -78 -34t-70 -115l-30 -287q-3 -22 -42 -22h-4
q-38 0 -38 21q44 391 44 438q0 14 -0.5 23.5t-0.5 10.5q0 23 56 23q26 0 26 -67v-19q63 101 167 101q119 0 131 -108q65 108 171 108q132 0 132 -130q0 -8 -14.5 -144.5t-14.5 -147.5q0 -15 3 -24t9.5 -12t11 -4t12.5 -1q7 0 16 2.5t11 2.5z" />
    <glyph glyph-name="n" unicode="n" 
d="M505 71q6 0 6 -7q0 -15 -4 -37q-3 -17 -22.5 -25t-37.5 -8q-90 0 -90 98q0 18 14 148.5t14 138.5q0 77 -76 77q-41 0 -85.5 -37t-73.5 -124l-29 -275q-3 -22 -42 -22h-4q-38 0 -38 21q44 391 44 438q0 14 -0.5 23.5t-0.5 10.5q0 23 56 23q26 0 26 -67v-19q74 101 177 101
q132 0 132 -130q0 -8 -14.5 -144.5t-14.5 -147.5q0 -15 3 -24t9.5 -12t11 -4t12.5 -1q7 0 16 2.5t11 2.5z" />
    <glyph glyph-name="o" unicode="o" horiz-adv-x="569" 
d="M309 529q98 0 149.5 -55.5t51.5 -161.5q0 -153 -68.5 -235.5t-189.5 -82.5q-102 0 -154.5 55t-52.5 160q0 64 15 120t46 101.5t83 72t120 26.5zM298 457q-81 0 -124 -65t-43 -180q0 -146 126 -146q80 0 123 62.5t43 181.5q0 75 -30.5 111t-94.5 36z" />
    <glyph glyph-name="p" unicode="p" horiz-adv-x="573" 
d="M329 529q31 0 60.5 -9.5t59.5 -31.5t48.5 -66t18.5 -104q0 -143 -68.5 -233.5t-182.5 -90.5q-77 0 -135 53l-24 -233q-3 -22 -42 -22h-4q-38 0 -38 21l59 570q6 57 6 74q0 14 -0.5 23.5t-0.5 10.5q0 23 56 23q26 0 26 -75v-12q59 102 161 102zM253 66q176 0 176 246
q0 144 -119 144q-41 0 -83.5 -39t-71.5 -127q-7 -60 -18 -179q51 -45 116 -45z" />
    <glyph glyph-name="q" unicode="q" horiz-adv-x="566" 
d="M493 525q25 0 25 -22l-72 -689q-3 -22 -42 -22h-4q-38 0 -38 22l29 284q-59 -104 -159 -104q-31 0 -60.5 10t-59.5 32.5t-48.5 67t-18.5 106.5q0 141 72.5 230t192.5 89q77 0 133 -54q14 50 42 50h8zM405 233l14 134q3 23 8 50q-46 39 -109 39q-186 0 -186 -240
q0 -149 119 -149q41 0 83 38.5t71 127.5z" />
    <glyph glyph-name="r" unicode="r" horiz-adv-x="366" 
d="M319 529q50 0 50 -38q0 -18 -10 -37t-19 -19q-2 0 -13 5.5t-26 5.5q-39 0 -73 -42t-54 -116l-28 -268q-3 -22 -42 -22h-4q-38 0 -38 21l38 354q6 48 6 84q0 10 -0.5 20.5t-0.5 13.5q0 23 56 23q27 0 27 -50q0 -12 -2 -36q23 47 58.5 74t74.5 27z" />
    <glyph glyph-name="s" unicode="s" horiz-adv-x="413" 
d="M233 529q44 0 85 -12t41 -34q0 -13 -13 -31.5t-21 -18.5q-6 0 -14 5q-38 19 -77 19q-43 0 -68 -18t-25 -49q0 -28 20 -45t71 -45q67 -36 95.5 -70.5t28.5 -79.5q0 -67 -52.5 -111.5t-146.5 -44.5q-44 0 -77.5 10.5t-48 23.5t-14.5 25q0 13 10 32.5t16 19.5q3 0 15 -7
q51 -32 103 -32q49 0 79 23.5t30 57.5q0 10 -2.5 19.5t-10 18t-12.5 14t-18 14t-18.5 12t-22.5 12.5t-22 12q-59 33 -85 64t-26 73q0 63 52 103t128 40z" />
    <glyph glyph-name="t" unicode="t" horiz-adv-x="342" 
d="M185 650q38 0 38 -22l-11 -105h85q16 0 16 -19q0 -5 -3 -16t-14 -24t-28 -13h-64q-34 -308 -34 -328q0 -57 48 -57q18 0 31 3.5t14 3.5q7 0 7 -9q0 -16 -5 -37q-8 -33 -68 -33q-112 0 -112 110l35 347h-50q-17 0 -17 27q0 45 25 45h50l12 105q3 22 41 22h4z" />
    <glyph glyph-name="u" unicode="u" 
d="M515 71q6 0 6 -7q0 -15 -4 -37q-3 -17 -22.5 -25t-37.5 -8q-90 0 -90 98v10q-72 -108 -178 -108q-132 0 -132 130l38 379q3 22 42 22h4q38 0 38 -22q-36 -345 -36 -359q0 -77 76 -77q42 0 86.5 39t73.5 131l28 266q3 22 42 22h4q38 0 38 -22q-39 -366 -39 -396
q0 -15 3 -24t9.5 -12t11 -4t12.5 -1q7 0 16 2.5t11 2.5z" />
    <glyph glyph-name="v" unicode="v" horiz-adv-x="485" 
d="M442 525q41 0 41 -15q0 -7 -4 -16l-212 -480q-7 -16 -41 -16h-35q-35 0 -39 16l-110 483q-2 9 -2 11q2 17 45 17h8q35 0 39 -16l59 -264q5 -24 15.5 -71t16.5 -70h5q51 128 57 141l115 264q7 16 41 16h1z" />
    <glyph glyph-name="w" unicode="w" horiz-adv-x="747" 
d="M694 525q42 0 42 -15q0 -7 -4 -16l-185 -480q-7 -16 -41 -16h-33q-35 0 -38 16l-53 364l-133 -364q-5 -16 -41 -16h-33q-36 0 -39 16q-85 490 -85 494q2 17 45 17h9q36 0 39 -16l63 -399l145 398q7 17 41 17h11q34 0 37 -17l64 -398l146 399q5 16 43 16z" />
    <glyph glyph-name="x" unicode="x" horiz-adv-x="485" 
d="M434 525q44 0 44 -15q0 -8 -9 -20l-175 -220l137 -237q7 -10 7 -18q-3 -17 -48 -17h-11q-33 0 -42 15l-105 183l-147 -184q-11 -14 -44 -14h-4q-44 0 -44 15q0 7 9 20l187 235l-126 222q-7 10 -7 18q3 17 48 17h11q33 0 42 -15l96 -166l133 167q10 14 44 14h4z" />
    <glyph glyph-name="y" unicode="y" horiz-adv-x="481" 
d="M447 525q38 0 38 -16q0 -6 -4 -15l-329 -681q-10 -21 -49 -21h-15q-31 0 -31 15q0 5 7 18l105 203q-128 474 -128 480q0 17 45 17h8q34 0 38 -16l77 -282l21 -79h2q15 37 35 79l134 282q8 16 43 16h3z" />
    <glyph glyph-name="z" unicode="z" horiz-adv-x="489" 
d="M455 523q6 0 10.5 -16t4.5 -32q0 -10 -4 -14l-332 -389h275q17 0 17 -27q0 -45 -25 -45h-370q-5 0 -11 15.5t-6 30.5q0 11 5 16l333 389h-256q-17 0 -17 27q0 45 25 45h351z" />
    <glyph glyph-name="braceleft" unicode="{" horiz-adv-x="274" 
d="M271 768q18 0 18 -20q0 -42 -24 -42h-22q-20 0 -29 -15t-12 -46l-18 -176q-10 -98 -95 -155q10 -5 23 -17.5t26.5 -42.5t13.5 -68q0 -20 -10.5 -108.5t-10.5 -115.5q0 -38 29 -38h22q18 0 18 -20q0 -42 -24 -42h-50q-25 0 -46 21t-21 71q0 24 11 124t11 113q0 65 -41 83
q-21 9 -21 29q0 26 5 35.5t25 17.5q32 13 45 43t19 86l18 167q7 64 33 90t57 26h50z" />
    <glyph glyph-name="bar" unicode="|" horiz-adv-x="250" 
d="M130 770q24 0 24 -22v-866q0 -22 -24 -22h-10q-24 0 -24 22v866q0 22 24 22h10z" />
    <glyph glyph-name="braceright" unicode="}" horiz-adv-x="274" 
d="M146 768q25 0 46 -21t21 -71q0 -24 -11 -124t-11 -113q0 -65 41 -83q21 -9 21 -29q0 -25 -5.5 -35.5t-24.5 -17.5q-33 -12 -45.5 -42t-18.5 -87l-18 -167q-7 -64 -33 -90t-57 -26h-50q-18 0 -18 20q0 42 24 42h22q20 0 29 15t12 46l18 176q10 98 95 155q-10 5 -23 17.5
t-26.5 42.5t-13.5 68q0 20 10.5 108.5t10.5 115.5q0 38 -29 38h-22q-18 0 -18 20q0 42 24 42h50z" />
    <glyph glyph-name="asciitilde" unicode="~" horiz-adv-x="547" 
d="M232 325q36 0 108 -21.5t98 -21.5q30 0 52 29q14 19 35 12l9 -3q19 -6 9 -26q-35 -68 -108 -68q-39 0 -111 21.5t-98 21.5q-27 0 -50 -30q-13 -18 -34 -12l-11 4q-18 6 -8 25q35 69 109 69z" />
    <glyph glyph-name="uni00A0" unicode="&#xa0;" horiz-adv-x="240" 
 />
    <glyph glyph-name="exclamdown" unicode="&#xa1;" horiz-adv-x="294" 
d="M189 525q38 0 38 -22l-7 -66q-3 -22 -42 -22h-17q-38 0 -38 22l7 66q2 22 42 22h17zM166 321q28 0 28 -22l-48 -456q-3 -22 -42 -22h-20q-37 0 -37 22l75 456q3 22 33 22h11z" />
    <glyph glyph-name="cent" unicode="&#xa2;" horiz-adv-x="486" 
d="M323 578q18 0 18 -20l-3 -30q53 -3 85 -19t32 -32q0 -11 -13.5 -30.5t-25.5 -19.5q-2 0 -11 6t-29 13t-46 9l-42 -389q32 1 59.5 9t42.5 15t18 7q6 0 6 -12q0 -20 -5 -45q-8 -40 -128 -46l-5 -45q-3 -20 -20 -20h-2q-11 0 -14.5 4.5t-3.5 15.5q0 9 5 46
q-95 5 -142.5 55.5t-47.5 153.5q0 88 23.5 157t80.5 116t143 51l3 30q1 20 20 20h2zM290 456q-69 -6 -110.5 -65.5t-41.5 -180.5q0 -68 26.5 -103t83.5 -40z" />
    <glyph glyph-name="sterling" unicode="&#xa3;" horiz-adv-x="491" 
d="M361 706q97 0 97 -32q0 -7 -8.5 -28t-18.5 -21q-1 0 -22 4.5t-40 4.5q-71 0 -107.5 -31.5t-43.5 -99.5l-9 -92h146q16 0 16 -19q0 -5 -3 -16t-14 -24t-28 -13h-125l-9 -90q-6 -63 -22 -104t-27 -52t-27 -21h280q11 0 14 -7t3 -23q0 -9 -1 -19q-1 -9 -8 -16t-16 -7h-374
q-16 0 -16 18q0 8 2 28q1 14 15.5 24t31.5 16.5t32.5 25t18.5 47.5l19 180h-56q-17 0 -17 27q0 45 25 45h56l9 87q21 208 227 208z" />
    <glyph glyph-name="currency" unicode="&#xa4;" horiz-adv-x="534" 
d="M429 500q10 0 17 -7l3 -3q7 -7 7 -16q0 -12 -13 -24l-27 -24q26 -41 26 -87q0 -69 -48 -122l22 -24q9 -11 9 -21q0 -8 -8 -16l-4 -4q-9 -9 -20 -9q-9 0 -20 11l-22 24q-50 -33 -107 -33q-59 0 -101 33l-27 -25q-11 -10 -22 -10q-6 0 -16 10l-3 3q-6 6 -6 14q0 10 13 23
l26 24q-23 37 -23 83q0 74 46 127l-22 23q-9 11 -9 20q0 10 9 19l2 2q8 8 19 8q14 0 21 -10l22 -24q51 35 108 35t101 -34l26 24q12 10 21 10zM275 439q-52 0 -90.5 -39t-38.5 -91q0 -44 29.5 -73.5t74.5 -29.5q51 0 90.5 38t39.5 89q0 45 -30 75.5t-75 30.5z" />
    <glyph glyph-name="yen" unicode="&#xa5;" horiz-adv-x="559" 
d="M576 686q0 -5 -10 -19l-191 -245h126q16 0 16 -25q0 -42 -23 -42h-171l-10 -96h171q16 0 16 -25q0 -42 -23 -42h-171l-18 -172q-3 -22 -42 -22h-8q-38 0 -38 22l18 172h-169q-16 0 -16 25q0 42 23 42h169l10 96h-169q-16 0 -16 25q0 42 23 42h126l-140 245q-6 9 -6 16
q0 19 47 19h11q33 0 42 -15l138 -246l194 247q10 14 46 14h9q36 -1 36 -16z" />
    <glyph glyph-name="brokenbar" unicode="&#xa6;" horiz-adv-x="250" 
d="M177 770q22 0 22 -22q0 -4 -6 -59.5t-15 -138t-13 -125.5q-3 -22 -26 -22h-10q-22 0 -22 22q0 6 6 61l15 137.5t13 124.5q2 22 26 22h10zM120 226q22 0 22 -22q0 -5 -6 -60l-15 -137.5t-13 -124.5q-3 -22 -26 -22h-10q-22 0 -22 22q0 6 6 61l15 137.5t13 123.5
q2 22 26 22h10z" />
    <glyph glyph-name="section" unicode="&#xa7;" horiz-adv-x="429" 
d="M262 706q43 0 83 -12t40 -36q0 -10 -12.5 -29t-23.5 -19q-1 0 -13 6t-32 12t-42 6q-43 0 -65.5 -18.5t-22.5 -47.5q0 -25 21 -39.5t51 -23.5t60.5 -21.5t51.5 -42t21 -75.5q0 -88 -68 -139q31 -29 31 -73q0 -80 -53 -120t-122 -40q-42 0 -79.5 12t-37.5 35q0 54 16 54
q3 0 17 -7.5t37 -14.5t46 -7q42 0 65.5 18.5t23.5 46.5q0 25 -21 40.5t-51.5 24.5t-61 22t-51.5 43t-21 77q0 83 67 136q-30 28 -30 75q0 78 53.5 117.5t122.5 39.5zM199 435q-65 -18 -65 -86q0 -36 23.5 -52.5t71.5 -30.5q27 6 45.5 27.5t18.5 59.5q0 34 -23.5 51t-70.5 31
z" />
    <glyph glyph-name="dieresis" unicode="&#xa8;" horiz-adv-x="320" 
d="M95 702q38 0 38 -22l-5 -51q-3 -22 -46 -22q-38 0 -38 22l5 51q3 22 46 22zM239 702q38 0 38 -22l-5 -51q-3 -22 -46 -22q-38 0 -38 22l5 51q2 22 46 22z" />
    <glyph glyph-name="copyright" unicode="&#xa9;" horiz-adv-x="739" 
d="M369 708q150 0 255 -103.5t105 -252.5t-105.5 -254t-254.5 -105t-254 105t-105 254t104.5 252.5t254.5 103.5zM369 660q-129 0 -220 -89.5t-91 -218.5q0 -128 91.5 -219.5t219.5 -91.5q129 0 220.5 91.5t91.5 219.5q0 129 -91.5 218.5t-220.5 89.5zM387 560
q43 0 78.5 -12t35.5 -25q0 -8 -7.5 -21.5t-13.5 -13.5q-1 0 -12.5 7t-33 13.5t-46.5 6.5q-72 0 -106.5 -40.5t-34.5 -127.5q0 -86 34 -126.5t104 -40.5q27 0 51 7.5t37 15t15 7.5q6 0 13.5 -13t7.5 -19q0 -13 -37.5 -28t-86.5 -15q-98 0 -145 52t-47 160q0 213 194 213z" />
    <glyph glyph-name="ordfeminine" unicode="&#xaa;" horiz-adv-x="319" 
d="M275 480q3 0 3 -3q0 -8 -2 -19q-3 -16 -29 -16q-45 0 -45 48v5q-28 -53 -79 -53q-32 0 -58.5 24.5t-26.5 82.5q0 69 33.5 113t89.5 44q37 0 66 -27q7 25 22 25h4q11 0 11 -10q-20 -183 -20 -196q0 -9 3 -14t6 -5.5t9 -0.5q3 0 7.5 1t5.5 1zM208 561q8 78 11 90
q-27 19 -54 19q-84 0 -84 -118q0 -74 51 -74q20 0 41.5 19.5t34.5 63.5z" />
    <glyph glyph-name="guillemotleft" unicode="&#xab;" horiz-adv-x="471" 
d="M229 454q9 0 20.5 -9.5t11.5 -20.5q0 -6 -10 -22l-126 -144l95 -145q6 -9 6 -16q0 -9 -12.5 -22.5t-25.5 -13.5q-11 0 -21 13l-113 156q-10 14 -10 25q0 15 15 31l147 156q12 12 23 12zM401 454q9 0 20.5 -9.5t11.5 -20.5q0 -6 -10 -22l-126 -144l95 -145q6 -9 6 -16
q0 -9 -12.5 -22.5t-25.5 -13.5q-11 0 -21 13l-113 156q-10 14 -10 25q0 15 15 31l147 156q12 12 23 12z" />
    <glyph glyph-name="logicalnot" unicode="&#xac;" horiz-adv-x="560" 
d="M505 338q16 0 21.5 -7t5.5 -23l-22 -209q-3 -22 -32 -22h-13q-28 0 -28 22l18 166h-391q-18 0 -18 20q0 53 25 53h434z" />
    <glyph glyph-name="uni00AD" unicode="&#xad;" horiz-adv-x="320" 
d="M259 301q17 0 17 -27q0 -45 -25 -45h-194q-17 0 -17 27q0 45 25 45h194z" />
    <glyph glyph-name="registered" unicode="&#xae;" horiz-adv-x="739" 
d="M369 709q150 0 255 -103.5t105 -252.5t-105.5 -254t-254.5 -105t-254 105t-105 254t104.5 252.5t254.5 103.5zM369 661q-129 0 -220 -89.5t-91 -218.5q0 -128 91.5 -219.5t219.5 -91.5q129 0 220.5 91.5t91.5 219.5q0 129 -91.5 218.5t-220.5 89.5zM366 558
q142 0 142 -104q0 -72 -68 -99v-4q17 -6 28 -22.5t25 -50.5l46 -116q2 -8 2 -9q0 -9 -25 -9h-6q-19 0 -23 9l-45 116q-13 34 -32.5 46t-55.5 12h-53v-170q0 -13 -24 -13h-4q-24 0 -24 13v383q0 18 18 18h99zM375 513h-74v-141h78q31 0 53 21.5t22 50.5q0 69 -79 69z" />
    <glyph glyph-name="macron" unicode="&#xaf;" horiz-adv-x="320" 
d="M274 683q17 0 17 -26q0 -45 -25 -45h-226q-17 0 -17 27q0 44 25 44h226z" />
    <glyph glyph-name="degree" unicode="&#xb0;" horiz-adv-x="345" 
d="M183 706q51 0 85.5 -34.5t34.5 -84.5q0 -62 -43 -104t-104 -42q-53 0 -86.5 34t-33.5 85q0 62 42 104t105 42zM179 661q-39 0 -66.5 -29.5t-27.5 -68.5q0 -32 21.5 -54.5t53.5 -22.5q38 0 65.5 27.5t27.5 68.5q0 33 -21 56t-53 23z" />
    <glyph glyph-name="plusminus" unicode="&#xb1;" horiz-adv-x="560" 
d="M315 593q27 0 27 -30l-18 -169h168q27 0 27 -26q0 -15 -9.5 -28t-24.5 -13h-168l-18 -168q-3 -30 -33 -30h-7q-27 0 -27 30l18 168h-169q-27 0 -27 26q0 15 9.5 28t24.5 13h169l18 169q3 30 33 30h7zM468 73q27 0 27 -26q0 -18 -10 -32.5t-25 -14.5h-424q-27 0 -27 26
q0 17 10 32t25 15h424z" />
    <glyph glyph-name="uni00B2" unicode="&#xb2;" horiz-adv-x="320" 
d="M174 706q52 0 82.5 -23.5t30.5 -62.5q0 -57 -47 -108l-155 -171h166q10 0 10 -16q0 -26 -15 -26h-215q-4 0 -8 11t-4 19q0 4 1 5l178 197q39 43 39 81q0 24 -17.5 38t-48.5 14q-23 0 -43.5 -7t-32 -14.5t-14.5 -7.5q-4 0 -9.5 10.5t-5.5 17.5q0 17 38 30t70 13z" />
    <glyph glyph-name="uni00B3" unicode="&#xb3;" horiz-adv-x="320" 
d="M180 706q49 0 77.5 -22.5t28.5 -64.5q0 -35 -19 -59.5t-49 -34.5l-1 -3q26 -7 44.5 -30.5t18.5 -60.5q0 -68 -44.5 -101.5t-97.5 -33.5q-9 0 -22.5 1t-31.5 3.5t-30.5 9t-12.5 15.5q0 34 9 34l12 -5q11 -6 32 -11.5t44 -5.5q35 0 63.5 22t28.5 72q0 62 -79 62h-20
q-10 0 -10 15q0 26 15 26h16q43 0 64 27t21 54q0 50 -63 50q-23 0 -42 -4.5t-29.5 -9.5t-13.5 -5q-4 0 -10 11t-6 18q0 12 38 21.5t69 9.5z" />
    <glyph glyph-name="acute" unicode="&#xb4;" horiz-adv-x="320" 
d="M201 732q47 0 47 -12q0 -9 -65 -76l-41 -41q-18 -18 -53 -18q-22 0 -22 9q0 12 69 112q18 26 65 26z" />
    <glyph glyph-name="uni00B5" unicode="&#xb5;" horiz-adv-x="566" 
d="M540 71q6 0 6 -7q0 -15 -4 -37q-3 -17 -22.5 -25t-37.5 -8q-90 0 -90 98v10q-72 -108 -178 -108q-30 0 -61 9l-20 -189q-3 -22 -42 -22h-4q-38 0 -38 21l71 690q3 22 42 22h4q38 0 38 -22q-36 -345 -36 -359q0 -77 76 -77q42 0 86.5 39t73.5 131l28 266q3 22 42 22h4
q38 0 38 -22q-39 -366 -39 -396q0 -15 3 -24t9.5 -12t11 -4t12.5 -1q7 0 16 2.5t11 2.5z" />
    <glyph glyph-name="paragraph" unicode="&#xb6;" horiz-adv-x="515" 
d="M526 700q11 0 14.5 -4.5t3.5 -15.5l-2 -22q-1 -20 -22 -20h-36l-83 -789q-3 -22 -22 -22h-22q-18 0 -18 22l83 789h-78l-83 -789q-3 -22 -22 -22h-22q-18 0 -18 22l42 398q-79 9 -129.5 66t-50.5 137q0 114 74 182t178 68h213z" />
    <glyph glyph-name="periodcentered" unicode="&#xb7;" horiz-adv-x="267" 
d="M146 412q20 0 33 -13t13 -33q0 -26 -16.5 -41.5t-40.5 -15.5q-20 0 -33 12.5t-13 32.5q0 25 16 41.5t41 16.5z" />
    <glyph glyph-name="cedilla" unicode="&#xb8;" horiz-adv-x="320" 
d="M195 -49q15 0 30 -3t31.5 -18.5t16.5 -40.5q0 -99 -125 -99q-12 0 -26 1.5t-31 5.5t-28.5 12.5t-11.5 21.5q0 33 12 33l10 -6q10 -6 28.5 -12.5t39.5 -6.5q60 0 60 40q0 13 -9.5 20.5t-20.5 10t-20.5 8t-9.5 13.5q6 18 27 69h43l-20 -49h4z" />
    <glyph glyph-name="uni00B9" unicode="&#xb9;" horiz-adv-x="217" 
d="M175 702q17 0 17 -12l-40 -381q-2 -12 -23 -12h-4q-21 0 -21 12l36 341l-77 -17q-9 0 -9 23q0 15 12 17z" />
    <glyph glyph-name="ordmasculine" unicode="&#xba;" horiz-adv-x="337" 
d="M183 706q99 0 99 -106q0 -159 -126 -159q-103 0 -103 106q0 48 12.5 81t33.5 49t41 22.5t43 6.5zM178 670q-82 0 -82 -121q0 -39 15 -55.5t46 -16.5q82 0 82 121q0 72 -61 72z" />
    <glyph glyph-name="guillemotright" unicode="&#xbb;" horiz-adv-x="471" 
d="M109 454q12 0 21 -12l113 -156q11 -15 11 -28q-1 -12 -16 -28l-147 -156q-13 -13 -23 -13q-11 0 -21.5 11t-10.5 21q0 6 10 20l127 145l-96 144q-6 9 -6 17q0 13 13.5 24t24.5 11zM281 454q12 0 21 -12l113 -156q11 -15 11 -28q-1 -12 -16 -28l-147 -156q-13 -13 -23 -13
q-11 0 -21.5 11t-10.5 21q0 6 10 20l127 145l-96 144q-6 9 -6 17q0 13 13.5 24t24.5 11z" />
    <glyph glyph-name="onequarter" unicode="&#xbc;" horiz-adv-x="671" 
d="M580 703q13 0 13 -6q0 -3 -5 -10l-477 -673q-11 -16 -32 -16h-13q-13 0 -13 6q0 5 5 10l477 673q11 16 32 16h13zM193 702q17 0 17 -12l-40 -381q-2 -12 -23 -12h-4q-21 0 -21 12l36 341l-77 -17q-9 0 -9 23q0 15 12 17zM566 404q16 0 16 -13l-28 -263h39q10 0 10 -16
q0 -25 -15 -25h-38l-8 -76q-2 -13 -18 -13h-13q-17 0 -17 13l8 76h-175q-4 0 -7.5 8t-3.5 17q0 6 2 10l219 274q6 8 20 8h9zM527 320l-3 1l-150 -193h132l17 159z" />
    <glyph glyph-name="onehalf" unicode="&#xbd;" horiz-adv-x="746" 
d="M580 703q13 0 13 -6q0 -3 -5 -10l-477 -673q-11 -16 -32 -16h-13q-13 0 -13 6q0 5 5 10l477 673q11 16 32 16h13zM193 702q17 0 17 -12l-40 -381q-2 -12 -23 -12h-4q-21 0 -21 12l36 341l-77 -17q-9 0 -9 23q0 15 12 17zM568 407q52 0 82.5 -23.5t30.5 -62.5
q0 -57 -47 -108l-155 -171h166q10 0 10 -16q0 -26 -15 -26h-215q-4 0 -8 11t-4 19q0 4 1 5l178 197q39 43 39 81q0 24 -17.5 38t-48.5 14q-23 0 -43.5 -7.5t-32 -14.5t-14.5 -7q-4 0 -9.5 10.5t-5.5 17.5q0 17 38 30t70 13z" />
    <glyph glyph-name="threequarters" unicode="&#xbe;" horiz-adv-x="738" 
d="M192 706q49 0 77.5 -22.5t28.5 -64.5q0 -35 -19 -59.5t-49 -34.5l-1 -3q26 -7 44.5 -30.5t18.5 -60.5q0 -68 -44.5 -101.5t-97.5 -33.5q-9 0 -22.5 1t-31.5 3.5t-30.5 9t-12.5 15.5q0 34 9 34l12 -5q11 -6 32 -11.5t44 -5.5q35 0 63.5 22t28.5 72q0 62 -79 62h-20
q-10 0 -10 15q0 26 15 26h16q43 0 64 27t21 54q0 50 -63 50q-23 0 -42 -4.5t-29.5 -9.5t-13.5 -5q-4 0 -10 11t-6 18q0 12 38 21.5t69 9.5zM646 703q13 0 13 -6q0 -3 -5 -10l-477 -673q-11 -16 -32 -16h-13q-13 0 -13 6q0 5 5 10l477 673q11 16 32 16h13zM634 404
q16 0 16 -13l-28 -263h39q10 0 10 -16q0 -25 -15 -25h-38l-8 -76q-2 -13 -18 -13h-13q-17 0 -17 13l8 76h-175q-4 0 -7.5 8t-3.5 17q0 6 2 10l219 274q6 8 20 8h9zM595 320l-3 1l-150 -193h132l17 155z" />
    <glyph glyph-name="questiondown" unicode="&#xbf;" horiz-adv-x="425" 
d="M340 525q37 0 37 -22l-7 -66q-2 -22 -42 -22h-17q-38 0 -38 22l7 66q2 22 43 22h17zM313 321q28 0 28 -21q0 -32 -28.5 -76t-74.5 -85q-41 -37 -59.5 -55.5t-35 -47.5t-16.5 -57q0 -88 116 -88q30 0 59.5 8.5t46.5 17t18 8.5q5 0 6 -2t1 -10q0 -22 -5 -49
q-5 -26 -55 -36.5t-95 -10.5q-89 0 -138 42.5t-49 107.5q0 41 21 79t52.5 68t63.5 58.5t59 62t35 66.5q5 20 35 20h15z" />
    <glyph glyph-name="Agrave" unicode="&#xc0;" horiz-adv-x="613" 
d="M271 909q47 0 62 -26q58 -99 58 -112q0 -9 -23 -9q-36 0 -51 18q-88 100 -92 109q-2 4 -2 8q1 12 48 12zM357 702q35 0 39 -16l168 -658q1 -4 1 -10q0 -20 -44 -20h-8q-35 0 -39 16l-42 164h-294l-74 -164q-7 -16 -41 -16h-5q-41 0 -41 16q0 5 5 15l305 657q7 16 41 16
h29zM334 610h-2q-12 -37 -21 -58l-137 -298h239l-73 298q-6 23 -6 58z" />
    <glyph glyph-name="Aacute" unicode="&#xc1;" horiz-adv-x="613" 
d="M438 909q47 0 47 -12q0 -9 -65 -76l-41 -41q-18 -18 -53 -18q-22 0 -22 9q0 12 69 112q18 26 65 26zM357 702q35 0 39 -16l168 -658q1 -4 1 -10q0 -20 -44 -20h-8q-35 0 -39 16l-42 164h-294l-74 -164q-7 -16 -41 -16h-5q-41 0 -41 16q0 5 5 15l305 657q7 16 41 16h29z
M334 610h-2q-12 -37 -21 -58l-137 -298h239l-73 298q-6 23 -6 58z" />
    <glyph glyph-name="Acircumflex" unicode="&#xc2;" horiz-adv-x="613" 
d="M367 895q32 0 44 -22l47 -88q5 -8 5 -17q-2 -15 -26 -15h-2q-19 0 -32 13l-55 74l-69 -74q-16 -13 -35 -13h-2q-21 0 -21 12q0 9 7 20l66 88q16 22 48 22h25zM357 702q35 0 39 -16l168 -658q1 -4 1 -10q0 -20 -44 -20h-8q-35 0 -39 16l-42 164h-294l-74 -164
q-7 -16 -41 -16h-5q-41 0 -41 16q0 5 5 15l305 657q7 16 41 16h29zM334 610h-2q-12 -37 -21 -58l-137 -298h239l-73 298q-6 23 -6 58z" />
    <glyph glyph-name="Atilde" unicode="&#xc3;" horiz-adv-x="613" 
d="M268 867q31 0 91.5 -21.5t82.5 -21.5q26 0 44 29q13 19 30 12l8 -3q16 -6 7 -26q-30 -68 -91 -68q-33 0 -94 21.5t-83 21.5q-23 0 -42 -30q-7 -11 -12.5 -13.5t-15.5 1.5l-10 4q-14 6 -7 25q30 69 92 69zM357 702q35 0 39 -16l168 -658q1 -4 1 -10q0 -20 -44 -20h-8
q-35 0 -39 16l-42 164h-294l-74 -164q-7 -16 -41 -16h-5q-41 0 -41 16q0 5 5 15l305 657q7 16 41 16h29zM334 610h-2q-12 -37 -21 -58l-137 -298h239l-73 298q-6 23 -6 58z" />
    <glyph glyph-name="Adieresis" unicode="&#xc4;" horiz-adv-x="613" 
d="M287 879q38 0 38 -22l-5 -51q-3 -22 -46 -22q-38 0 -38 22l5 51q3 22 46 22zM431 879q38 0 38 -22l-5 -51q-3 -22 -46 -22q-38 0 -38 22l5 51q2 22 46 22zM357 702q35 0 39 -16l168 -658q1 -4 1 -10q0 -20 -44 -20h-8q-35 0 -39 16l-42 164h-294l-74 -164q-7 -16 -41 -16
h-5q-41 0 -41 16q0 5 5 15l305 657q7 16 41 16h29zM334 610h-2q-12 -37 -21 -58l-137 -298h239l-73 298q-6 23 -6 58z" />
    <glyph glyph-name="Aring" unicode="&#xc5;" horiz-adv-x="613" 
d="M351 910q33 0 54.5 -22t21.5 -54q0 -38 -27.5 -65.5t-65.5 -27.5q-33 0 -54.5 21.5t-21.5 54.5q0 38 28 65.5t65 27.5zM348 875q-22 0 -38.5 -16t-16.5 -38q0 -20 12 -32.5t32 -12.5q23 0 39 16t16 39q0 19 -12.5 31.5t-31.5 12.5zM357 702q35 0 39 -16l168 -658
q1 -4 1 -10q0 -20 -44 -20h-8q-35 0 -39 16l-42 164h-294l-74 -164q-7 -16 -41 -16h-5q-41 0 -41 16q0 5 5 15l305 657q7 16 41 16h29zM334 610h-2q-12 -37 -21 -58l-137 -298h239l-73 298q-6 23 -6 58z" />
    <glyph glyph-name="AE" unicode="&#xc6;" horiz-adv-x="915" 
d="M842 700q17 0 17 -22q0 -54 -25 -54h-366l26 -228h285q17 0 17 -22q0 -54 -25 -54h-269l28 -244h248q17 0 17 -22q0 -54 -25 -54h-292q-30 0 -33 29l-16 149h-295l-97 -164q-10 -16 -41 -16h-5q-38 0 -38 15q0 7 6 18l388 642q16 27 45 27h450zM389 610h-2l-27 -58
l-180 -299h239l-30 299v58z" />
    <glyph glyph-name="Ccedilla" unicode="&#xc7;" horiz-adv-x="619" 
d="M407 706q70 0 126.5 -20t56.5 -41q0 -12 -15.5 -35.5t-24.5 -23.5q-2 0 -22 11t-57 22t-79 11q-93 0 -153.5 -46.5t-85.5 -121t-25 -176.5q0 -111 50.5 -163.5t155.5 -52.5q48 0 92 12t68 24t25 12q7 0 7 -11q0 -23 -7 -55q-6 -26 -64 -41.5t-125 -16.5l-18 -43h4
q15 0 30 -3t31.5 -18.5t16.5 -40.5q0 -99 -125 -99q-12 0 -26 1.5t-31 5.5t-28.5 12.5t-11.5 21.5q0 33 12 33l10 -6q10 -6 28.5 -12.5t39.5 -6.5q60 0 60 40q0 13 -9.5 20.5t-20.5 10t-20.5 8t-9.5 13.5q6 17 25 64q-126 9 -187.5 77.5t-61.5 201.5q0 90 18.5 164t59.5 136
t115 97t176 35z" />
    <glyph glyph-name="Egrave" unicode="&#xc8;" horiz-adv-x="546" 
d="M252 909q47 0 62 -26q58 -99 58 -112q0 -9 -23 -9q-36 0 -51 18q-88 100 -92 109q-2 4 -2 8q1 12 48 12zM498 700q17 0 17 -22q0 -54 -25 -54h-295l-24 -228h264q17 0 17 -22q0 -54 -25 -54h-264l-25 -244h296q17 0 17 -22q0 -54 -25 -54h-354q-27 0 -27 24q0 4 67 646
q3 30 33 30h353z" />
    <glyph glyph-name="Eacute" unicode="&#xc9;" horiz-adv-x="546" 
d="M419 909q47 0 47 -12q0 -9 -65 -76l-41 -41q-18 -18 -53 -18q-22 0 -22 9q0 12 69 112q18 26 65 26zM498 700q17 0 17 -22q0 -54 -25 -54h-295l-24 -228h264q17 0 17 -22q0 -54 -25 -54h-264l-25 -244h296q17 0 17 -22q0 -54 -25 -54h-354q-27 0 -27 24q0 4 67 646
q3 30 33 30h353z" />
    <glyph glyph-name="Ecircumflex" unicode="&#xca;" horiz-adv-x="546" 
d="M348 895q32 0 44 -22l47 -88q5 -8 5 -17q-2 -15 -26 -15h-2q-19 0 -32 13l-55 74l-69 -74q-16 -13 -35 -13h-2q-21 0 -21 12q0 9 7 20l66 88q16 22 48 22h25zM498 700q17 0 17 -22q0 -54 -25 -54h-295l-24 -228h264q17 0 17 -22q0 -54 -25 -54h-264l-25 -244h296
q17 0 17 -22q0 -54 -25 -54h-354q-27 0 -27 24q0 4 67 646q3 30 33 30h353z" />
    <glyph glyph-name="Edieresis" unicode="&#xcb;" horiz-adv-x="546" 
d="M268 879q38 0 38 -22l-5 -51q-3 -22 -46 -22q-38 0 -38 22l5 51q3 22 46 22zM412 879q38 0 38 -22l-5 -51q-3 -22 -46 -22q-38 0 -38 22l5 51q2 22 46 22zM498 700q17 0 17 -22q0 -54 -25 -54h-295l-24 -228h264q17 0 17 -22q0 -54 -25 -54h-264l-25 -244h296
q17 0 17 -22q0 -54 -25 -54h-354q-27 0 -27 24q0 4 67 646q3 30 33 30h353z" />
    <glyph glyph-name="Igrave" unicode="&#xcc;" horiz-adv-x="282" 
d="M109 909q47 0 62 -26q58 -99 58 -112q0 -9 -23 -9q-36 0 -51 18q-88 100 -92 109q-2 4 -2 8q1 12 48 12zM181 702q38 0 38 -22l-69 -660q-3 -22 -42 -22h-8q-38 0 -38 22l69 660q2 22 42 22h8z" />
    <glyph glyph-name="Iacute" unicode="&#xcd;" horiz-adv-x="282" 
d="M276 909q47 0 47 -12q0 -9 -65 -76l-41 -41q-18 -18 -53 -18q-22 0 -22 9q0 12 69 112q18 26 65 26zM181 702q38 0 38 -22l-69 -660q-3 -22 -42 -22h-8q-38 0 -38 22l69 660q2 22 42 22h8z" />
    <glyph glyph-name="Icircumflex" unicode="&#xce;" horiz-adv-x="282" 
d="M205 895q32 0 44 -22l47 -88q5 -8 5 -17q-2 -15 -26 -15h-2q-19 0 -32 13l-55 74l-69 -74q-16 -13 -35 -13h-2q-21 0 -21 12q0 9 7 20l66 88q16 22 48 22h25zM181 702q38 0 38 -22l-69 -660q-3 -22 -42 -22h-8q-38 0 -38 22l69 660q2 22 42 22h8z" />
    <glyph glyph-name="Idieresis" unicode="&#xcf;" horiz-adv-x="282" 
d="M125 879q38 0 38 -22l-5 -51q-3 -22 -46 -22q-38 0 -38 22l5 51q3 22 46 22zM269 879q38 0 38 -22l-5 -51q-3 -22 -46 -22q-38 0 -38 22l5 51q2 22 46 22zM181 702q38 0 38 -22l-69 -660q-3 -22 -42 -22h-8q-38 0 -38 22l69 660q2 22 42 22h8z" />
    <glyph glyph-name="Eth" unicode="&#xd0;" horiz-adv-x="696" 
d="M365 700q127 0 202.5 -68.5t75.5 -216.5q0 -112 -29 -195t-80 -129.5t-111 -68.5t-131 -22h-215q-27 0 -27 24q0 7 30 296h-64q-17 0 -17 22q0 54 25 54h64q7 59 17.5 161t11.5 113q3 30 33 30h215zM293 76q109 0 184 79.5t75 245.5q0 118 -54.5 170.5t-147.5 52.5h-150
l-24 -228h112q17 0 17 -22q0 -54 -25 -54h-112l-25 -244h150z" />
    <glyph glyph-name="Ntilde" unicode="&#xd1;" horiz-adv-x="719" 
d="M317 867q31 0 91.5 -21.5t82.5 -21.5q26 0 44 29q13 19 30 12l8 -3q16 -6 7 -26q-30 -68 -91 -68q-33 0 -94 21.5t-83 21.5q-23 0 -42 -30q-7 -11 -12.5 -13.5t-15.5 1.5l-10 4q-14 6 -7 25q30 69 92 69zM628 702q38 0 38 -22l-69 -660q-3 -22 -42 -22h-20q-26 0 -34 14
l-284 498l-21 51l-57 -541q-3 -22 -42 -22h-7q-38 0 -38 22l69 660q2 22 42 22h21q29 0 40 -19l275 -482l24 -56l56 535q2 22 42 22h7z" />
    <glyph glyph-name="Ograve" unicode="&#xd2;" horiz-adv-x="731" 
d="M331 909q47 0 62 -26q58 -99 58 -112q0 -9 -23 -9q-36 0 -51 18q-88 100 -92 109q-2 4 -2 8q1 12 48 12zM402 706q135 0 205.5 -72.5t70.5 -213.5q0 -205 -94 -315.5t-257 -110.5q-134 0 -204 73t-70 215q0 66 11 125t36.5 114.5t64.5 96t100 64.5t137 24zM394 630
q-116 0 -183 -87t-67 -252q0 -109 48.5 -165t142.5 -56q115 0 183 88.5t68 251.5q0 109 -49 164.5t-143 55.5z" />
    <glyph glyph-name="Oacute" unicode="&#xd3;" horiz-adv-x="731" 
d="M498 909q47 0 47 -12q0 -9 -65 -76l-41 -41q-18 -18 -53 -18q-22 0 -22 9q0 12 69 112q18 26 65 26zM402 706q135 0 205.5 -72.5t70.5 -213.5q0 -205 -94 -315.5t-257 -110.5q-134 0 -204 73t-70 215q0 66 11 125t36.5 114.5t64.5 96t100 64.5t137 24zM394 630
q-116 0 -183 -87t-67 -252q0 -109 48.5 -165t142.5 -56q115 0 183 88.5t68 251.5q0 109 -49 164.5t-143 55.5z" />
    <glyph glyph-name="Ocircumflex" unicode="&#xd4;" horiz-adv-x="731" 
d="M427 895q32 0 44 -22l47 -88q5 -8 5 -17q-2 -15 -26 -15h-2q-19 0 -32 13l-55 74l-69 -74q-16 -13 -35 -13h-2q-21 0 -21 12q0 9 7 20l66 88q16 22 48 22h25zM402 706q135 0 205.5 -72.5t70.5 -213.5q0 -205 -94 -315.5t-257 -110.5q-134 0 -204 73t-70 215q0 66 11 125
t36.5 114.5t64.5 96t100 64.5t137 24zM394 630q-116 0 -183 -87t-67 -252q0 -109 48.5 -165t142.5 -56q115 0 183 88.5t68 251.5q0 109 -49 164.5t-143 55.5z" />
    <glyph glyph-name="Otilde" unicode="&#xd5;" horiz-adv-x="731" 
d="M328 867q31 0 91.5 -21.5t82.5 -21.5q26 0 44 29q13 19 30 12l8 -3q16 -6 7 -26q-30 -68 -91 -68q-33 0 -94 21.5t-83 21.5q-23 0 -42 -30q-7 -11 -12.5 -13.5t-15.5 1.5l-10 4q-14 6 -7 25q30 69 92 69zM402 706q135 0 205.5 -72.5t70.5 -213.5q0 -205 -94 -315.5
t-257 -110.5q-134 0 -204 73t-70 215q0 66 11 125t36.5 114.5t64.5 96t100 64.5t137 24zM394 630q-116 0 -183 -87t-67 -252q0 -109 48.5 -165t142.5 -56q115 0 183 88.5t68 251.5q0 109 -49 164.5t-143 55.5z" />
    <glyph glyph-name="Odieresis" unicode="&#xd6;" horiz-adv-x="731" 
d="M347 879q38 0 38 -22l-5 -51q-3 -22 -46 -22q-38 0 -38 22l5 51q3 22 46 22zM491 879q38 0 38 -22l-5 -51q-3 -22 -46 -22q-38 0 -38 22l5 51q2 22 46 22zM402 706q135 0 205.5 -72.5t70.5 -213.5q0 -205 -94 -315.5t-257 -110.5q-134 0 -204 73t-70 215q0 66 11 125
t36.5 114.5t64.5 96t100 64.5t137 24zM394 630q-116 0 -183 -87t-67 -252q0 -109 48.5 -165t142.5 -56q115 0 183 88.5t68 251.5q0 109 -49 164.5t-143 55.5z" />
    <glyph glyph-name="multiply" unicode="&#xd7;" horiz-adv-x="560" 
d="M488 454q7 0 14 -7l17 -20q5 -6 5 -14q0 -6 -8 -14l-189 -171l153 -172q5 -6 5 -14q0 -6 -8 -14l-22 -20q-8 -8 -14 -8t-14 8l-152 173l-190 -173q-8 -8 -14 -8t-14 8l-16 20q-7 7 -7 14q0 6 10 14l189 172l-153 171q-7 7 -7 14q0 6 10 14l21 20q7 7 14 7t14 -7l153 -172
l189 172q7 7 14 7z" />
    <glyph glyph-name="Oslash" unicode="&#xd8;" horiz-adv-x="731" 
d="M402 706q136 0 205 -72l62 61q7 7 14 7t13 -6l2 -2q5 -5 5 -11q0 -7 -7 -14l-65 -65q47 -70 47 -184q0 -205 -94 -315.5t-257 -110.5q-150 0 -219 90l-75 -75q-8 -8 -14 -8t-12 6l-2 2q-6 6 -6 12t8 14l81 81q-35 67 -35 166q0 66 11 125t36.5 114.5t64.5 96t100 64.5
t137 24zM394 630q-116 0 -183 -87t-67 -252q0 -60 15 -104l383 381q-50 62 -148 62zM562 536l-387 -386q47 -80 160 -80q115 0 183 88.5t68 251.5q0 76 -24 126z" />
    <glyph glyph-name="Ugrave" unicode="&#xd9;" horiz-adv-x="712" 
d="M315 909q47 0 62 -26q58 -99 58 -112q0 -9 -23 -9q-36 0 -51 18q-88 100 -92 109q-2 4 -2 8q1 12 48 12zM623 702q37 0 37 -22l-48 -456q-11 -109 -88.5 -169.5t-208.5 -60.5q-122 0 -186.5 52t-64.5 147q0 10 50 487q2 22 43 22h8q37 0 37 -22q-49 -464 -49 -474
q0 -62 44 -99t126 -37q80 0 137 42.5t64 108.5l48 459q2 22 43 22h8z" />
    <glyph glyph-name="Uacute" unicode="&#xda;" horiz-adv-x="712" 
d="M482 909q47 0 47 -12q0 -9 -65 -76l-41 -41q-18 -18 -53 -18q-22 0 -22 9q0 12 69 112q18 26 65 26zM623 702q37 0 37 -22l-48 -456q-11 -109 -88.5 -169.5t-208.5 -60.5q-122 0 -186.5 52t-64.5 147q0 10 50 487q2 22 43 22h8q37 0 37 -22q-49 -464 -49 -474
q0 -62 44 -99t126 -37q80 0 137 42.5t64 108.5l48 459q2 22 43 22h8z" />
    <glyph glyph-name="Ucircumflex" unicode="&#xdb;" horiz-adv-x="712" 
d="M411 895q32 0 44 -22l47 -88q5 -8 5 -17q-2 -15 -26 -15h-2q-19 0 -32 13l-55 74l-69 -74q-16 -13 -35 -13h-2q-21 0 -21 12q0 9 7 20l66 88q16 22 48 22h25zM623 702q37 0 37 -22l-48 -456q-11 -109 -88.5 -169.5t-208.5 -60.5q-122 0 -186.5 52t-64.5 147q0 10 50 487
q2 22 43 22h8q37 0 37 -22q-49 -464 -49 -474q0 -62 44 -99t126 -37q80 0 137 42.5t64 108.5l48 459q2 22 43 22h8z" />
    <glyph glyph-name="Udieresis" unicode="&#xdc;" horiz-adv-x="712" 
d="M331 879q38 0 38 -22l-5 -51q-3 -22 -46 -22q-38 0 -38 22l5 51q3 22 46 22zM475 879q38 0 38 -22l-5 -51q-3 -22 -46 -22q-38 0 -38 22l5 51q2 22 46 22zM623 702q37 0 37 -22l-48 -456q-11 -109 -88.5 -169.5t-208.5 -60.5q-122 0 -186.5 52t-64.5 147q0 10 50 487
q2 22 43 22h8q37 0 37 -22q-49 -464 -49 -474q0 -62 44 -99t126 -37q80 0 137 42.5t64 108.5l48 459q2 22 43 22h8z" />
    <glyph glyph-name="Yacute" unicode="&#xdd;" horiz-adv-x="559" 
d="M416 909q47 0 47 -12q0 -9 -65 -76l-41 -41q-18 -18 -53 -18q-22 0 -22 9q0 12 69 112q18 26 65 26zM531 702h9q36 -1 36 -16q0 -5 -10 -19l-243 -311l-35 -336q-3 -22 -42 -22h-8q-38 0 -38 22l35 339l-176 308q-6 9 -6 16q0 19 47 19h11q33 0 42 -15l138 -246l194 247
q10 14 46 14z" />
    <glyph glyph-name="Thorn" unicode="&#xde;" horiz-adv-x="567" 
d="M169 702q38 0 38 -22l-11 -102h145q35 0 67 -6.5t65 -23t53 -51.5t20 -86q0 -60 -18.5 -105t-45 -69t-61.5 -38.5t-61 -18.5t-51 -4h-155l-16 -156q-3 -22 -42 -22h-8q-38 0 -38 22l69 660q3 22 42 22h8zM330 502h-142l-26 -250h156q18 0 38.5 6t44 20.5t38.5 46t15 74.5
q0 57 -36.5 80t-87.5 23z" />
    <glyph glyph-name="germandbls" unicode="&#xdf;" horiz-adv-x="554" 
d="M324 706q181 0 181 -145q0 -52 -32 -102t-87 -72v-3q55 -13 84 -54.5t29 -99.5q0 -107 -69.5 -168.5t-168.5 -61.5h-34q-17 0 -17 27q0 45 25 45h35q58 0 99.5 41.5t41.5 111.5q0 53 -32 84t-81 31h-35q-17 0 -17 27q0 45 25 45h12q52 0 92 39.5t40 93.5q0 89 -101 89
q-51 0 -84.5 -30.5t-38.5 -82.5l-53 -501q-3 -22 -42 -22h-4q-38 0 -38 22l53 501q8 82 68 133.5t149 51.5z" />
    <glyph glyph-name="agrave" unicode="&#xe0;" horiz-adv-x="545" 
d="M309 585q-36 0 -51 18q-88 100 -92 109q-2 4 -2 8q1 12 48 12t62 -26q58 -99 58 -112q0 -9 -23 -9zM511 71q6 0 6 -7q0 -15 -4 -37q-3 -17 -22.5 -25t-37.5 -8q-90 0 -90 98v10q-57 -108 -156 -108q-27 0 -54 10t-53.5 32.5t-43 67t-16.5 106.5q0 141 67 230t178 89
q70 0 127 -54q6 19 10 27t13 15.5t22 7.5h6q25 0 25 -21q-40 -370 -40 -397q0 -15 3 -24t9.5 -12t11 -4t12.5 -1q7 0 16 2.5t11 2.5zM389 367q2 18 8 50q-49 39 -104 39q-166 0 -166 -240q0 -149 99 -149q40 0 81 39.5t69 129.5z" />
    <glyph glyph-name="aacute" unicode="&#xe1;" horiz-adv-x="545" 
d="M267 585q-22 0 -22 9q0 12 69 112q18 26 65 26t47 -12q0 -9 -65 -76l-41 -41q-18 -18 -53 -18zM511 71q6 0 6 -7q0 -15 -4 -37q-3 -17 -22.5 -25t-37.5 -8q-90 0 -90 98v10q-57 -108 -156 -108q-27 0 -54 10t-53.5 32.5t-43 67t-16.5 106.5q0 141 67 230t178 89
q70 0 127 -54q6 19 10 27t13 15.5t22 7.5h6q25 0 25 -21q-40 -370 -40 -397q0 -15 3 -24t9.5 -12t11 -4t12.5 -1q7 0 16 2.5t11 2.5zM389 367q2 18 8 50q-49 39 -104 39q-166 0 -166 -240q0 -149 99 -149q40 0 81 39.5t69 129.5z" />
    <glyph glyph-name="acircumflex" unicode="&#xe2;" horiz-adv-x="545" 
d="M183 576q-21 0 -21 12q0 9 7 20l66 88q16 22 48 22h25q32 0 44 -22l47 -88q5 -8 5 -17q-2 -15 -26 -15h-2q-19 0 -32 13l-55 74l-69 -74q-16 -13 -35 -13h-2zM511 71q6 0 6 -7q0 -15 -4 -37q-3 -17 -22.5 -25t-37.5 -8q-90 0 -90 98v10q-57 -108 -156 -108q-27 0 -54 10
t-53.5 32.5t-43 67t-16.5 106.5q0 141 67 230t178 89q70 0 127 -54q6 19 10 27t13 15.5t22 7.5h6q25 0 25 -21q-40 -370 -40 -397q0 -15 3 -24t9.5 -12t11 -4t12.5 -1q7 0 16 2.5t11 2.5zM389 367q2 18 8 50q-49 39 -104 39q-166 0 -166 -240q0 -149 99 -149q40 0 81 39.5
t69 129.5z" />
    <glyph glyph-name="atilde" unicode="&#xe3;" horiz-adv-x="545" 
d="M124 596q-14 6 -7 25q30 69 92 69q31 0 91.5 -21.5t82.5 -21.5q26 0 44 29q13 19 30 12l8 -3q16 -6 7 -26q-30 -68 -91 -68q-33 0 -94 21.5t-83 21.5q-23 0 -42 -30q-7 -11 -12.5 -13.5t-15.5 1.5zM511 71q6 0 6 -7q0 -15 -4 -37q-3 -17 -22.5 -25t-37.5 -8q-90 0 -90 98
v10q-57 -108 -156 -108q-27 0 -54 10t-53.5 32.5t-43 67t-16.5 106.5q0 141 67 230t178 89q70 0 127 -54q6 19 10 27t13 15.5t22 7.5h6q25 0 25 -21q-40 -370 -40 -397q0 -15 3 -24t9.5 -12t11 -4t12.5 -1q7 0 16 2.5t11 2.5zM389 367q2 18 8 50q-49 39 -104 39
q-166 0 -166 -240q0 -149 99 -149q40 0 81 39.5t69 129.5z" />
    <glyph glyph-name="adieresis" unicode="&#xe4;" horiz-adv-x="545" 
d="M215 607q-38 0 -38 22l5 51q3 22 46 22q38 0 38 -22l-5 -51q-3 -22 -46 -22zM359 607q-38 0 -38 22l5 51q2 22 46 22q38 0 38 -22l-5 -51q-3 -22 -46 -22zM511 71q6 0 6 -7q0 -15 -4 -37q-3 -17 -22.5 -25t-37.5 -8q-90 0 -90 98v10q-57 -108 -156 -108q-27 0 -54 10
t-53.5 32.5t-43 67t-16.5 106.5q0 141 67 230t178 89q70 0 127 -54q6 19 10 27t13 15.5t22 7.5h6q25 0 25 -21q-40 -370 -40 -397q0 -15 3 -24t9.5 -12t11 -4t12.5 -1q7 0 16 2.5t11 2.5zM389 367q2 18 8 50q-49 39 -104 39q-166 0 -166 -240q0 -149 99 -149q40 0 81 39.5
t69 129.5z" />
    <glyph glyph-name="aring" unicode="&#xe5;" horiz-adv-x="545" 
d="M275 564q-33 0 -54.5 21.5t-21.5 54.5q0 38 28 65.5t65 27.5q33 0 54.5 -22t21.5 -54q0 -38 -27.5 -65.5t-65.5 -27.5zM289 698q-22 0 -38.5 -16t-16.5 -38q0 -20 12 -32.5t32 -12.5q23 0 39 16t16 39q0 19 -12.5 31.5t-31.5 12.5zM511 71q6 0 6 -7q0 -15 -4 -37
q-3 -17 -22.5 -25t-37.5 -8q-90 0 -90 98v10q-57 -108 -156 -108q-27 0 -54 10t-53.5 32.5t-43 67t-16.5 106.5q0 141 67 230t178 89q70 0 127 -54q6 19 10 27t13 15.5t22 7.5h6q25 0 25 -21q-40 -370 -40 -397q0 -15 3 -24t9.5 -12t11 -4t12.5 -1q7 0 16 2.5t11 2.5z
M389 367q2 18 8 50q-49 39 -104 39q-166 0 -166 -240q0 -149 99 -149q40 0 81 39.5t69 129.5z" />
    <glyph glyph-name="ae" unicode="&#xe6;" horiz-adv-x="829" 
d="M504 226h-86v-16q0 -79 37.5 -111.5t108.5 -32.5q40 0 75 12t55.5 24.5t24.5 12.5q7 0 7 -12q0 -19 -5 -45q-6 -31 -62 -47.5t-102 -16.5q-126 0 -182 64q-35 -28 -87.5 -46t-102.5 -18q-71 0 -113.5 32.5t-42.5 96.5q0 53 26.5 88.5t75.5 52.5t96 23.5t112 8.5
q12 66 44 118q-21 43 -98 43q-40 0 -77.5 -10.5t-59 -21t-23.5 -10.5q-10 0 -20 19t-10 30q0 21 61.5 43t133.5 22q104 0 150 -51q67 51 166 51q86 0 127 -41.5t41 -91.5q0 -47 -22.5 -81.5t-62 -53t-85.5 -27t-100 -8.5zM597 457q-143 0 -172 -159h69q20 0 44 2.5t62 10
t62.5 27.5t24.5 50q0 32 -24 50.5t-66 18.5zM197 67q73 0 146 50q-12 36 -12 84v25q-211 0 -211 -94q0 -65 77 -65z" />
    <glyph glyph-name="ccedilla" unicode="&#xe7;" horiz-adv-x="485" 
d="M311 529q63 0 101.5 -17t38.5 -35q0 -11 -13.5 -30.5t-25.5 -19.5q-1 0 -22 12q-36 18 -89 18q-76 0 -121.5 -59.5t-45.5 -187.5q0 -75 32.5 -109.5t103.5 -34.5q56 0 110 22q22 9 24 9q6 0 6 -12q0 -20 -5 -45q-8 -40 -122 -45l-18 -44h4q15 0 30 -3t31.5 -18.5
t16.5 -40.5q0 -99 -125 -99q-12 0 -26 1.5t-31 5.5t-28.5 12.5t-11.5 21.5q0 33 12 33l10 -6q10 -6 28.5 -12.5t39.5 -6.5q60 0 60 40q0 13 -9.5 20.5t-20.5 10t-20.5 8t-9.5 13.5q6 17 25 64q-96 5 -144.5 55t-48.5 154q0 91 25 161.5t86 117t153 46.5z" />
    <glyph glyph-name="egrave" unicode="&#xe8;" horiz-adv-x="539" 
d="M336 585q-36 0 -51 18q-88 100 -92 109q-2 4 -2 8q1 12 48 12t62 -26q58 -99 58 -112q0 -9 -23 -9zM219 213q-49 0 -86 7v-10q0 -79 37.5 -111.5t108.5 -32.5q40 0 75 12t55.5 24.5t24.5 12.5q7 0 7 -12q0 -19 -5 -45q-6 -31 -62 -47.5t-102 -16.5q-226 0 -226 207
q0 145 68 236.5t207 91.5q85 0 126.5 -42.5t41.5 -90.5q0 -50 -22.5 -87t-62 -57t-85.5 -29.5t-100 -9.5zM312 457q-150 0 -174 -172h71q17 0 32 0.5t47.5 6t55 15.5t40.5 31t18 50t-24.5 49t-65.5 20z" />
    <glyph glyph-name="eacute" unicode="&#xe9;" horiz-adv-x="539" 
d="M294 585q-22 0 -22 9q0 12 69 112q18 26 65 26t47 -12q0 -9 -65 -76l-41 -41q-18 -18 -53 -18zM219 213q-49 0 -86 7v-10q0 -79 37.5 -111.5t108.5 -32.5q40 0 75 12t55.5 24.5t24.5 12.5q7 0 7 -12q0 -19 -5 -45q-6 -31 -62 -47.5t-102 -16.5q-226 0 -226 207
q0 145 68 236.5t207 91.5q85 0 126.5 -42.5t41.5 -90.5q0 -50 -22.5 -87t-62 -57t-85.5 -29.5t-100 -9.5zM312 457q-150 0 -174 -172h71q17 0 32 0.5t47.5 6t55 15.5t40.5 31t18 50t-24.5 49t-65.5 20z" />
    <glyph glyph-name="ecircumflex" unicode="&#xea;" horiz-adv-x="539" 
d="M210 576q-21 0 -21 12q0 9 7 20l66 88q16 22 48 22h25q32 0 44 -22l47 -88q5 -8 5 -17q-2 -15 -26 -15h-2q-19 0 -32 13l-55 74l-69 -74q-16 -13 -35 -13h-2zM219 213q-49 0 -86 7v-10q0 -79 37.5 -111.5t108.5 -32.5q40 0 75 12t55.5 24.5t24.5 12.5q7 0 7 -12
q0 -19 -5 -45q-6 -31 -62 -47.5t-102 -16.5q-226 0 -226 207q0 145 68 236.5t207 91.5q85 0 126.5 -42.5t41.5 -90.5q0 -50 -22.5 -87t-62 -57t-85.5 -29.5t-100 -9.5zM312 457q-150 0 -174 -172h71q17 0 32 0.5t47.5 6t55 15.5t40.5 31t18 50t-24.5 49t-65.5 20z" />
    <glyph glyph-name="edieresis" unicode="&#xeb;" horiz-adv-x="539" 
d="M242 607q-38 0 -38 22l5 51q3 22 46 22q38 0 38 -22l-5 -51q-3 -22 -46 -22zM386 607q-38 0 -38 22l5 51q2 22 46 22q38 0 38 -22l-5 -51q-3 -22 -46 -22zM219 213q-49 0 -86 7v-10q0 -79 37.5 -111.5t108.5 -32.5q40 0 75 12t55.5 24.5t24.5 12.5q7 0 7 -12
q0 -19 -5 -45q-6 -31 -62 -47.5t-102 -16.5q-226 0 -226 207q0 145 68 236.5t207 91.5q85 0 126.5 -42.5t41.5 -90.5q0 -50 -22.5 -87t-62 -57t-85.5 -29.5t-100 -9.5zM312 457q-150 0 -174 -172h71q17 0 32 0.5t47.5 6t55 15.5t40.5 31t18 50t-24.5 49t-65.5 20z" />
    <glyph glyph-name="igrave" unicode="&#xec;" horiz-adv-x="265" 
d="M75 732q47 0 62 -26q58 -99 58 -112q0 -9 -23 -9q-36 0 -51 18q-88 100 -92 109q-2 4 -2 8q1 12 48 12zM150 525q38 0 38 -22q-40 -366 -40 -396q0 -19 6 -28.5t12 -11t17 -1.5q7 0 16 2.5t11 2.5q6 0 6 -7q0 -15 -4 -37q-3 -17 -22.5 -25t-37.5 -8q-89 0 -89 95
q0 19 10 122t20 197.5t11 94.5q3 22 42 22h4z" />
    <glyph glyph-name="iacute" unicode="&#xed;" horiz-adv-x="265" 
d="M242 732q47 0 47 -12q0 -9 -65 -76l-41 -41q-18 -18 -53 -18q-22 0 -22 9q0 12 69 112q18 26 65 26zM150 525q38 0 38 -22q-40 -366 -40 -396q0 -19 6 -28.5t12 -11t17 -1.5q7 0 16 2.5t11 2.5q6 0 6 -7q0 -15 -4 -37q-3 -17 -22.5 -25t-37.5 -8q-89 0 -89 95
q0 19 10 122t20 197.5t11 94.5q3 22 42 22h4z" />
    <glyph glyph-name="icircumflex" unicode="&#xee;" horiz-adv-x="265" 
d="M171 718q32 0 44 -22l47 -88q5 -8 5 -17q-2 -15 -26 -15h-2q-19 0 -32 13l-55 74l-69 -74q-16 -13 -35 -13h-2q-21 0 -21 12q0 9 7 20l66 88q16 22 48 22h25zM150 525q38 0 38 -22q-40 -366 -40 -396q0 -19 6 -28.5t12 -11t17 -1.5q7 0 16 2.5t11 2.5q6 0 6 -7
q0 -15 -4 -37q-3 -17 -22.5 -25t-37.5 -8q-89 0 -89 95q0 19 10 122t20 197.5t11 94.5q3 22 42 22h4z" />
    <glyph glyph-name="idieresis" unicode="&#xef;" horiz-adv-x="265" 
d="M91 702q38 0 38 -22l-5 -51q-3 -22 -46 -22q-38 0 -38 22l5 51q3 22 46 22zM235 702q38 0 38 -22l-5 -51q-3 -22 -46 -22q-38 0 -38 22l5 51q2 22 46 22zM150 525q38 0 38 -22q-40 -366 -40 -396q0 -19 6 -28.5t12 -11t17 -1.5q7 0 16 2.5t11 2.5q6 0 6 -7q0 -15 -4 -37
q-3 -17 -22.5 -25t-37.5 -8q-89 0 -89 95q0 19 10 122t20 197.5t11 94.5q3 22 42 22h4z" />
    <glyph glyph-name="eth" unicode="&#xf0;" horiz-adv-x="569" 
d="M349 713q17 0 29 -15l26 -38l79 11q11 0 16 -10.5t5 -19.5q0 -14 -16 -15l-61 -8q80 -150 80 -303q0 -155 -68 -238t-190 -83q-101 0 -154 54.5t-53 158.5q0 152 71 237t192 85q43 0 79 -12q-17 46 -37 90q-58 -8 -83 -11l-4 -1q-9 0 -16 9.5t-7 20.5q0 12 17 15l73 10
q-10 18 -23 39q-4 5 -4 10q0 9 12 10q24 4 37 4zM294 457q-80 0 -123 -61.5t-43 -184.5q0 -74 30.5 -109.5t94.5 -35.5q167 0 167 244q0 147 -126 147z" />
    <glyph glyph-name="ntilde" unicode="&#xf1;" 
d="M130 596q-14 6 -7 25q30 69 92 69q31 0 91.5 -21.5t82.5 -21.5q26 0 44 29q13 19 30 12l8 -3q16 -6 7 -26q-30 -68 -91 -68q-33 0 -94 21.5t-83 21.5q-23 0 -42 -30q-7 -11 -12.5 -13.5t-15.5 1.5zM505 71q6 0 6 -7q0 -15 -4 -37q-3 -17 -22.5 -25t-37.5 -8q-90 0 -90 98
q0 18 14 148.5t14 138.5q0 77 -76 77q-41 0 -85.5 -37t-73.5 -124l-29 -275q-3 -22 -42 -22h-4q-38 0 -38 21q44 391 44 438q0 14 -0.5 23.5t-0.5 10.5q0 23 56 23q26 0 26 -67v-19q74 101 177 101q132 0 132 -130q0 -8 -14.5 -144.5t-14.5 -147.5q0 -15 3 -24t9.5 -12
t11 -4t12.5 -1q7 0 16 2.5t11 2.5z" />
    <glyph glyph-name="ograve" unicode="&#xf2;" horiz-adv-x="569" 
d="M234 732q47 0 62 -26q58 -99 58 -112q0 -9 -23 -9q-36 0 -51 18q-88 100 -92 109q-2 4 -2 8q1 12 48 12zM309 529q98 0 149.5 -55.5t51.5 -161.5q0 -153 -68.5 -235.5t-189.5 -82.5q-102 0 -154.5 55t-52.5 160q0 64 15 120t46 101.5t83 72t120 26.5zM298 457
q-81 0 -124 -65t-43 -180q0 -146 126 -146q80 0 123 62.5t43 181.5q0 75 -30.5 111t-94.5 36z" />
    <glyph glyph-name="oacute" unicode="&#xf3;" horiz-adv-x="569" 
d="M401 732q47 0 47 -12q0 -9 -65 -76l-41 -41q-18 -18 -53 -18q-22 0 -22 9q0 12 69 112q18 26 65 26zM309 529q98 0 149.5 -55.5t51.5 -161.5q0 -153 -68.5 -235.5t-189.5 -82.5q-102 0 -154.5 55t-52.5 160q0 64 15 120t46 101.5t83 72t120 26.5zM298 457q-81 0 -124 -65
t-43 -180q0 -146 126 -146q80 0 123 62.5t43 181.5q0 75 -30.5 111t-94.5 36z" />
    <glyph glyph-name="ocircumflex" unicode="&#xf4;" horiz-adv-x="569" 
d="M330 718q32 0 44 -22l47 -88q5 -8 5 -17q-2 -15 -26 -15h-2q-19 0 -32 13l-55 74l-69 -74q-16 -13 -35 -13h-2q-21 0 -21 12q0 9 7 20l66 88q16 22 48 22h25zM309 529q98 0 149.5 -55.5t51.5 -161.5q0 -153 -68.5 -235.5t-189.5 -82.5q-102 0 -154.5 55t-52.5 160
q0 64 15 120t46 101.5t83 72t120 26.5zM298 457q-81 0 -124 -65t-43 -180q0 -146 126 -146q80 0 123 62.5t43 181.5q0 75 -30.5 111t-94.5 36z" />
    <glyph glyph-name="otilde" unicode="&#xf5;" horiz-adv-x="569" 
d="M231 690q31 0 91.5 -21.5t82.5 -21.5q26 0 44 29q13 19 30 12l8 -3q16 -6 7 -26q-30 -68 -91 -68q-33 0 -94 21.5t-83 21.5q-23 0 -42 -30q-7 -11 -12.5 -13.5t-15.5 1.5l-10 4q-14 6 -7 25q30 69 92 69zM309 529q98 0 149.5 -55.5t51.5 -161.5q0 -153 -68.5 -235.5
t-189.5 -82.5q-102 0 -154.5 55t-52.5 160q0 64 15 120t46 101.5t83 72t120 26.5zM298 457q-81 0 -124 -65t-43 -180q0 -146 126 -146q80 0 123 62.5t43 181.5q0 75 -30.5 111t-94.5 36z" />
    <glyph glyph-name="odieresis" unicode="&#xf6;" horiz-adv-x="569" 
d="M250 702q38 0 38 -22l-5 -51q-3 -22 -46 -22q-38 0 -38 22l5 51q3 22 46 22zM394 702q38 0 38 -22l-5 -51q-3 -22 -46 -22q-38 0 -38 22l5 51q2 22 46 22zM309 529q98 0 149.5 -55.5t51.5 -161.5q0 -153 -68.5 -235.5t-189.5 -82.5q-102 0 -154.5 55t-52.5 160
q0 64 15 120t46 101.5t83 72t120 26.5zM298 457q-81 0 -124 -65t-43 -180q0 -146 126 -146q80 0 123 62.5t43 181.5q0 75 -30.5 111t-94.5 36z" />
    <glyph glyph-name="divide" unicode="&#xf7;" horiz-adv-x="560" 
d="M306 463q38 0 38 -22l-6 -51q-3 -22 -42 -22h-4q-38 0 -38 22l6 51q2 22 42 22h4zM485 264q27 0 27 -30q0 -37 -34 -37h-404q-27 0 -27 30q0 37 34 37h404zM267 93q38 0 38 -22l-6 -51q-3 -22 -42 -22h-4q-38 0 -38 22l6 51q2 22 42 22h4z" />
    <glyph glyph-name="oslash" unicode="&#xf8;" horiz-adv-x="569" 
d="M542 501q0 -4 -5 -11l-49 -50q28 -50 28 -128q0 -153 -68.5 -235.5t-189.5 -82.5q-99 0 -151 51l-38 -39q-6 -6 -10 -6q-5 0 -11 6l-5 5q-6 6 -6 11q0 6 5 11l41 42q-32 49 -32 134q0 64 15 120t46 101.5t83 72t120 26.5q99 0 151 -57l44 45q4 6 10 6q5 0 11 -6l5 -5
q6 -6 6 -11zM304 457q-81 0 -124 -65t-43 -180q0 -42 9 -71l260 269q-30 47 -102 47zM263 66q80 0 123 62.5t43 181.5q0 37 -7 61l-257 -266q32 -39 98 -39z" />
    <glyph glyph-name="ugrave" unicode="&#xf9;" 
d="M325 585q-36 0 -51 18q-88 100 -92 109q-2 4 -2 8q1 12 48 12t62 -26q58 -99 58 -112q0 -9 -23 -9zM515 71q6 0 6 -7q0 -15 -4 -37q-3 -17 -22.5 -25t-37.5 -8q-90 0 -90 98v10q-72 -108 -178 -108q-132 0 -132 130l38 379q3 22 42 22h4q38 0 38 -22q-36 -345 -36 -359
q0 -77 76 -77q42 0 86.5 39t73.5 131l28 266q3 22 42 22h4q38 0 38 -22q-39 -366 -39 -396q0 -15 3 -24t9.5 -12t11 -4t12.5 -1q7 0 16 2.5t11 2.5z" />
    <glyph glyph-name="uacute" unicode="&#xfa;" 
d="M283 585q-22 0 -22 9q0 12 69 112q18 26 65 26t47 -12q0 -9 -65 -76l-41 -41q-18 -18 -53 -18zM515 71q6 0 6 -7q0 -15 -4 -37q-3 -17 -22.5 -25t-37.5 -8q-90 0 -90 98v10q-72 -108 -178 -108q-132 0 -132 130l38 379q3 22 42 22h4q38 0 38 -22q-36 -345 -36 -359
q0 -77 76 -77q42 0 86.5 39t73.5 131l28 266q3 22 42 22h4q38 0 38 -22q-39 -366 -39 -396q0 -15 3 -24t9.5 -12t11 -4t12.5 -1q7 0 16 2.5t11 2.5z" />
    <glyph glyph-name="ucircumflex" unicode="&#xfb;" 
d="M199 576q-21 0 -21 12q0 9 7 20l66 88q16 22 48 22h25q32 0 44 -22l47 -88q5 -8 5 -17q-2 -15 -26 -15h-2q-19 0 -32 13l-55 74l-69 -74q-16 -13 -35 -13h-2zM515 71q6 0 6 -7q0 -15 -4 -37q-3 -17 -22.5 -25t-37.5 -8q-90 0 -90 98v10q-72 -108 -178 -108
q-132 0 -132 130l38 379q3 22 42 22h4q38 0 38 -22q-36 -345 -36 -359q0 -77 76 -77q42 0 86.5 39t73.5 131l28 266q3 22 42 22h4q38 0 38 -22q-39 -366 -39 -396q0 -15 3 -24t9.5 -12t11 -4t12.5 -1q7 0 16 2.5t11 2.5z" />
    <glyph glyph-name="udieresis" unicode="&#xfc;" 
d="M231 607q-38 0 -38 22l5 51q3 22 46 22q38 0 38 -22l-5 -51q-3 -22 -46 -22zM375 607q-38 0 -38 22l5 51q2 22 46 22q38 0 38 -22l-5 -51q-3 -22 -46 -22zM515 71q6 0 6 -7q0 -15 -4 -37q-3 -17 -22.5 -25t-37.5 -8q-90 0 -90 98v10q-72 -108 -178 -108q-132 0 -132 130
l38 379q3 22 42 22h4q38 0 38 -22q-36 -345 -36 -359q0 -77 76 -77q42 0 86.5 39t73.5 131l28 266q3 22 42 22h4q38 0 38 -22q-39 -366 -39 -396q0 -15 3 -24t9.5 -12t11 -4t12.5 -1q7 0 16 2.5t11 2.5z" />
    <glyph glyph-name="yacute" unicode="&#xfd;" horiz-adv-x="481" 
d="M367 732q47 0 47 -12q0 -9 -65 -76l-41 -41q-18 -18 -53 -18q-22 0 -22 9q0 12 69 112q18 26 65 26zM447 525q38 0 38 -16q0 -6 -4 -15l-329 -681q-10 -21 -49 -21h-15q-31 0 -31 15q0 5 7 18l105 203q-128 474 -128 480q0 17 45 17h8q34 0 38 -16l77 -282l21 -79h2
q15 37 35 79l134 282q8 16 43 16h3z" />
    <glyph glyph-name="thorn" unicode="&#xfe;" horiz-adv-x="570" 
d="M179 752q38 0 38 -21l-31 -295q58 93 155 93q28 0 55.5 -10t55 -32.5t44.5 -67t17 -106.5q0 -141 -64.5 -230t-171.5 -89q-74 0 -133 51l-24 -231q-3 -22 -42 -22h-4q-38 0 -38 21l97 917q2 22 42 22h4zM322 456q-39 0 -80 -35t-70 -116l-21 -195q50 -44 114 -44
q161 0 161 241q0 149 -104 149z" />
    <glyph glyph-name="ydieresis" unicode="&#xff;" horiz-adv-x="481" 
d="M216 702q38 0 38 -22l-5 -51q-3 -22 -46 -22q-38 0 -38 22l5 51q3 22 46 22zM360 702q38 0 38 -22l-5 -51q-3 -22 -46 -22q-38 0 -38 22l5 51q2 22 46 22zM447 525q38 0 38 -16q0 -6 -4 -15l-329 -681q-10 -21 -49 -21h-15q-31 0 -31 15q0 5 7 18l105 203
q-128 474 -128 480q0 17 45 17h8q34 0 38 -16l77 -282l21 -79h2q15 37 35 79l134 282q8 16 43 16h3z" />
    <glyph glyph-name="Amacron" unicode="&#x100;" horiz-adv-x="613" 
d="M459 860q17 0 17 -26q0 -45 -25 -45h-226q-17 0 -17 27q0 44 25 44h226zM357 702q35 0 39 -16l168 -658q1 -4 1 -10q0 -20 -44 -20h-8q-35 0 -39 16l-42 164h-294l-74 -164q-7 -16 -41 -16h-5q-41 0 -41 16q0 5 5 15l305 657q7 16 41 16h29zM334 610h-2q-12 -37 -21 -58
l-137 -298h239l-73 298q-6 23 -6 58z" />
    <glyph glyph-name="amacron" unicode="&#x101;" horiz-adv-x="545" 
d="M166 612q-17 0 -17 27q0 44 25 44h226q17 0 17 -26q0 -45 -25 -45h-226zM511 71q6 0 6 -7q0 -15 -4 -37q-3 -17 -22.5 -25t-37.5 -8q-90 0 -90 98v10q-57 -108 -156 -108q-27 0 -54 10t-53.5 32.5t-43 67t-16.5 106.5q0 141 67 230t178 89q70 0 127 -54q6 19 10 27
t13 15.5t22 7.5h6q25 0 25 -21q-40 -370 -40 -397q0 -15 3 -24t9.5 -12t11 -4t12.5 -1q7 0 16 2.5t11 2.5zM389 367q2 18 8 50q-49 39 -104 39q-166 0 -166 -240q0 -149 99 -149q40 0 81 39.5t69 129.5z" />
    <glyph glyph-name="Abreve" unicode="&#x102;" horiz-adv-x="613" 
d="M489 892q14 0 14 -12q0 -55 -49.5 -86.5t-106.5 -31.5q-55 0 -94.5 27t-39.5 76q0 27 17 27q6 0 9.5 -2t4.5 -4.5t2.5 -8.5t3.5 -10q17 -39 104 -39q86 0 111 39q3 5 6 13t6.5 10t11.5 2zM357 702q35 0 39 -16l168 -658q1 -4 1 -10q0 -20 -44 -20h-8q-35 0 -39 16
l-42 164h-294l-74 -164q-7 -16 -41 -16h-5q-41 0 -41 16q0 5 5 15l305 657q7 16 41 16h29zM334 610h-2q-12 -37 -21 -58l-137 -298h239l-73 298q-6 23 -6 58z" />
    <glyph glyph-name="abreve" unicode="&#x103;" horiz-adv-x="545" 
d="M288 585q-55 0 -94.5 27t-39.5 76q0 27 17 27q6 0 9.5 -2t4.5 -4.5t2.5 -8.5t3.5 -10q17 -39 104 -39q86 0 111 39q3 5 6 13t6.5 10t11.5 2q14 0 14 -12q0 -55 -49.5 -86.5t-106.5 -31.5zM511 71q6 0 6 -7q0 -15 -4 -37q-3 -17 -22.5 -25t-37.5 -8q-90 0 -90 98v10
q-57 -108 -156 -108q-27 0 -54 10t-53.5 32.5t-43 67t-16.5 106.5q0 141 67 230t178 89q70 0 127 -54q6 19 10 27t13 15.5t22 7.5h6q25 0 25 -21q-40 -370 -40 -397q0 -15 3 -24t9.5 -12t11 -4t12.5 -1q7 0 16 2.5t11 2.5zM389 367q2 18 8 50q-49 39 -104 39
q-166 0 -166 -240q0 -149 99 -149q40 0 81 39.5t69 129.5z" />
    <glyph glyph-name="Aogonek" unicode="&#x104;" horiz-adv-x="613" 
d="M642 -95q6 0 6 -13q0 -75 -89 -75q-62 0 -85 27t-23 62q0 20 9 49.5t28 45.5q-11 5 -14 13l-42 164h-294l-74 -164q-7 -16 -41 -16h-5q-41 0 -41 16q0 5 5 15l305 657q7 16 41 16h29q35 0 39 -16l168 -658q1 -4 1 -10q0 -15 -26 -19q-1 -5 -10 -29.5t-9 -39.5
q0 -43 58 -43q18 0 40 9t24 9zM174 254h239l-73 298q-6 23 -6 58h-2q-12 -37 -21 -58z" />
    <glyph glyph-name="aogonek" unicode="&#x105;" horiz-adv-x="545" 
d="M584 -95q6 0 6 -13q0 -75 -89 -75q-62 0 -85 27t-23 62q0 19 8 46.5t24 44.5q-62 14 -62 95v10q-57 -108 -156 -108q-27 0 -54 10t-53.5 32.5t-43 67t-16.5 106.5q0 141 67 230t178 89q70 0 127 -54q6 19 10 27t13 15.5t22 7.5h6q25 0 25 -21q-40 -370 -40 -397
q0 -15 3 -24t9.5 -12t11 -4t12.5 -1q7 0 16 2.5t11 2.5q6 0 6 -7q0 -15 -4 -37q-4 -21 -32 -28q-1 -4 -10 -29t-9 -40q0 -43 58 -43q18 0 40 9t24 9zM389 367q2 18 8 50q-49 39 -104 39q-166 0 -166 -240q0 -149 99 -149q40 0 81 39.5t69 129.5z" />
    <glyph glyph-name="Cacute" unicode="&#x106;" horiz-adv-x="619" 
d="M485 909q47 0 47 -12q0 -9 -65 -76l-41 -41q-18 -18 -53 -18q-22 0 -22 9q0 12 69 112q18 26 65 26zM407 706q70 0 126.5 -20t56.5 -41q0 -12 -15.5 -35.5t-24.5 -23.5q-2 0 -22 11t-57 22t-79 11q-93 0 -153.5 -46.5t-85.5 -121t-25 -176.5q0 -111 50.5 -163.5
t155.5 -52.5q48 0 92 12t68 24t25 12q7 0 7 -11q0 -23 -7 -55q-6 -27 -65.5 -42.5t-127.5 -15.5q-147 0 -217.5 68.5t-70.5 211.5q0 90 18.5 164t59.5 136t115 97t176 35z" />
    <glyph glyph-name="cacute" unicode="&#x107;" horiz-adv-x="485" 
d="M389 732q47 0 47 -12q0 -9 -65 -76l-41 -41q-18 -18 -53 -18q-22 0 -22 9q0 12 69 112q18 26 65 26zM311 529q63 0 101.5 -17t38.5 -35q0 -11 -13.5 -30.5t-25.5 -19.5q-1 0 -22 12q-36 18 -89 18q-76 0 -121.5 -59.5t-45.5 -187.5q0 -75 32.5 -109.5t103.5 -34.5
q56 0 110 22q22 9 24 9q6 0 6 -12q0 -20 -5 -45q-5 -26 -52.5 -36t-89.5 -10q-108 0 -162 50t-54 160q0 91 25 161.5t86 117t153 46.5z" />
    <glyph glyph-name="Ccircumflex" unicode="&#x108;" horiz-adv-x="619" 
d="M414 895q32 0 44 -22l47 -88q5 -8 5 -17q-2 -15 -26 -15h-2q-19 0 -32 13l-55 74l-69 -74q-16 -13 -35 -13h-2q-21 0 -21 12q0 9 7 20l66 88q16 22 48 22h25zM407 706q70 0 126.5 -20t56.5 -41q0 -12 -15.5 -35.5t-24.5 -23.5q-2 0 -22 11t-57 22t-79 11
q-93 0 -153.5 -46.5t-85.5 -121t-25 -176.5q0 -111 50.5 -163.5t155.5 -52.5q48 0 92 12t68 24t25 12q7 0 7 -11q0 -23 -7 -55q-6 -27 -65.5 -42.5t-127.5 -15.5q-147 0 -217.5 68.5t-70.5 211.5q0 90 18.5 164t59.5 136t115 97t176 35z" />
    <glyph glyph-name="ccircumflex" unicode="&#x109;" horiz-adv-x="485" 
d="M318 718q32 0 44 -22l47 -88q5 -8 5 -17q-2 -15 -26 -15h-2q-19 0 -32 13l-55 74l-69 -74q-16 -13 -35 -13h-2q-21 0 -21 12q0 9 7 20l66 88q16 22 48 22h25zM311 529q63 0 101.5 -17t38.5 -35q0 -11 -13.5 -30.5t-25.5 -19.5q-1 0 -22 12q-36 18 -89 18
q-76 0 -121.5 -59.5t-45.5 -187.5q0 -75 32.5 -109.5t103.5 -34.5q56 0 110 22q22 9 24 9q6 0 6 -12q0 -20 -5 -45q-5 -26 -52.5 -36t-89.5 -10q-108 0 -162 50t-54 160q0 91 25 161.5t86 117t153 46.5z" />
    <glyph glyph-name="Cdotaccent" unicode="&#x10a;" horiz-adv-x="619" 
d="M406 879q38 0 38 -22l-5 -51q-3 -22 -46 -22q-38 0 -38 22l5 51q3 22 46 22zM407 706q70 0 126.5 -20t56.5 -41q0 -12 -15.5 -35.5t-24.5 -23.5q-2 0 -22 11t-57 22t-79 11q-93 0 -153.5 -46.5t-85.5 -121t-25 -176.5q0 -111 50.5 -163.5t155.5 -52.5q48 0 92 12t68 24
t25 12q7 0 7 -11q0 -23 -7 -55q-6 -27 -65.5 -42.5t-127.5 -15.5q-147 0 -217.5 68.5t-70.5 211.5q0 90 18.5 164t59.5 136t115 97t176 35z" />
    <glyph glyph-name="cdotaccent" unicode="&#x10b;" horiz-adv-x="485" 
d="M310 702q38 0 38 -22l-5 -51q-3 -22 -46 -22q-38 0 -38 22l5 51q3 22 46 22zM311 529q63 0 101.5 -17t38.5 -35q0 -11 -13.5 -30.5t-25.5 -19.5q-1 0 -22 12q-36 18 -89 18q-76 0 -121.5 -59.5t-45.5 -187.5q0 -75 32.5 -109.5t103.5 -34.5q56 0 110 22q22 9 24 9
q6 0 6 -12q0 -20 -5 -45q-5 -26 -52.5 -36t-89.5 -10q-108 0 -162 50t-54 160q0 91 25 161.5t86 117t153 46.5z" />
    <glyph glyph-name="Ccaron" unicode="&#x10c;" horiz-adv-x="619" 
d="M507 901q22 0 22 -14q0 -8 -7 -18l-67 -88q-16 -22 -48 -22h-25q-32 0 -44 22l-46 88q-5 9 -5 18q2 14 25 14h2q20 0 33 -13l53 -74l71 74q16 13 34 13h2zM407 706q70 0 126.5 -20t56.5 -41q0 -12 -15.5 -35.5t-24.5 -23.5q-2 0 -22 11t-57 22t-79 11q-93 0 -153.5 -46.5
t-85.5 -121t-25 -176.5q0 -111 50.5 -163.5t155.5 -52.5q48 0 92 12t68 24t25 12q7 0 7 -11q0 -23 -7 -55q-6 -27 -65.5 -42.5t-127.5 -15.5q-147 0 -217.5 68.5t-70.5 211.5q0 90 18.5 164t59.5 136t115 97t176 35z" />
    <glyph glyph-name="ccaron" unicode="&#x10d;" horiz-adv-x="485" 
d="M411 724q22 0 22 -14q0 -8 -7 -18l-67 -88q-16 -22 -48 -22h-25q-32 0 -44 22l-46 88q-5 9 -5 18q2 14 25 14h2q20 0 33 -13l53 -74l71 74q16 13 34 13h2zM311 529q63 0 101.5 -17t38.5 -35q0 -11 -13.5 -30.5t-25.5 -19.5q-1 0 -22 12q-36 18 -89 18q-76 0 -121.5 -59.5
t-45.5 -187.5q0 -75 32.5 -109.5t103.5 -34.5q56 0 110 22q22 9 24 9q6 0 6 -12q0 -20 -5 -45q-5 -26 -52.5 -36t-89.5 -10q-108 0 -162 50t-54 160q0 91 25 161.5t86 117t153 46.5z" />
    <glyph glyph-name="Dcaron" unicode="&#x10e;" horiz-adv-x="695" 
d="M466 901q22 0 22 -14q0 -8 -7 -18l-67 -88q-16 -22 -48 -22h-25q-32 0 -44 22l-46 88q-5 9 -5 18q2 14 25 14h2q20 0 33 -13l53 -74l71 74q16 13 34 13h2zM365 700q127 0 202.5 -68.5t75.5 -216.5q0 -112 -29 -195t-80 -129.5t-111 -68.5t-131 -22h-215q-27 0 -27 24
q0 6 11.5 116.5t29.5 278.5t26 251q3 30 33 30h215zM350 624h-150l-57 -548h150q109 0 184 79.5t75 245.5q0 118 -54.5 170.5t-147.5 52.5z" />
    <glyph glyph-name="dcaron" unicode="&#x10f;" horiz-adv-x="565" 
d="M538 71q6 0 6 -7q0 -15 -4 -37q-3 -17 -22.5 -25t-37.5 -8q-90 0 -90 98v10q-58 -108 -161 -108q-31 0 -61 10t-60 32.5t-48.5 67t-18.5 106.5q0 141 69 230t182 89q82 0 136 -45l27 246q3 22 42 22h4q38 0 38 -22q-64 -593 -64 -623q0 -15 3 -24t9.5 -12t11 -4t12.5 -1
q7 0 16 2.5t11 2.5zM632 752q37 0 37 -28q0 -36 -35.5 -86t-54.5 -50q-27 0 -27 15q0 10 13.5 48.5t13.5 68.5q0 14 12 23t32 9h9zM402 234l19 184q-48 38 -117 38q-50 0 -85.5 -20t-54 -55.5t-27 -76t-8.5 -88.5q0 -82 30 -115.5t89 -33.5q41 0 83 39t71 128z" />
    <glyph glyph-name="Dcroat" unicode="&#x110;" horiz-adv-x="696" 
d="M365 700q127 0 202.5 -68.5t75.5 -216.5q0 -112 -29 -195t-80 -129.5t-111 -68.5t-131 -22h-215q-27 0 -27 24q0 7 30 296h-64q-17 0 -17 22q0 54 25 54h64q7 59 17.5 161t11.5 113q3 30 33 30h215zM293 76q109 0 184 79.5t75 245.5q0 118 -54.5 170.5t-147.5 52.5h-150
l-24 -228h112q17 0 17 -22q0 -54 -25 -54h-112l-25 -244h150z" />
    <glyph glyph-name="dcroat" unicode="&#x111;" horiz-adv-x="565" 
d="M574 669q17 0 17 -26q0 -45 -25 -45h-41q-50 -466 -50 -491q0 -15 3 -24t9.5 -12t11 -4t12.5 -1q7 0 16 2.5t11 2.5q6 0 6 -7q0 -15 -4 -37q-3 -17 -22.5 -25t-37.5 -8q-90 0 -90 98v10q-58 -108 -161 -108q-31 0 -61 10t-60 32.5t-48.5 67t-18.5 106.5q0 141 69 230
t182 89q82 0 136 -45q2 20 6 58t6 56h-100q-17 0 -17 27q0 44 25 44h100l7 61q3 22 42 22h4q38 0 38 -22q-3 -23 -7 -61h42zM402 234l19 184q-48 38 -117 38q-50 0 -85.5 -20t-54 -55.5t-27 -76t-8.5 -88.5q0 -82 30 -115.5t89 -33.5q41 0 83 39t71 128z" />
    <glyph glyph-name="Emacron" unicode="&#x112;" horiz-adv-x="546" 
d="M440 860q17 0 17 -26q0 -45 -25 -45h-226q-17 0 -17 27q0 44 25 44h226zM498 700q17 0 17 -22q0 -54 -25 -54h-295l-24 -228h264q17 0 17 -22q0 -54 -25 -54h-264l-25 -244h296q17 0 17 -22q0 -54 -25 -54h-354q-27 0 -27 24q0 4 67 646q3 30 33 30h353z" />
    <glyph glyph-name="emacron" unicode="&#x113;" horiz-adv-x="539" 
d="M193 612q-17 0 -17 27q0 44 25 44h226q17 0 17 -26q0 -45 -25 -45h-226zM219 213q-49 0 -86 7v-10q0 -79 37.5 -111.5t108.5 -32.5q40 0 75 12t55.5 24.5t24.5 12.5q7 0 7 -12q0 -19 -5 -45q-6 -31 -62 -47.5t-102 -16.5q-226 0 -226 207q0 145 68 236.5t207 91.5
q85 0 126.5 -42.5t41.5 -90.5q0 -50 -22.5 -87t-62 -57t-85.5 -29.5t-100 -9.5zM312 457q-150 0 -174 -172h71q17 0 32 0.5t47.5 6t55 15.5t40.5 31t18 50t-24.5 49t-65.5 20z" />
    <glyph glyph-name="Ebreve" unicode="&#x114;" horiz-adv-x="546" 
d="M470 892q14 0 14 -12q0 -55 -49.5 -86.5t-106.5 -31.5q-55 0 -94.5 27t-39.5 76q0 27 17 27q6 0 9.5 -2t4.5 -4.5t2.5 -8.5t3.5 -10q17 -39 104 -39q86 0 111 39q3 5 6 13t6.5 10t11.5 2zM498 700q17 0 17 -22q0 -54 -25 -54h-295l-24 -228h264q17 0 17 -22
q0 -54 -25 -54h-264l-25 -244h296q17 0 17 -22q0 -54 -25 -54h-354q-27 0 -27 24q0 4 67 646q3 30 33 30h353z" />
    <glyph glyph-name="ebreve" unicode="&#x115;" horiz-adv-x="539" 
d="M315 585q-55 0 -94.5 27t-39.5 76q0 27 17 27q6 0 9.5 -2t4.5 -4.5t2.5 -8.5t3.5 -10q17 -39 104 -39q86 0 111 39q3 5 6 13t6.5 10t11.5 2q14 0 14 -12q0 -55 -49.5 -86.5t-106.5 -31.5zM219 213q-49 0 -86 7v-10q0 -79 37.5 -111.5t108.5 -32.5q40 0 75 12t55.5 24.5
t24.5 12.5q7 0 7 -12q0 -19 -5 -45q-6 -31 -62 -47.5t-102 -16.5q-226 0 -226 207q0 145 68 236.5t207 91.5q85 0 126.5 -42.5t41.5 -90.5q0 -50 -22.5 -87t-62 -57t-85.5 -29.5t-100 -9.5zM312 457q-150 0 -174 -172h71q17 0 32 0.5t47.5 6t55 15.5t40.5 31t18 50t-24.5 49
t-65.5 20z" />
    <glyph glyph-name="Edotaccent" unicode="&#x116;" horiz-adv-x="546" 
d="M340 879q38 0 38 -22l-5 -51q-3 -22 -46 -22q-38 0 -38 22l5 51q3 22 46 22zM498 700q17 0 17 -22q0 -54 -25 -54h-295l-24 -228h264q17 0 17 -22q0 -54 -25 -54h-264l-25 -244h296q17 0 17 -22q0 -54 -25 -54h-354q-27 0 -27 24q0 4 67 646q3 30 33 30h353z" />
    <glyph glyph-name="edotaccent" unicode="&#x117;" horiz-adv-x="539" 
d="M314 607q-38 0 -38 22l5 51q3 22 46 22q38 0 38 -22l-5 -51q-3 -22 -46 -22zM219 213q-49 0 -86 7v-10q0 -79 37.5 -111.5t108.5 -32.5q40 0 75 12t55.5 24.5t24.5 12.5q7 0 7 -12q0 -19 -5 -45q-6 -31 -62 -47.5t-102 -16.5q-226 0 -226 207q0 145 68 236.5t207 91.5
q85 0 126.5 -42.5t41.5 -90.5q0 -50 -22.5 -87t-62 -57t-85.5 -29.5t-100 -9.5zM312 457q-150 0 -174 -172h71q17 0 32 0.5t47.5 6t55 15.5t40.5 31t18 50t-24.5 49t-65.5 20z" />
    <glyph glyph-name="Eogonek" unicode="&#x118;" horiz-adv-x="546" 
d="M529 -95q6 0 6 -13q0 -75 -89 -75q-62 0 -85 27t-23 62q0 20 9 49t27 45h-302q-27 0 -27 24q0 4 67 646q3 30 33 30h353q17 0 17 -22q0 -54 -25 -54h-295l-24 -228h264q17 0 17 -22q0 -54 -25 -54h-264l-25 -244h296q17 0 17 -22q0 -54 -25 -54q-1 -5 -10 -29.5t-9 -40.5
q0 -43 58 -43q18 0 40 9t24 9z" />
    <glyph glyph-name="eogonek" unicode="&#x119;" horiz-adv-x="539" 
d="M454 -95q6 0 6 -13q0 -75 -89 -75q-62 0 -85 27t-23 62q0 55 31 89q-9 -1 -22 -1q-226 0 -226 207q0 145 68 236.5t207 91.5q85 0 126.5 -42.5t41.5 -90.5q0 -50 -22.5 -87t-62 -57t-85.5 -29.5t-100 -9.5q-49 0 -86 7v-10q0 -79 37.5 -111.5t108.5 -32.5q40 0 75 12
t55.5 24.5t24.5 12.5q7 0 7 -12q0 -19 -5 -45q-6 -35 -85 -54v-2q0 -7 -9.5 -31.5t-9.5 -40.5q0 -43 58 -43q18 0 40 9t24 9zM312 457q-150 0 -174 -172h71q17 0 32 0.5t47.5 6t55 15.5t40.5 31t18 50t-24.5 49t-65.5 20z" />
    <glyph glyph-name="Ecaron" unicode="&#x11a;" horiz-adv-x="546" 
d="M441 901q22 0 22 -14q0 -8 -7 -18l-67 -88q-16 -22 -48 -22h-25q-32 0 -44 22l-46 88q-5 9 -5 18q2 14 25 14h2q20 0 33 -13l53 -74l71 74q16 13 34 13h2zM498 700q17 0 17 -22q0 -54 -25 -54h-295l-24 -228h264q17 0 17 -22q0 -54 -25 -54h-264l-25 -244h296
q17 0 17 -22q0 -54 -25 -54h-354q-27 0 -27 24q0 4 67 646q3 30 33 30h353z" />
    <glyph glyph-name="ecaron" unicode="&#x11b;" horiz-adv-x="539" 
d="M259 604l-46 88q-5 9 -5 18q2 14 25 14h2q20 0 33 -13l53 -74l71 74q16 13 34 13h2q22 0 22 -14q0 -8 -7 -18l-67 -88q-16 -22 -48 -22h-25q-32 0 -44 22zM219 213q-49 0 -86 7v-10q0 -79 37.5 -111.5t108.5 -32.5q40 0 75 12t55.5 24.5t24.5 12.5q7 0 7 -12
q0 -19 -5 -45q-6 -31 -62 -47.5t-102 -16.5q-226 0 -226 207q0 145 68 236.5t207 91.5q85 0 126.5 -42.5t41.5 -90.5q0 -50 -22.5 -87t-62 -57t-85.5 -29.5t-100 -9.5zM312 457q-150 0 -174 -172h71q17 0 32 0.5t47.5 6t55 15.5t40.5 31t18 50t-24.5 49t-65.5 20z" />
    <glyph glyph-name="Gcircumflex" unicode="&#x11c;" horiz-adv-x="672" 
d="M421 895q32 0 44 -22l47 -88q5 -8 5 -17q-2 -15 -26 -15h-2q-19 0 -32 13l-55 74l-69 -74q-16 -13 -35 -13h-2q-21 0 -21 12q0 9 7 20l66 88q16 22 48 22h25zM418 706q70 0 127 -20t57 -41q0 -12 -15.5 -35.5t-24.5 -23.5q-2 0 -21 11t-55.5 22t-81.5 11
q-129 0 -194.5 -89.5t-65.5 -252.5q0 -218 198 -218q80 0 130 13l22 202h-118q-17 0 -17 22q0 54 25 54h176q27 0 27 -24q0 -7 -5 -53l-12.5 -115t-10.5 -103q-8 -72 -231 -72q-276 0 -276 281q0 216 97 323.5t269 107.5z" />
    <glyph glyph-name="gcircumflex" unicode="&#x11d;" horiz-adv-x="546" 
d="M192 576q-21 0 -21 12q0 9 7 20l66 88q16 22 48 22h25q32 0 44 -22l47 -88q5 -8 5 -17q-2 -15 -26 -15h-2q-19 0 -32 13l-55 74l-69 -74q-16 -13 -35 -13h-2zM475 525q25 0 25 -21l-43 -405q-18 -174 -75.5 -242.5t-168.5 -68.5q-72 0 -122 23t-50 48q0 55 14 55
q2 0 20.5 -13.5t55 -27t82.5 -13.5q74 0 113 58t49 190q-58 -108 -161 -108q-28 0 -55.5 9.5t-55 31.5t-44.5 65.5t-17 103.5q0 141 68.5 230t181.5 89q73 0 132 -54q6 19 10 27t13 15.5t22 7.5h6zM401 367q2 18 8 50q-52 39 -109 39q-171 0 -171 -240q0 -143 104 -143
q41 0 83.5 40t71.5 131z" />
    <glyph glyph-name="Gbreve" unicode="&#x11e;" horiz-adv-x="672" 
d="M543 892q14 0 14 -12q0 -55 -49.5 -86.5t-106.5 -31.5q-55 0 -94.5 27t-39.5 76q0 27 17 27q6 0 9.5 -2t4.5 -4.5t2.5 -8.5t3.5 -10q17 -39 104 -39q86 0 111 39q3 5 6 13t6.5 10t11.5 2zM418 706q70 0 127 -20t57 -41q0 -12 -15.5 -35.5t-24.5 -23.5q-2 0 -21 11
t-55.5 22t-81.5 11q-129 0 -194.5 -89.5t-65.5 -252.5q0 -218 198 -218q80 0 130 13l22 202h-118q-17 0 -17 22q0 54 25 54h176q27 0 27 -24q0 -7 -5 -53l-12.5 -115t-10.5 -103q-8 -72 -231 -72q-276 0 -276 281q0 216 97 323.5t269 107.5z" />
    <glyph glyph-name="gbreve" unicode="&#x11f;" horiz-adv-x="546" 
d="M297 585q-55 0 -94.5 27t-39.5 76q0 27 17 27q6 0 9.5 -2t4.5 -4.5t2.5 -8.5t3.5 -10q17 -39 104 -39q86 0 111 39q3 5 6 13t6.5 10t11.5 2q14 0 14 -12q0 -55 -49.5 -86.5t-106.5 -31.5zM475 525q25 0 25 -21l-43 -405q-18 -174 -75.5 -242.5t-168.5 -68.5
q-72 0 -122 23t-50 48q0 55 14 55q2 0 20.5 -13.5t55 -27t82.5 -13.5q74 0 113 58t49 190q-58 -108 -161 -108q-28 0 -55.5 9.5t-55 31.5t-44.5 65.5t-17 103.5q0 141 68.5 230t181.5 89q73 0 132 -54q6 19 10 27t13 15.5t22 7.5h6zM401 367q2 18 8 50q-52 39 -109 39
q-171 0 -171 -240q0 -143 104 -143q41 0 83.5 40t71.5 131z" />
    <glyph glyph-name="Gdotaccent" unicode="&#x120;" horiz-adv-x="672" 
d="M413 879q38 0 38 -22l-5 -51q-3 -22 -46 -22q-38 0 -38 22l5 51q3 22 46 22zM418 706q70 0 127 -20t57 -41q0 -12 -15.5 -35.5t-24.5 -23.5q-2 0 -21 11t-55.5 22t-81.5 11q-129 0 -194.5 -89.5t-65.5 -252.5q0 -218 198 -218q80 0 130 13l22 202h-118q-17 0 -17 22
q0 54 25 54h176q27 0 27 -24q0 -7 -5 -53l-12.5 -115t-10.5 -103q-8 -72 -231 -72q-276 0 -276 281q0 216 97 323.5t269 107.5z" />
    <glyph glyph-name="gdotaccent" unicode="&#x121;" horiz-adv-x="546" 
d="M296 607q-38 0 -38 22l5 51q3 22 46 22q38 0 38 -22l-5 -51q-3 -22 -46 -22zM475 525q25 0 25 -21l-43 -405q-18 -174 -75.5 -242.5t-168.5 -68.5q-72 0 -122 23t-50 48q0 55 14 55q2 0 20.5 -13.5t55 -27t82.5 -13.5q74 0 113 58t49 190q-58 -108 -161 -108
q-28 0 -55.5 9.5t-55 31.5t-44.5 65.5t-17 103.5q0 141 68.5 230t181.5 89q73 0 132 -54q6 19 10 27t13 15.5t22 7.5h6zM401 367q2 18 8 50q-52 39 -109 39q-171 0 -171 -240q0 -143 104 -143q41 0 83.5 40t71.5 131z" />
    <glyph glyph-name="Gcommaaccent" unicode="&#x122;" horiz-adv-x="672" 
d="M418 706q70 0 127 -20t57 -41q0 -12 -15.5 -35.5t-24.5 -23.5q-2 0 -21 11t-55.5 22t-81.5 11q-129 0 -194.5 -89.5t-65.5 -252.5q0 -218 198 -218q80 0 130 13l22 202h-118q-17 0 -17 22q0 54 25 54h176q27 0 27 -24q0 -7 -5 -53l-12.5 -115t-10.5 -103q-8 -72 -231 -72
q-276 0 -276 281q0 216 97 323.5t269 107.5zM339 -51q37 0 37 -28q0 -41 -46.5 -98.5t-73.5 -57.5t-27 15q0 11 28.5 56t28.5 81q0 14 12 23t32 9h9z" />
    <glyph glyph-name="gcommaaccent" unicode="&#x123;" horiz-adv-x="546" 
d="M290 585q-37 0 -37 28q0 41 46.5 98.5t73.5 57.5t27 -15q0 -11 -28.5 -56t-28.5 -81q0 -14 -12 -23t-32 -9h-9zM475 525q25 0 25 -21l-43 -405q-18 -174 -75.5 -242.5t-168.5 -68.5q-72 0 -122 23t-50 48q0 55 14 55q2 0 20.5 -13.5t55 -27t82.5 -13.5q74 0 113 58
t49 190q-58 -108 -161 -108q-28 0 -55.5 9.5t-55 31.5t-44.5 65.5t-17 103.5q0 141 68.5 230t181.5 89q73 0 132 -54q6 19 10 27t13 15.5t22 7.5h6zM401 367q2 18 8 50q-52 39 -109 39q-171 0 -171 -240q0 -143 104 -143q41 0 83.5 40t71.5 131z" />
    <glyph glyph-name="Hcircumflex" unicode="&#x124;" horiz-adv-x="733" 
d="M430 895q32 0 44 -22l47 -88q5 -8 5 -17q-2 -15 -26 -15h-2q-19 0 -32 13l-55 74l-69 -74q-16 -13 -35 -13h-2q-21 0 -21 12q0 9 7 20l66 88q16 22 48 22h25zM631 702q38 0 38 -22l-69 -660q-3 -22 -42 -22h-8q-38 0 -38 22l31 301h-362l-31 -301q-3 -22 -42 -22h-8
q-38 0 -38 22l69 660q2 22 42 22h8q38 0 38 -22l-30 -283h362l30 283q2 22 42 22h8z" />
    <glyph glyph-name="hcircumflex" unicode="&#x125;" horiz-adv-x="565" 
d="M204 925q32 0 44 -22l47 -88q5 -8 5 -17q-2 -15 -26 -15h-2q-19 0 -32 13l-55 74l-69 -74q-16 -13 -35 -13h-2q-21 0 -21 12q0 9 7 20l66 88q16 22 48 22h25zM175 752q38 0 38 -22l-32 -298q72 97 175 97q132 0 132 -130q0 -8 -14.5 -144.5t-14.5 -147.5q0 -15 3 -24
t9.5 -12t11 -4t12.5 -1q7 0 16 2.5t11 2.5q6 0 6 -7q0 -15 -4 -37q-3 -17 -22.5 -25t-37.5 -8q-90 0 -90 98q0 18 14 148.5t14 138.5q0 77 -76 77q-41 0 -85 -36.5t-74 -122.5l-29 -277q-3 -22 -42 -22h-4q-38 0 -38 21l75 711q3 22 42 22h4z" />
    <glyph glyph-name="Hbar" unicode="&#x126;" horiz-adv-x="733" 
d="M680 561q17 0 17 -26q0 -45 -25 -45h-23l-49 -470q-3 -22 -42 -22h-8q-38 0 -38 22l31 301h-362l-31 -301q-3 -22 -42 -22h-8q-38 0 -38 22l49 470h-35q-17 0 -17 27q0 44 25 44h35l12 119q2 22 42 22h8q38 0 38 -22l-13 -119h362l13 119q2 22 42 22h8q38 0 38 -22
l-12 -119h23zM551 397l10 93h-362l-10 -93h362z" />
    <glyph glyph-name="hbar" unicode="&#x127;" horiz-adv-x="565" 
d="M522 71q6 0 6 -7q0 -15 -4 -37q-3 -17 -22.5 -25t-37.5 -8q-90 0 -90 98q0 18 14 148.5t14 138.5q0 77 -76 77q-41 0 -85 -36.5t-74 -122.5l-29 -277q-3 -22 -42 -22h-4q-38 0 -38 21l61 579h-41q-17 0 -17 27q0 44 25 44h41l6 61q3 22 42 22h4q38 0 38 -22l-7 -61h102
q17 0 17 -26q0 -45 -25 -45h-101l-18 -166q72 97 175 97q132 0 132 -130q0 -8 -14.5 -144.5t-14.5 -147.5q0 -15 3 -24t9.5 -12t11 -4t12.5 -1q7 0 16 2.5t11 2.5z" />
    <glyph glyph-name="Itilde" unicode="&#x128;" horiz-adv-x="282" 
d="M113 867q28 0 82.5 -21.5t74.5 -21.5q23 0 40 29q11 19 27 12l7 -3q14 -6 6 -26q-27 -68 -82 -68q-30 0 -85 21.5t-74 21.5q-20 0 -38 -30q-7 -11 -11.5 -13.5t-13.5 1.5l-9 4q-13 6 -6 25q26 69 82 69zM181 702q38 0 38 -22l-69 -660q-3 -22 -42 -22h-8q-38 0 -38 22
l69 660q2 22 42 22h8z" />
    <glyph glyph-name="itilde" unicode="&#x129;" horiz-adv-x="265" 
d="M79 690q28 0 82.5 -21.5t74.5 -21.5q23 0 40 29q11 19 27 12l7 -3q14 -6 6 -26q-27 -68 -82 -68q-30 0 -85 21.5t-74 21.5q-20 0 -38 -30q-7 -11 -11.5 -13.5t-13.5 1.5l-9 4q-13 6 -6 25q26 69 82 69zM150 525q38 0 38 -22q-40 -366 -40 -396q0 -19 6 -28.5t12 -11
t17 -1.5q7 0 16 2.5t11 2.5q6 0 6 -7q0 -15 -4 -37q-3 -17 -22.5 -25t-37.5 -8q-89 0 -89 95q0 19 10 122t20 197.5t11 94.5q3 22 42 22h4z" />
    <glyph glyph-name="Imacron" unicode="&#x12a;" horiz-adv-x="282" 
d="M297 860q17 0 17 -26q0 -45 -25 -45h-226q-17 0 -17 27q0 44 25 44h226zM181 702q38 0 38 -22l-69 -660q-3 -22 -42 -22h-8q-38 0 -38 22l69 660q2 22 42 22h8z" />
    <glyph glyph-name="imacron" unicode="&#x12b;" horiz-adv-x="265" 
d="M263 683q17 0 17 -26q0 -45 -25 -45h-226q-17 0 -17 27q0 44 25 44h226zM150 525q38 0 38 -22q-40 -366 -40 -396q0 -19 6 -28.5t12 -11t17 -1.5q7 0 16 2.5t11 2.5q6 0 6 -7q0 -15 -4 -37q-3 -17 -22.5 -25t-37.5 -8q-89 0 -89 95q0 19 10 122t20 197.5t11 94.5
q3 22 42 22h4z" />
    <glyph glyph-name="Ibreve" unicode="&#x12c;" horiz-adv-x="282" 
d="M327 892q14 0 14 -12q0 -55 -49.5 -86.5t-106.5 -31.5q-55 0 -94.5 27t-39.5 76q0 27 17 27q6 0 9.5 -2t4.5 -4.5t2.5 -8.5t3.5 -10q17 -39 104 -39q86 0 111 39q3 5 6 13t6.5 10t11.5 2zM181 702q38 0 38 -22l-69 -660q-3 -22 -42 -22h-8q-38 0 -38 22l69 660
q2 22 42 22h8z" />
    <glyph glyph-name="ibreve" unicode="&#x12d;" horiz-adv-x="265" 
d="M293 715q14 0 14 -12q0 -55 -49.5 -86.5t-106.5 -31.5q-55 0 -94.5 27t-39.5 76q0 27 17 27q6 0 9.5 -2t4.5 -4.5t2.5 -8.5t3.5 -10q17 -39 104 -39q86 0 111 39q3 5 6 13t6.5 10t11.5 2zM150 525q38 0 38 -22q-40 -366 -40 -396q0 -19 6 -28.5t12 -11t17 -1.5
q7 0 16 2.5t11 2.5q6 0 6 -7q0 -15 -4 -37q-3 -17 -22.5 -25t-37.5 -8q-89 0 -89 95q0 19 10 122t20 197.5t11 94.5q3 22 42 22h4z" />
    <glyph glyph-name="Iogonek" unicode="&#x12e;" horiz-adv-x="282" 
d="M231 -95q6 0 6 -13q0 -75 -89 -75q-62 0 -85 27t-23 62q0 20 9 49.5t28 45.5q-15 4 -15 19l69 660q2 22 42 22h8q38 0 38 -22l-69 -660q-2 -15 -22 -20q0 -6 -9.5 -30.5t-9.5 -39.5q0 -43 58 -43q18 0 40 9t24 9z" />
    <glyph glyph-name="iogonek" unicode="&#x12f;" horiz-adv-x="265" 
d="M160 649q-42 0 -42 22l6 59q3 22 42 22h12q38 0 38 -22l-6 -59q0 -22 -38 -22h-12zM269 -95q6 0 6 -13q0 -75 -89 -75q-62 0 -85 27t-23 62q0 20 9 49t27 45q-51 17 -51 89q0 19 10 122t20 197.5t11 94.5q3 22 42 22h4q38 0 38 -22q-40 -366 -40 -396q0 -19 6 -28.5
t12 -11t17 -1.5q7 0 16 2.5t11 2.5q6 0 6 -7q0 -15 -4 -37q-5 -25 -47 -32q-1 -5 -6 -17.5t-8.5 -24.5t-3.5 -23q0 -43 58 -43q18 0 40 9t24 9z" />
    <glyph glyph-name="Idotaccent" unicode="&#x130;" horiz-adv-x="282" 
d="M197 879q38 0 38 -22l-5 -51q-3 -22 -46 -22q-38 0 -38 22l5 51q3 22 46 22zM181 702q38 0 38 -22l-69 -660q-3 -22 -42 -22h-8q-38 0 -38 22l69 660q2 22 42 22h8z" />
    <glyph glyph-name="dotlessi" unicode="&#x131;" horiz-adv-x="265" 
d="M150 525q38 0 38 -22q-40 -366 -40 -396q0 -19 6 -28.5t12 -11t17 -1.5q7 0 16 2.5t11 2.5q6 0 6 -7q0 -15 -4 -37q-3 -17 -22.5 -25t-37.5 -8q-89 0 -89 95q0 19 10 122t20 197.5t11 94.5q3 22 42 22h4z" />
    <glyph glyph-name="IJ" unicode="&#x132;" horiz-adv-x="684" 
d="M181 702q38 0 38 -22l-69 -660q-3 -22 -42 -22h-8q-38 0 -38 22l69 660q2 22 42 22h8zM598 702q38 0 38 -22l-50 -475q-22 -211 -227 -211q-88 0 -88 32q0 59 15 59q1 0 21.5 -4.5t44.5 -4.5q69 0 103.5 30t41.5 95l51 479q2 22 42 22h8z" />
    <glyph glyph-name="ij" unicode="&#x133;" horiz-adv-x="541" 
d="M178 752q38 0 38 -22l-6 -59q0 -22 -38 -22h-12q-42 0 -42 22l6 59q3 22 42 22h12zM459 752q38 0 38 -22l-6 -59q0 -22 -38 -22h-12q-42 0 -42 22l6 59q3 22 42 22h12zM150 525q38 0 38 -22q-40 -366 -40 -396q0 -19 6 -28.5t12 -11t17 -1.5q7 0 16 2.5t11 2.5q6 0 6 -7
q0 -15 -4 -37q-3 -17 -22.5 -25t-37.5 -8q-89 0 -89 95q0 19 10 122t20 197.5t11 94.5q3 22 42 22h4zM431 525q38 0 38 -22l-61 -577q-8 -78 -45.5 -108t-86.5 -30q-34 0 -56 11.5t-22 29.5q0 48 11 48q1 0 18 -8.5t38 -8.5q26 0 41 16t19 58l60 569q3 22 42 22h4z" />
    <glyph glyph-name="Jcircumflex" unicode="&#x134;" horiz-adv-x="402" 
d="M333 897q32 0 44 -22l47 -88q5 -7 5 -17q-2 -15 -26 -15h-2q-19 0 -32 13l-55 74l-69 -74q-16 -13 -35 -13h-2q-21 0 -21 12q0 9 7 20l66 88q16 22 48 22h25zM316 702q38 0 38 -22l-50 -475q-22 -211 -227 -211q-88 0 -88 32q0 59 15 59q1 0 21.5 -4.5t44.5 -4.5
q69 0 103.5 30t41.5 95l51 479q2 22 42 22h8z" />
    <glyph glyph-name="jcircumflex" unicode="&#x135;" horiz-adv-x="276" 
d="M190 718q32 0 44 -22l47 -88q5 -8 5 -17q-2 -15 -26 -15h-2q-19 0 -32 13l-55 74l-69 -74q-16 -13 -35 -13h-2q-21 0 -21 12q0 9 7 20l66 88q16 22 48 22h25zM166 525q38 0 38 -22l-61 -577q-8 -78 -45.5 -108t-86.5 -30q-34 0 -56 11.5t-22 29.5q0 48 11 48q1 0 18 -8.5
t38 -8.5q26 0 41 16t19 58l60 569q3 22 42 22h4z" />
    <glyph glyph-name="Kcommaaccent" unicode="&#x136;" horiz-adv-x="576" 
d="M515 702q34 0 34 -12q0 -9 -12 -21l-278 -309l261 -332q7 -9 7 -16q-1 -14 -45 -14h-7q-43 0 -54 13l-252 322h-4l-33 -313q-3 -22 -42 -22h-8q-38 0 -38 22l69 660q2 22 42 22h8q38 0 38 -22l-32 -306h4l277 314q13 14 55 14h10zM263 -51q37 0 37 -28q0 -41 -46.5 -98.5
t-73.5 -57.5t-27 15q0 11 28.5 56t28.5 81q0 14 12 23t32 9h9z" />
    <glyph glyph-name="kcommaaccent" unicode="&#x137;" horiz-adv-x="521" 
d="M175 752q38 0 38 -22l-47 -447h4l224 228q13 14 54 14h4q34 0 34 -12q0 -9 -12 -21l-218 -220l201 -244q7 -10 7 -14q0 -10 -10 -13t-35 -3h-4q-43 0 -53 13l-196 237h-4l-24 -228q-3 -22 -42 -22h-4q-38 0 -38 22l75 710q2 22 42 22h4zM244 -51q37 0 37 -28
q0 -41 -46.5 -98.5t-73.5 -57.5t-27 15q0 11 28.5 56t28.5 81q0 14 12 23t32 9h9z" />
    <glyph glyph-name="kgreenlandic" unicode="&#x138;" horiz-adv-x="521" 
d="M151 526q38 0 38 -22l-23 -221h4l224 228q13 14 54 14h4q34 0 34 -12q0 -9 -12 -21l-218 -220l201 -244q7 -10 7 -14q0 -10 -10 -13t-35 -3h-4q-43 0 -53 13l-196 237h-4l-24 -228q-3 -22 -42 -22h-4q-38 0 -38 22l51 484q2 22 42 22h4z" />
    <glyph glyph-name="Lacute" unicode="&#x139;" horiz-adv-x="484" 
d="M264 911q47 0 47 -12q0 -9 -65 -76l-41 -41q-18 -18 -53 -18q-22 0 -22 9q0 12 69 112q18 26 65 26zM168 702q38 0 38 -22l-63 -604h291q17 0 17 -22q0 -54 -25 -54h-349q-16 0 -21.5 7t-5.5 23l68 650q2 22 42 22h8z" />
    <glyph glyph-name="lacute" unicode="&#x13a;" horiz-adv-x="297" 
d="M280 929q47 0 47 -12q0 -9 -65 -76l-41 -41q-18 -18 -53 -18q-22 0 -22 9q0 12 69 112q18 26 65 26zM187 752q38 0 38 -22q-64 -593 -64 -623q0 -15 3 -24t9.5 -12t11 -4t12.5 -1q7 0 16 2.5t11 2.5q6 0 6 -7q0 -15 -4 -37q-3 -17 -22.5 -25t-37.5 -8q-90 0 -90 98
q0 20 16 178.5t32 309.5l17 150q3 22 42 22h4z" />
    <glyph glyph-name="Lcommaaccent" unicode="&#x13b;" horiz-adv-x="484" 
d="M168 702q38 0 38 -22l-63 -604h291q17 0 17 -22q0 -54 -25 -54h-349q-16 0 -21.5 7t-5.5 23l68 650q2 22 42 22h8zM245 -51q37 0 37 -28q0 -41 -46.5 -98.5t-73.5 -57.5t-27 15q0 11 28.5 56t28.5 81q0 14 12 23t32 9h9z" />
    <glyph glyph-name="lcommaaccent" unicode="&#x13c;" horiz-adv-x="297" 
d="M187 752q38 0 38 -22q-64 -593 -64 -623q0 -15 3 -24t9.5 -12t11 -4t12.5 -1q7 0 16 2.5t11 2.5q6 0 6 -7q0 -15 -4 -37q-3 -17 -22.5 -25t-37.5 -8q-90 0 -90 98q0 20 16 178.5t32 309.5l17 150q3 22 42 22h4zM152 -51q37 0 37 -28q0 -41 -46.5 -98.5t-73.5 -57.5
t-27 15q0 11 28.5 56t28.5 81q0 14 12 23t32 9h9z" />
    <glyph glyph-name="Lcaron" unicode="&#x13d;" horiz-adv-x="484" 
d="M168 702q38 0 38 -22l-63 -604h291q17 0 17 -22q0 -54 -25 -54h-349q-16 0 -21.5 7t-5.5 23l68 650q2 22 42 22h8zM405 700q37 0 37 -28q0 -36 -35.5 -86t-54.5 -50q-27 0 -27 15q0 10 13.5 48.5t13.5 68.5q0 14 12 23t32 9h9z" />
    <glyph glyph-name="lcaron" unicode="&#x13e;" horiz-adv-x="297" 
d="M187 752q38 0 38 -22q-64 -593 -64 -623q0 -15 3 -24t9.5 -12t11 -4t12.5 -1q7 0 16 2.5t11 2.5q6 0 6 -7q0 -15 -4 -37q-3 -17 -22.5 -25t-37.5 -8q-90 0 -90 98q0 20 16 178.5t32 309.5l17 150q3 22 42 22h4zM321 752q37 0 37 -28q0 -36 -35.5 -86t-54.5 -50
q-27 0 -27 15q0 10 13.5 48.5t13.5 68.5q0 14 12 23t32 9h9z" />
    <glyph glyph-name="Ldot" unicode="&#x13f;" horiz-adv-x="484" 
d="M168 702q38 0 38 -22l-63 -604h291q17 0 17 -22q0 -54 -25 -54h-349q-16 0 -21.5 7t-5.5 23l68 650q2 22 42 22h8zM306 412q20 0 33 -13t13 -33q0 -26 -16.5 -41.5t-40.5 -15.5q-20 0 -33 12.5t-13 32.5q0 25 16 41.5t41 16.5z" />
    <glyph glyph-name="ldot" unicode="&#x140;" horiz-adv-x="297" 
d="M187 752q38 0 38 -22q-64 -593 -64 -623q0 -15 3 -24t9.5 -12t11 -4t12.5 -1q7 0 16 2.5t11 2.5q6 0 6 -7q0 -15 -4 -37q-3 -17 -22.5 -25t-37.5 -8q-90 0 -90 98q0 20 16 178.5t32 309.5l17 150q3 22 42 22h4zM285 412q20 0 33 -13t13 -33q0 -26 -16.5 -41.5
t-40.5 -15.5q-20 0 -33 12.5t-13 32.5q0 25 16 41.5t41 16.5z" />
    <glyph glyph-name="Lslash" unicode="&#x141;" horiz-adv-x="486" 
d="M169 702q38 0 38 -22l-24 -233l114 64q8 4 11 4q7 0 7 -14q0 -24 -23 -36l-114 -64l-34 -325h291q17 0 17 -22q0 -54 -25 -54h-349q-16 0 -21.5 7t-5.5 23l33 318l-72 -40q-8 -4 -10 -4q-7 0 -7 14q0 23 22 36l72 40l30 286q2 22 42 22h8z" />
    <glyph glyph-name="lslash" unicode="&#x142;" horiz-adv-x="293" 
d="M197 752q38 0 38 -22q-15 -137 -30 -283l44 25q8 4 11 4q7 0 7 -14q0 -24 -23 -36l-44 -25q-29 -275 -29 -294q0 -15 3 -24t9.5 -12t11 -4t12.5 -1q7 0 16 2.5t11 2.5q6 0 6 -7q0 -15 -4 -37q-3 -17 -22.5 -25t-37.5 -8q-90 0 -90 98q0 26 24 259l-44 -24q-8 -4 -11 -4
q-7 0 -7 14q0 24 23 36l44 24q7 72 16.5 155.5t14.5 130t5 47.5q3 22 42 22h4z" />
    <glyph glyph-name="Nacute" unicode="&#x143;" horiz-adv-x="719" 
d="M487 909q47 0 47 -12q0 -9 -65 -76l-41 -41q-18 -18 -53 -18q-22 0 -22 9q0 12 69 112q18 26 65 26zM628 702q38 0 38 -22l-69 -660q-3 -22 -42 -22h-20q-26 0 -34 14l-284 498l-21 51l-57 -541q-3 -22 -42 -22h-7q-38 0 -38 22l69 660q2 22 42 22h21q29 0 40 -19
l275 -482l24 -56l56 535q2 22 42 22h7z" />
    <glyph glyph-name="nacute" unicode="&#x144;" 
d="M273 585q-22 0 -22 9q0 12 69 112q18 26 65 26t47 -12q0 -9 -65 -76l-41 -41q-18 -18 -53 -18zM505 71q6 0 6 -7q0 -15 -4 -37q-3 -17 -22.5 -25t-37.5 -8q-90 0 -90 98q0 18 14 148.5t14 138.5q0 77 -76 77q-41 0 -85.5 -37t-73.5 -124l-29 -275q-3 -22 -42 -22h-4
q-38 0 -38 21q44 391 44 438q0 14 -0.5 23.5t-0.5 10.5q0 23 56 23q26 0 26 -67v-19q74 101 177 101q132 0 132 -130q0 -8 -14.5 -144.5t-14.5 -147.5q0 -15 3 -24t9.5 -12t11 -4t12.5 -1q7 0 16 2.5t11 2.5z" />
    <glyph glyph-name="Ncommaaccent" unicode="&#x145;" horiz-adv-x="719" 
d="M628 702q38 0 38 -22l-69 -660q-3 -22 -42 -22h-20q-26 0 -34 14l-284 498l-21 51l-57 -541q-3 -22 -42 -22h-7q-38 0 -38 22l69 660q2 22 42 22h21q29 0 40 -19l275 -482l24 -56l56 535q2 22 42 22h7zM339 -51q37 0 37 -28q0 -41 -46.5 -98.5t-73.5 -57.5t-27 15
q0 11 28.5 56t28.5 81q0 14 12 23t32 9h9z" />
    <glyph glyph-name="ncommaaccent" unicode="&#x146;" 
d="M505 71q6 0 6 -7q0 -15 -4 -37q-3 -17 -22.5 -25t-37.5 -8q-90 0 -90 98q0 18 14 148.5t14 138.5q0 77 -76 77q-41 0 -85.5 -37t-73.5 -124l-29 -275q-3 -22 -42 -22h-4q-38 0 -38 21q44 391 44 438q0 14 -0.5 23.5t-0.5 10.5q0 23 56 23q26 0 26 -67v-19q74 101 177 101
q132 0 132 -130q0 -8 -14.5 -144.5t-14.5 -147.5q0 -15 3 -24t9.5 -12t11 -4t12.5 -1q7 0 16 2.5t11 2.5zM242 -51q37 0 37 -28q0 -41 -46.5 -98.5t-73.5 -57.5t-27 15q0 11 28.5 56t28.5 81q0 14 12 23t32 9h9z" />
    <glyph glyph-name="Ncaron" unicode="&#x147;" horiz-adv-x="719" 
d="M509 901q22 0 22 -14q0 -8 -7 -18l-67 -88q-16 -22 -48 -22h-25q-32 0 -44 22l-46 88q-5 9 -5 18q2 14 25 14h2q20 0 33 -13l53 -74l71 74q16 13 34 13h2zM628 702q38 0 38 -22l-69 -660q-3 -22 -42 -22h-20q-26 0 -34 14l-284 498l-21 51l-57 -541q-3 -22 -42 -22h-7
q-38 0 -38 22l69 660q2 22 42 22h21q29 0 40 -19l275 -482l24 -56l56 535q2 22 42 22h7z" />
    <glyph glyph-name="ncaron" unicode="&#x148;" 
d="M238 604l-46 88q-5 9 -5 18q2 14 25 14h2q20 0 33 -13l53 -74l71 74q16 13 34 13h2q22 0 22 -14q0 -8 -7 -18l-67 -88q-16 -22 -48 -22h-25q-32 0 -44 22zM505 71q6 0 6 -7q0 -15 -4 -37q-3 -17 -22.5 -25t-37.5 -8q-90 0 -90 98q0 18 14 148.5t14 138.5q0 77 -76 77
q-41 0 -85.5 -37t-73.5 -124l-29 -275q-3 -22 -42 -22h-4q-38 0 -38 21q44 391 44 438q0 14 -0.5 23.5t-0.5 10.5q0 23 56 23q26 0 26 -67v-19q74 101 177 101q132 0 132 -130q0 -8 -14.5 -144.5t-14.5 -147.5q0 -15 3 -24t9.5 -12t11 -4t12.5 -1q7 0 16 2.5t11 2.5z" />
    <glyph glyph-name="napostrophe" unicode="&#x149;" 
d="M132 693q0 -41 -46.5 -98.5t-73.5 -57.5t-27 15q0 11 28.5 56t28.5 81q0 14 12 23t32 9h9q37 0 37 -28zM505 71q6 0 6 -7q0 -15 -4 -37q-3 -17 -22.5 -25t-37.5 -8q-90 0 -90 98q0 18 14 148.5t14 138.5q0 77 -76 77q-41 0 -85.5 -37t-73.5 -124l-29 -275q-3 -22 -42 -22
h-4q-38 0 -38 21q44 391 44 438q0 14 -0.5 23.5t-0.5 10.5q0 23 56 23q26 0 26 -67v-19q74 101 177 101q132 0 132 -130q0 -8 -14.5 -144.5t-14.5 -147.5q0 -15 3 -24t9.5 -12t11 -4t12.5 -1q7 0 16 2.5t11 2.5z" />
    <glyph glyph-name="Eng" unicode="&#x14a;" horiz-adv-x="719" 
d="M648 506v-3l-45 -430l-6 -53l-10 -94q-8 -78 -45.5 -108t-86.5 -30q-34 0 -56 11.5t-22 29.5q0 48 11 48q1 0 18 -8.5t38 -8.5q26 0 41 16t19 58l7 62l-294 514l-21 51l-57 -541q-3 -22 -42 -22h-7q-38 0 -38 22l69 660q2 22 42 22h21q29 0 40 -19l275 -482l24 -56
l56 535q2 22 42 22h7q38 0 38 -22z" />
    <glyph glyph-name="eng" unicode="&#x14b;" 
d="M339 529q132 0 132 -130l-49 -473q-8 -78 -45.5 -108t-86.5 -30q-34 0 -56 11.5t-22 29.5q0 48 11 48q1 0 18 -8.5t38 -8.5q26 0 41 16t19 58l46 446q0 76 -76 76q-41 0 -85.5 -37t-73.5 -124l-29 -275q-3 -22 -42 -22h-4q-38 0 -38 21q44 391 44 438q0 14 -0.5 23.5
t-0.5 10.5q0 23 56 23q26 0 26 -67v-19q74 101 177 101z" />
    <glyph glyph-name="Omacron" unicode="&#x14c;" horiz-adv-x="731" 
d="M519 860q17 0 17 -26q0 -45 -25 -45h-226q-17 0 -17 27q0 44 25 44h226zM402 706q135 0 205.5 -72.5t70.5 -213.5q0 -205 -94 -315.5t-257 -110.5q-134 0 -204 73t-70 215q0 66 11 125t36.5 114.5t64.5 96t100 64.5t137 24zM394 630q-116 0 -183 -87t-67 -252
q0 -109 48.5 -165t142.5 -56q115 0 183 88.5t68 251.5q0 109 -49 164.5t-143 55.5z" />
    <glyph glyph-name="omacron" unicode="&#x14d;" horiz-adv-x="569" 
d="M422 683q17 0 17 -26q0 -45 -25 -45h-226q-17 0 -17 27q0 44 25 44h226zM309 529q98 0 149.5 -55.5t51.5 -161.5q0 -153 -68.5 -235.5t-189.5 -82.5q-102 0 -154.5 55t-52.5 160q0 64 15 120t46 101.5t83 72t120 26.5zM298 457q-81 0 -124 -65t-43 -180q0 -146 126 -146
q80 0 123 62.5t43 181.5q0 75 -30.5 111t-94.5 36z" />
    <glyph glyph-name="Obreve" unicode="&#x14e;" horiz-adv-x="731" 
d="M549 892q14 0 14 -12q0 -55 -49.5 -86.5t-106.5 -31.5q-55 0 -94.5 27t-39.5 76q0 27 17 27q6 0 9.5 -2t4.5 -4.5t2.5 -8.5t3.5 -10q17 -39 104 -39q86 0 111 39q3 5 6 13t6.5 10t11.5 2zM402 706q135 0 205.5 -72.5t70.5 -213.5q0 -205 -94 -315.5t-257 -110.5
q-134 0 -204 73t-70 215q0 66 11 125t36.5 114.5t64.5 96t100 64.5t137 24zM394 630q-116 0 -183 -87t-67 -252q0 -109 48.5 -165t142.5 -56q115 0 183 88.5t68 251.5q0 109 -49 164.5t-143 55.5z" />
    <glyph glyph-name="obreve" unicode="&#x14f;" horiz-adv-x="569" 
d="M452 715q14 0 14 -12q0 -55 -49.5 -86.5t-106.5 -31.5q-55 0 -94.5 27t-39.5 76q0 27 17 27q6 0 9.5 -2t4.5 -4.5t2.5 -8.5t3.5 -10q17 -39 104 -39q86 0 111 39q3 5 6 13t6.5 10t11.5 2zM309 529q98 0 149.5 -55.5t51.5 -161.5q0 -153 -68.5 -235.5t-189.5 -82.5
q-102 0 -154.5 55t-52.5 160q0 64 15 120t46 101.5t83 72t120 26.5zM298 457q-81 0 -124 -65t-43 -180q0 -146 126 -146q80 0 123 62.5t43 181.5q0 75 -30.5 111t-94.5 36z" />
    <glyph glyph-name="Ohungarumlaut" unicode="&#x150;" horiz-adv-x="731" 
d="M436 909q47 0 47 -12q0 -9 -65 -76l-41 -41q-18 -18 -53 -18q-22 0 -22 9q0 12 69 112q18 26 65 26zM582 909q47 0 47 -12q0 -9 -65 -76l-41 -41q-18 -18 -53 -18q-22 0 -22 9q0 12 69 112q18 26 65 26zM402 706q135 0 205.5 -72.5t70.5 -213.5q0 -205 -94 -315.5
t-257 -110.5q-134 0 -204 73t-70 215q0 66 11 125t36.5 114.5t64.5 96t100 64.5t137 24zM394 630q-116 0 -183 -87t-67 -252q0 -109 48.5 -165t142.5 -56q115 0 183 88.5t68 251.5q0 109 -49 164.5t-143 55.5z" />
    <glyph glyph-name="ohungarumlaut" unicode="&#x151;" horiz-adv-x="569" 
d="M339 732q47 0 47 -12q0 -9 -65 -76l-41 -41q-18 -18 -53 -18q-22 0 -22 9q0 12 69 112q18 26 65 26zM485 732q47 0 47 -12q0 -9 -65 -76l-41 -41q-18 -18 -53 -18q-22 0 -22 9q0 12 69 112q18 26 65 26zM309 529q98 0 149.5 -55.5t51.5 -161.5q0 -153 -68.5 -235.5
t-189.5 -82.5q-102 0 -154.5 55t-52.5 160q0 64 15 120t46 101.5t83 72t120 26.5zM298 457q-81 0 -124 -65t-43 -180q0 -146 126 -146q80 0 123 62.5t43 181.5q0 75 -30.5 111t-94.5 36z" />
    <glyph glyph-name="OE" unicode="&#x152;" horiz-adv-x="1021" 
d="M1004 700q17 0 17 -22q0 -54 -25 -54h-295l-24 -228h264q17 0 17 -22q0 -54 -25 -54h-264l-25 -244h296q17 0 17 -22q0 -54 -25 -54h-354q-27 0 -27 24q0 6 5 49q-88 -79 -229 -79q-134 0 -204 73t-70 215q0 207 92.5 315.5t256.5 108.5q137 0 211 -77l5 41q3 30 33 30
h353zM335 70q115 0 183 88.5t68 251.5q0 109 -49 164.5t-143 55.5q-116 0 -183 -87t-67 -252q0 -109 48.5 -165t142.5 -56z" />
    <glyph glyph-name="oe" unicode="&#x153;" horiz-adv-x="871" 
d="M546 213q-49 0 -86 7v-10q0 -79 37.5 -111.5t108.5 -32.5q40 0 75 12t55.5 24.5t24.5 12.5q7 0 7 -12q0 -19 -5 -45q-6 -31 -62 -47.5t-102 -16.5q-119 0 -175 56q-62 -56 -166 -56q-102 0 -154.5 55t-52.5 160q0 64 15 120t46 101.5t83 72t120 26.5q97 0 155 -61
q69 61 178 61q85 0 126.5 -42.5t41.5 -90.5q0 -50 -22.5 -87t-62 -57t-85.5 -29.5t-100 -9.5zM263 66q77 0 120 58q-10 37 -10 77q0 115 41 194q-27 62 -110 62q-81 0 -124 -65t-43 -180q0 -146 126 -146zM639 457q-150 0 -174 -172h71q17 0 32 0.5t47.5 6t55 15.5t40.5 31
t18 50t-24.5 49t-65.5 20z" />
    <glyph glyph-name="Racute" unicode="&#x154;" horiz-adv-x="610" 
d="M401 909q47 0 47 -12q0 -9 -65 -76l-41 -41q-18 -18 -53 -18q-22 0 -22 9q0 12 69 112q18 26 65 26zM319 700q111 0 167.5 -36.5t56.5 -115.5q0 -72 -36 -121t-98 -73v-4q26 -10 42.5 -39.5t33.5 -85.5l58 -197q2 -8 2 -11q0 -19 -44 -19h-10q-35 0 -39 16l-55 196
q-16 57 -47 77.5t-92 20.5h-90l-30 -288q-3 -22 -42 -22h-8q-38 0 -38 22l68 650q3 30 33 30h168zM326 624h-125l-25 -240h132q59 0 100.5 42.5t41.5 98.5q0 50 -33 74.5t-91 24.5z" />
    <glyph glyph-name="racute" unicode="&#x155;" horiz-adv-x="366" 
d="M147 585q-22 0 -22 9q0 12 69 112q18 26 65 26t47 -12q0 -9 -65 -76l-41 -41q-18 -18 -53 -18zM319 529q50 0 50 -38q0 -18 -10 -37t-19 -19q-2 0 -13 5.5t-26 5.5q-39 0 -73 -42t-54 -116l-28 -268q-3 -22 -42 -22h-4q-38 0 -38 21l38 354q6 48 6 84q0 10 -0.5 20.5
t-0.5 13.5q0 23 56 23q27 0 27 -50q0 -12 -2 -36q23 47 58.5 74t74.5 27z" />
    <glyph glyph-name="Rcommaaccent" unicode="&#x156;" horiz-adv-x="610" 
d="M319 700q111 0 167.5 -36.5t56.5 -115.5q0 -72 -36 -121t-98 -73v-4q26 -10 42.5 -39.5t33.5 -85.5l58 -197q2 -8 2 -11q0 -19 -44 -19h-10q-35 0 -39 16l-55 196q-16 57 -47 77.5t-92 20.5h-90l-30 -288q-3 -22 -42 -22h-8q-38 0 -38 22l68 650q3 30 33 30h168zM326 624
h-125l-25 -240h132q59 0 100.5 42.5t41.5 98.5q0 50 -33 74.5t-91 24.5zM278 -51q37 0 37 -28q0 -41 -46.5 -98.5t-73.5 -57.5t-27 15q0 11 28.5 56t28.5 81q0 14 12 23t32 9h9z" />
    <glyph glyph-name="rcommaaccent" unicode="&#x157;" horiz-adv-x="366" 
d="M319 529q50 0 50 -38q0 -18 -10 -37t-19 -19q-2 0 -13 5.5t-26 5.5q-39 0 -73 -42t-54 -116l-28 -268q-3 -22 -42 -22h-4q-38 0 -38 21l38 354q6 48 6 84q0 10 -0.5 20.5t-0.5 13.5q0 23 56 23q27 0 27 -50q0 -12 -2 -36q23 47 58.5 74t74.5 27zM106 -51q37 0 37 -28
q0 -41 -46.5 -98.5t-73.5 -57.5t-27 15q0 11 28.5 56t28.5 81q0 14 12 23t32 9h9z" />
    <glyph glyph-name="Rcaron" unicode="&#x158;" horiz-adv-x="610" 
d="M423 901q22 0 22 -14q0 -8 -7 -18l-67 -88q-16 -22 -48 -22h-25q-32 0 -44 22l-46 88q-5 9 -5 18q2 14 25 14h2q20 0 33 -13l53 -74l71 74q16 13 34 13h2zM319 700q111 0 167.5 -36.5t56.5 -115.5q0 -72 -36 -121t-98 -73v-4q26 -10 42.5 -39.5t33.5 -85.5l58 -197
q2 -8 2 -11q0 -19 -44 -19h-10q-35 0 -39 16l-55 196q-16 57 -47 77.5t-92 20.5h-90l-30 -288q-3 -22 -42 -22h-8q-38 0 -38 22l68 650q3 30 33 30h168zM326 624h-125l-25 -240h132q59 0 100.5 42.5t41.5 98.5q0 50 -33 74.5t-91 24.5z" />
    <glyph glyph-name="rcaron" unicode="&#x159;" horiz-adv-x="366" 
d="M112 604l-46 88q-5 9 -5 18q2 14 25 14h2q20 0 33 -13l53 -74l71 74q16 13 34 13h2q22 0 22 -14q0 -8 -7 -18l-67 -88q-16 -22 -48 -22h-25q-32 0 -44 22zM319 529q50 0 50 -38q0 -18 -10 -37t-19 -19q-2 0 -13 5.5t-26 5.5q-39 0 -73 -42t-54 -116l-28 -268
q-3 -22 -42 -22h-4q-38 0 -38 21l38 354q6 48 6 84q0 10 -0.5 20.5t-0.5 13.5q0 23 56 23q27 0 27 -50q0 -12 -2 -36q23 47 58.5 74t74.5 27z" />
    <glyph glyph-name="Sacute" unicode="&#x15a;" horiz-adv-x="500" 
d="M396 909q47 0 47 -12q0 -9 -65 -76l-41 -41q-18 -18 -53 -18q-22 0 -22 9q0 12 69 112q18 26 65 26zM300 706q60 0 112 -18t52 -41q0 -13 -14 -34t-25 -21q-4 0 -17 7q-54 31 -108 31q-61 0 -102 -30.5t-41 -86.5q0 -26 8.5 -46t27.5 -35t35 -24t44 -22t37 -17t34 -17
t35 -21.5t27.5 -24.5t24.5 -31t13.5 -36t6.5 -45q0 -85 -64.5 -142.5t-188.5 -57.5q-66 0 -113.5 18.5t-47.5 61.5q0 47 19 47q4 0 26 -13q60 -38 133 -38q65 0 105 32.5t40 83.5q0 26 -10 45.5t-32.5 35.5t-36.5 23t-44 21q-29 13 -46.5 21.5t-43.5 26.5t-41 36.5
t-26.5 47.5t-11.5 63q0 90 66.5 145t166.5 55z" />
    <glyph glyph-name="sacute" unicode="&#x15b;" horiz-adv-x="413" 
d="M323 732q47 0 47 -12q0 -9 -65 -76l-41 -41q-18 -18 -53 -18q-22 0 -22 9q0 12 69 112q18 26 65 26zM233 529q44 0 85 -12t41 -34q0 -13 -13 -31.5t-21 -18.5q-6 0 -14 5q-38 19 -77 19q-43 0 -68 -18t-25 -49q0 -28 20 -45t71 -45q67 -36 95.5 -70.5t28.5 -79.5
q0 -67 -52.5 -111.5t-146.5 -44.5q-44 0 -77.5 10.5t-48 23.5t-14.5 25q0 13 10 32.5t16 19.5q3 0 15 -7q51 -32 103 -32q49 0 79 23.5t30 57.5q0 10 -2.5 19.5t-10 18t-12.5 14t-18 14t-18.5 12t-22.5 12.5t-22 12q-59 33 -85 64t-26 73q0 63 52 103t128 40z" />
    <glyph glyph-name="Scircumflex" unicode="&#x15c;" horiz-adv-x="500" 
d="M325 895q32 0 44 -22l47 -88q5 -8 5 -17q-2 -15 -26 -15h-2q-19 0 -32 13l-55 74l-69 -74q-16 -13 -35 -13h-2q-21 0 -21 12q0 9 7 20l66 88q16 22 48 22h25zM300 706q60 0 112 -18t52 -41q0 -13 -14 -34t-25 -21q-4 0 -17 7q-54 31 -108 31q-61 0 -102 -30.5t-41 -86.5
q0 -26 8.5 -46t27.5 -35t35 -24t44 -22t37 -17t34 -17t35 -21.5t27.5 -24.5t24.5 -31t13.5 -36t6.5 -45q0 -85 -64.5 -142.5t-188.5 -57.5q-66 0 -113.5 18.5t-47.5 61.5q0 47 19 47q4 0 26 -13q60 -38 133 -38q65 0 105 32.5t40 83.5q0 26 -10 45.5t-32.5 35.5t-36.5 23
t-44 21q-29 13 -46.5 21.5t-43.5 26.5t-41 36.5t-26.5 47.5t-11.5 63q0 90 66.5 145t166.5 55z" />
    <glyph glyph-name="scircumflex" unicode="&#x15d;" horiz-adv-x="413" 
d="M252 718q32 0 44 -22l47 -88q5 -8 5 -17q-2 -15 -26 -15h-2q-19 0 -32 13l-55 74l-69 -74q-16 -13 -35 -13h-2q-21 0 -21 12q0 9 7 20l66 88q16 22 48 22h25zM233 529q44 0 85 -12t41 -34q0 -13 -13 -31.5t-21 -18.5q-6 0 -14 5q-38 19 -77 19q-43 0 -68 -18t-25 -49
q0 -28 20 -45t71 -45q67 -36 95.5 -70.5t28.5 -79.5q0 -67 -52.5 -111.5t-146.5 -44.5q-44 0 -77.5 10.5t-48 23.5t-14.5 25q0 13 10 32.5t16 19.5q3 0 15 -7q51 -32 103 -32q49 0 79 23.5t30 57.5q0 10 -2.5 19.5t-10 18t-12.5 14t-18 14t-18.5 12t-22.5 12.5t-22 12
q-59 33 -85 64t-26 73q0 63 52 103t128 40z" />
    <glyph glyph-name="Scedilla" unicode="&#x15e;" horiz-adv-x="500" 
d="M272 386q28 -13 37 -17t34 -17t35 -21.5t27.5 -24.5t24.5 -31t13.5 -36t6.5 -45q0 -77 -53.5 -132t-156.5 -66l-18 -45h4q15 0 30 -3t31.5 -18.5t16.5 -40.5q0 -99 -125 -99q-12 0 -26 1.5t-31 5.5t-28.5 12.5t-11.5 21.5q0 33 12 33l10 -6q10 -6 28.5 -12.5t39.5 -6.5
q60 0 60 40q0 13 -9.5 20.5t-20.5 10t-20.5 8t-9.5 13.5q6 17 25 63q-66 0 -113.5 18.5t-47.5 61.5q0 47 19 47q4 0 26 -13q60 -38 133 -38q65 0 105 32.5t40 83.5q0 26 -10 45.5t-32.5 35.5t-36.5 23t-44 21q-29 13 -46.5 21.5t-43.5 26.5t-41 36.5t-26.5 47.5t-11.5 63
q0 90 66.5 145t166.5 55q60 0 112 -18t52 -41q0 -13 -14 -34t-25 -21q-4 0 -17 7q-54 31 -108 31q-61 0 -102 -30.5t-41 -86.5q0 -26 8.5 -46t27.5 -35t35 -24t44 -22z" />
    <glyph glyph-name="scedilla" unicode="&#x15f;" horiz-adv-x="413" 
d="M232 300q67 -36 95.5 -70.5t28.5 -79.5q0 -57 -38.5 -98.5t-109.5 -53.5l-19 -47h4q15 0 30 -3t31.5 -18.5t16.5 -40.5q0 -99 -125 -99q-12 0 -26 1.5t-31 5.5t-28.5 12.5t-11.5 21.5q0 33 12 33l10 -6q10 -6 28.5 -12.5t39.5 -6.5q60 0 60 40q0 13 -9.5 20.5t-20.5 10
t-20.5 8t-9.5 13.5q6 17 25 63h-7q-44 0 -77.5 10.5t-48 23.5t-14.5 25q0 13 10 32.5t16 19.5q3 0 15 -7q51 -32 103 -32q49 0 79 23.5t30 57.5q0 10 -2.5 19.5t-10 18t-12.5 14t-18 14t-18.5 12t-22.5 12.5t-22 12q-59 33 -85 64t-26 73q0 63 52 103t128 40q44 0 85 -12
t41 -34q0 -13 -13 -31.5t-21 -18.5q-6 0 -14 5q-38 19 -77 19q-43 0 -68 -18t-25 -49q0 -28 20 -45t71 -45z" />
    <glyph glyph-name="Scaron" unicode="&#x160;" horiz-adv-x="500" 
d="M418 901q22 0 22 -14q0 -8 -7 -18l-67 -88q-16 -22 -48 -22h-25q-32 0 -44 22l-46 88q-5 9 -5 18q2 14 25 14h2q20 0 33 -13l53 -74l71 74q16 13 34 13h2zM300 706q60 0 112 -18t52 -41q0 -13 -14 -34t-25 -21q-4 0 -17 7q-54 31 -108 31q-61 0 -102 -30.5t-41 -86.5
q0 -26 8.5 -46t27.5 -35t35 -24t44 -22t37 -17t34 -17t35 -21.5t27.5 -24.5t24.5 -31t13.5 -36t6.5 -45q0 -85 -64.5 -142.5t-188.5 -57.5q-66 0 -113.5 18.5t-47.5 61.5q0 47 19 47q4 0 26 -13q60 -38 133 -38q65 0 105 32.5t40 83.5q0 26 -10 45.5t-32.5 35.5t-36.5 23
t-44 21q-29 13 -46.5 21.5t-43.5 26.5t-41 36.5t-26.5 47.5t-11.5 63q0 90 66.5 145t166.5 55z" />
    <glyph glyph-name="scaron" unicode="&#x161;" horiz-adv-x="413" 
d="M345 724q22 0 22 -14q0 -8 -7 -18l-67 -88q-16 -22 -48 -22h-25q-32 0 -44 22l-46 88q-5 9 -5 18q2 14 25 14h2q20 0 33 -13l53 -74l71 74q16 13 34 13h2zM233 529q44 0 85 -12t41 -34q0 -13 -13 -31.5t-21 -18.5q-6 0 -14 5q-38 19 -77 19q-43 0 -68 -18t-25 -49
q0 -28 20 -45t71 -45q67 -36 95.5 -70.5t28.5 -79.5q0 -67 -52.5 -111.5t-146.5 -44.5q-44 0 -77.5 10.5t-48 23.5t-14.5 25q0 13 10 32.5t16 19.5q3 0 15 -7q51 -32 103 -32q49 0 79 23.5t30 57.5q0 10 -2.5 19.5t-10 18t-12.5 14t-18 14t-18.5 12t-22.5 12.5t-22 12
q-59 33 -85 64t-26 73q0 63 52 103t128 40z" />
    <glyph glyph-name="uni0162" unicode="&#x162;" horiz-adv-x="549" 
d="M545 700q17 0 17 -22q0 -54 -25 -54h-190l-63 -604q-3 -22 -42 -22h7l-20 -49h4q15 0 30 -3t31.5 -18.5t16.5 -40.5q0 -99 -125 -99q-12 0 -26 1.5t-31 5.5t-28.5 12.5t-11.5 21.5q0 33 12 33l10 -6q10 -6 28.5 -12.5t39.5 -6.5q60 0 60 40q0 13 -9.5 20.5t-20.5 10
t-20.5 8t-9.5 13.5q6 18 27 69h28q-38 0 -38 22l63 604h-194q-17 0 -17 22q0 54 25 54h472z" />
    <glyph glyph-name="uni0163" unicode="&#x163;" horiz-adv-x="342" 
d="M268 451h-64q-34 -308 -34 -328q0 -57 48 -57q18 0 31 3.5t14 3.5q7 0 7 -9q0 -16 -5 -37q-8 -33 -68 -33q-11 0 -16 1l-18 -44h4q15 0 30 -3t31.5 -18.5t16.5 -40.5q0 -99 -125 -99q-12 0 -26 1.5t-31 5.5t-28.5 12.5t-11.5 21.5q0 33 12 33l10 -6q10 -6 28.5 -12.5
t39.5 -6.5q60 0 60 40q0 13 -9.5 20.5t-20.5 10t-20.5 8t-9.5 13.5q6 18 27 69h12q-67 19 -67 104l35 347h-50q-17 0 -17 27q0 45 25 45h50l12 105q3 22 41 22h4q38 0 38 -22l-11 -105h85q16 0 16 -19q0 -5 -3 -16t-14 -24t-28 -13z" />
    <glyph glyph-name="Tcaron" unicode="&#x164;" horiz-adv-x="549" 
d="M423 901q22 0 22 -14q0 -8 -7 -18l-67 -88q-16 -22 -48 -22h-25q-32 0 -44 22l-46 88q-5 9 -5 18q2 14 25 14h2q20 0 33 -13l53 -74l71 74q16 13 34 13h2zM545 700q17 0 17 -22q0 -54 -25 -54h-190l-63 -604q-3 -22 -42 -22h-8q-38 0 -38 22l63 604h-194q-17 0 -17 22
q0 54 25 54h472z" />
    <glyph glyph-name="tcaron" unicode="&#x165;" horiz-adv-x="342" 
d="M345 752q37 0 37 -28q0 -36 -35.5 -86t-54.5 -50q-27 0 -27 15q0 10 13.5 48.5t13.5 68.5q0 14 12 23t32 9h9zM185 650q38 0 38 -22l-11 -105h85q16 0 16 -19q0 -5 -3 -16t-14 -24t-28 -13h-64q-34 -308 -34 -328q0 -57 48 -57q18 0 31 3.5t14 3.5q7 0 7 -9q0 -16 -5 -37
q-8 -33 -68 -33q-112 0 -112 110l35 347h-50q-17 0 -17 27q0 45 25 45h50l12 105q3 22 41 22h4z" />
    <glyph glyph-name="Tbar" unicode="&#x166;" horiz-adv-x="549" 
d="M545 700q17 0 17 -22q0 -54 -25 -54h-190l-25 -235h135q17 0 17 -26q0 -45 -25 -45h-134l-31 -298q-3 -22 -42 -22h-8q-38 0 -38 22l31 298h-144q-17 0 -17 27q0 44 25 44h143l25 235h-194q-17 0 -17 22q0 54 25 54h472z" />
    <glyph glyph-name="tbar" unicode="&#x167;" horiz-adv-x="342" 
d="M283 331q17 0 17 -26q0 -45 -25 -45h-92q-13 -124 -13 -137q0 -57 48 -57q18 0 31 3.5t14 3.5q7 0 7 -9q0 -16 -5 -37q-8 -33 -68 -33q-112 0 -112 110q0 10 14 156h-50q-17 0 -17 27q0 44 25 44h50l13 120h-50q-17 0 -17 27q0 45 25 45h50l12 105q3 22 41 22h4
q38 0 38 -22l-11 -105h85q16 0 16 -19q0 -5 -3 -16t-14 -24t-28 -13h-64l-13 -120h92z" />
    <glyph glyph-name="Utilde" unicode="&#x168;" horiz-adv-x="712" 
d="M312 867q31 0 91.5 -21.5t82.5 -21.5q26 0 44 29q13 19 30 12l8 -3q16 -6 7 -26q-30 -68 -91 -68q-33 0 -94 21.5t-83 21.5q-23 0 -42 -30q-7 -11 -12.5 -13.5t-15.5 1.5l-10 4q-14 6 -7 25q30 69 92 69zM623 702q37 0 37 -22l-48 -456q-11 -109 -88.5 -169.5
t-208.5 -60.5q-122 0 -186.5 52t-64.5 147q0 10 50 487q2 22 43 22h8q37 0 37 -22q-49 -464 -49 -474q0 -62 44 -99t126 -37q80 0 137 42.5t64 108.5l48 459q2 22 43 22h8z" />
    <glyph glyph-name="utilde" unicode="&#x169;" 
d="M140 596q-14 6 -7 25q30 69 92 69q31 0 91.5 -21.5t82.5 -21.5q26 0 44 29q13 19 30 12l8 -3q16 -6 7 -26q-30 -68 -91 -68q-33 0 -94 21.5t-83 21.5q-23 0 -42 -30q-7 -11 -12.5 -13.5t-15.5 1.5zM515 71q6 0 6 -7q0 -15 -4 -37q-3 -17 -22.5 -25t-37.5 -8q-90 0 -90 98
v10q-72 -108 -178 -108q-132 0 -132 130l38 379q3 22 42 22h4q38 0 38 -22q-36 -345 -36 -359q0 -77 76 -77q42 0 86.5 39t73.5 131l28 266q3 22 42 22h4q38 0 38 -22q-39 -366 -39 -396q0 -15 3 -24t9.5 -12t11 -4t12.5 -1q7 0 16 2.5t11 2.5z" />
    <glyph glyph-name="Umacron" unicode="&#x16a;" horiz-adv-x="712" 
d="M503 860q17 0 17 -26q0 -45 -25 -45h-226q-17 0 -17 27q0 44 25 44h226zM623 702q37 0 37 -22l-48 -456q-11 -109 -88.5 -169.5t-208.5 -60.5q-122 0 -186.5 52t-64.5 147q0 10 50 487q2 22 43 22h8q37 0 37 -22q-49 -464 -49 -474q0 -62 44 -99t126 -37q80 0 137 42.5
t64 108.5l48 459q2 22 43 22h8z" />
    <glyph glyph-name="umacron" unicode="&#x16b;" 
d="M182 612q-17 0 -17 27q0 44 25 44h226q17 0 17 -26q0 -45 -25 -45h-226zM515 71q6 0 6 -7q0 -15 -4 -37q-3 -17 -22.5 -25t-37.5 -8q-90 0 -90 98v10q-72 -108 -178 -108q-132 0 -132 130l38 379q3 22 42 22h4q38 0 38 -22q-36 -345 -36 -359q0 -77 76 -77q42 0 86.5 39
t73.5 131l28 266q3 22 42 22h4q38 0 38 -22q-39 -366 -39 -396q0 -15 3 -24t9.5 -12t11 -4t12.5 -1q7 0 16 2.5t11 2.5z" />
    <glyph glyph-name="Ubreve" unicode="&#x16c;" horiz-adv-x="712" 
d="M533 892q14 0 14 -12q0 -55 -49.5 -86.5t-106.5 -31.5q-55 0 -94.5 27t-39.5 76q0 27 17 27q6 0 9.5 -2t4.5 -4.5t2.5 -8.5t3.5 -10q17 -39 104 -39q86 0 111 39q3 5 6 13t6.5 10t11.5 2zM623 702q37 0 37 -22l-48 -456q-11 -109 -88.5 -169.5t-208.5 -60.5
q-122 0 -186.5 52t-64.5 147q0 10 50 487q2 22 43 22h8q37 0 37 -22q-49 -464 -49 -474q0 -62 44 -99t126 -37q80 0 137 42.5t64 108.5l48 459q2 22 43 22h8z" />
    <glyph glyph-name="ubreve" unicode="&#x16d;" 
d="M304 585q-55 0 -94.5 27t-39.5 76q0 27 17 27q6 0 9.5 -2t4.5 -4.5t2.5 -8.5t3.5 -10q17 -39 104 -39q86 0 111 39q3 5 6 13t6.5 10t11.5 2q14 0 14 -12q0 -55 -49.5 -86.5t-106.5 -31.5zM515 71q6 0 6 -7q0 -15 -4 -37q-3 -17 -22.5 -25t-37.5 -8q-90 0 -90 98v10
q-72 -108 -178 -108q-132 0 -132 130l38 379q3 22 42 22h4q38 0 38 -22q-36 -345 -36 -359q0 -77 76 -77q42 0 86.5 39t73.5 131l28 266q3 22 42 22h4q38 0 38 -22q-39 -366 -39 -396q0 -15 3 -24t9.5 -12t11 -4t12.5 -1q7 0 16 2.5t11 2.5z" />
    <glyph glyph-name="Uring" unicode="&#x16e;" horiz-adv-x="712" 
d="M395 910q33 0 54.5 -22t21.5 -54q0 -38 -27.5 -65.5t-65.5 -27.5q-33 0 -54.5 21.5t-21.5 54.5q0 38 28 65.5t65 27.5zM392 875q-22 0 -38.5 -16t-16.5 -38q0 -20 12 -32.5t32 -12.5q23 0 39 16t16 39q0 19 -12.5 31.5t-31.5 12.5zM623 702q37 0 37 -22l-48 -456
q-11 -109 -88.5 -169.5t-208.5 -60.5q-122 0 -186.5 52t-64.5 147q0 10 50 487q2 22 43 22h8q37 0 37 -22q-49 -464 -49 -474q0 -62 44 -99t126 -37q80 0 137 42.5t64 108.5l48 459q2 22 43 22h8z" />
    <glyph glyph-name="uring" unicode="&#x16f;" 
d="M291 564q-33 0 -54.5 21.5t-21.5 54.5q0 38 28 65.5t65 27.5q33 0 54.5 -22t21.5 -54q0 -38 -27.5 -65.5t-65.5 -27.5zM305 698q-22 0 -38.5 -16t-16.5 -38q0 -20 12 -32.5t32 -12.5q23 0 39 16t16 39q0 19 -12.5 31.5t-31.5 12.5zM515 71q6 0 6 -7q0 -15 -4 -37
q-3 -17 -22.5 -25t-37.5 -8q-90 0 -90 98v10q-72 -108 -178 -108q-132 0 -132 130l38 379q3 22 42 22h4q38 0 38 -22q-36 -345 -36 -359q0 -77 76 -77q42 0 86.5 39t73.5 131l28 266q3 22 42 22h4q38 0 38 -22q-39 -366 -39 -396q0 -15 3 -24t9.5 -12t11 -4t12.5 -1
q7 0 16 2.5t11 2.5z" />
    <glyph glyph-name="Uhungarumlaut" unicode="&#x170;" horiz-adv-x="712" 
d="M420 909q47 0 47 -12q0 -9 -65 -76l-41 -41q-18 -18 -53 -18q-22 0 -22 9q0 12 69 112q18 26 65 26zM566 909q47 0 47 -12q0 -9 -65 -76l-41 -41q-18 -18 -53 -18q-22 0 -22 9q0 12 69 112q18 26 65 26zM623 702q37 0 37 -22l-48 -456q-11 -109 -88.5 -169.5
t-208.5 -60.5q-122 0 -186.5 52t-64.5 147q0 10 50 487q2 22 43 22h8q37 0 37 -22q-49 -464 -49 -474q0 -62 44 -99t126 -37q80 0 137 42.5t64 108.5l48 459q2 22 43 22h8z" />
    <glyph glyph-name="uhungarumlaut" unicode="&#x171;" 
d="M221 585q-22 0 -22 9q0 12 69 112q18 26 65 26t47 -12q0 -9 -65 -76l-41 -41q-18 -18 -53 -18zM367 585q-22 0 -22 9q0 12 69 112q18 26 65 26t47 -12q0 -9 -65 -76l-41 -41q-18 -18 -53 -18zM515 71q6 0 6 -7q0 -15 -4 -37q-3 -17 -22.5 -25t-37.5 -8q-90 0 -90 98v10
q-72 -108 -178 -108q-132 0 -132 130l38 379q3 22 42 22h4q38 0 38 -22q-36 -345 -36 -359q0 -77 76 -77q42 0 86.5 39t73.5 131l28 266q3 22 42 22h4q38 0 38 -22q-39 -366 -39 -396q0 -15 3 -24t9.5 -12t11 -4t12.5 -1q7 0 16 2.5t11 2.5z" />
    <glyph glyph-name="Uogonek" unicode="&#x172;" horiz-adv-x="712" 
d="M623 702q37 0 37 -22l-48 -456q-9 -89 -63.5 -146.5t-148.5 -75.5q0 -7 -9.5 -31.5t-9.5 -40.5q0 -43 58 -43q18 0 40 9t24 9q6 0 6 -13q0 -75 -89 -75q-62 0 -85 27t-23 62q0 54 30 89q-9 -1 -27 -1q-122 0 -186.5 52t-64.5 147q0 10 50 487q2 22 43 22h8q37 0 37 -22
q-49 -464 -49 -474q0 -62 44 -99t126 -37q80 0 137 42.5t64 108.5l48 459q2 22 43 22h8z" />
    <glyph glyph-name="uogonek" unicode="&#x173;" 
d="M590 -95q6 0 6 -13q0 -75 -89 -75q-62 0 -85 27t-23 62q0 18 8 45.5t24 44.5q-64 14 -64 96v10q-72 -108 -178 -108q-132 0 -132 130l38 379q3 22 42 22h4q38 0 38 -22q-36 -345 -36 -359q0 -77 76 -77q42 0 86.5 39t73.5 131l28 266q3 22 42 22h4q38 0 38 -22
q-39 -366 -39 -396q0 -15 3 -24t9.5 -12t11 -4t12.5 -1q7 0 16 2.5t11 2.5q6 0 6 -7q0 -15 -4 -37q-4 -19 -30 -28q-1 -5 -10 -29.5t-9 -39.5q0 -43 58 -43q18 0 40 9t24 9z" />
    <glyph glyph-name="Wcircumflex" unicode="&#x174;" horiz-adv-x="882" 
d="M506 895q32 0 44 -22l47 -88q5 -8 5 -17q-2 -15 -26 -15h-2q-19 0 -32 13l-55 74l-69 -74q-16 -13 -35 -13h-2q-21 0 -21 12q0 9 7 20l66 88q16 22 48 22h25zM860 702q42 0 42 -16q0 -4 -247 -672q-5 -16 -41 -16h-41q-36 0 -39 16l-66 407l-7 130l-35 -130l-151 -407
q-7 -16 -41 -16h-41q-36 0 -39 16l-105 668q0 20 45 20h9q36 0 39 -16l76 -492q8 -54 8 -93l35 98l172 486q5 17 40 17h16q35 0 38 -17l72 -492l7 -92l35 100l172 485q5 16 41 16h6z" />
    <glyph glyph-name="wcircumflex" unicode="&#x175;" horiz-adv-x="747" 
d="M419 718q32 0 44 -22l47 -88q5 -8 5 -17q-2 -15 -26 -15h-2q-19 0 -32 13l-55 74l-69 -74q-16 -13 -35 -13h-2q-21 0 -21 12q0 9 7 20l66 88q16 22 48 22h25zM694 525q42 0 42 -15q0 -7 -4 -16l-185 -480q-7 -16 -41 -16h-33q-35 0 -38 16l-53 364l-133 -364
q-5 -16 -41 -16h-33q-36 0 -39 16q-85 490 -85 494q2 17 45 17h9q36 0 39 -16l63 -399l145 398q7 17 41 17h11q34 0 37 -17l64 -398l146 399q5 16 43 16z" />
    <glyph glyph-name="Ycircumflex" unicode="&#x176;" horiz-adv-x="559" 
d="M345 895q32 0 44 -22l47 -88q5 -8 5 -17q-2 -15 -26 -15h-2q-19 0 -32 13l-55 74l-69 -74q-16 -13 -35 -13h-2q-21 0 -21 12q0 9 7 20l66 88q16 22 48 22h25zM531 702h9q36 -1 36 -16q0 -5 -10 -19l-243 -311l-35 -336q-3 -22 -42 -22h-8q-38 0 -38 22l35 339l-176 308
q-6 9 -6 16q0 19 47 19h11q33 0 42 -15l138 -246l194 247q10 14 46 14z" />
    <glyph glyph-name="ycircumflex" unicode="&#x177;" horiz-adv-x="481" 
d="M296 718q32 0 44 -22l47 -88q5 -8 5 -17q-2 -15 -26 -15h-2q-19 0 -32 13l-55 74l-69 -74q-16 -13 -35 -13h-2q-21 0 -21 12q0 9 7 20l66 88q16 22 48 22h25zM447 525q38 0 38 -16q0 -6 -4 -15l-329 -681q-10 -21 -49 -21h-15q-31 0 -31 15q0 5 7 18l105 203
q-128 474 -128 480q0 17 45 17h8q34 0 38 -16l77 -282l21 -79h2q15 37 35 79l134 282q8 16 43 16h3z" />
    <glyph glyph-name="Ydieresis" unicode="&#x178;" horiz-adv-x="559" 
d="M265 879q38 0 38 -22l-5 -51q-3 -22 -46 -22q-38 0 -38 22l5 51q3 22 46 22zM409 879q38 0 38 -22l-5 -51q-3 -22 -46 -22q-38 0 -38 22l5 51q2 22 46 22zM531 702h9q36 -1 36 -16q0 -5 -10 -19l-243 -311l-35 -336q-3 -22 -42 -22h-8q-38 0 -38 22l35 339l-176 308
q-6 9 -6 16q0 19 47 19h11q33 0 42 -15l138 -246l194 247q10 14 46 14z" />
    <glyph glyph-name="Zacute" unicode="&#x179;" horiz-adv-x="616" 
d="M434 909q47 0 47 -12q0 -9 -65 -76l-41 -41q-18 -18 -53 -18q-22 0 -22 9q0 12 69 112q18 26 65 26zM585 700q5 0 11 -16.5t6 -31.5q0 -12 -5 -17l-468 -559h392q17 0 17 -22q0 -54 -25 -54h-488q-7 0 -13 16.5t-6 31.5q0 12 5 17l468 559h-361q-17 0 -17 22q0 54 25 54
h459z" />
    <glyph glyph-name="zacute" unicode="&#x17a;" horiz-adv-x="489" 
d="M371 732q47 0 47 -12q0 -9 -65 -76l-41 -41q-18 -18 -53 -18q-22 0 -22 9q0 12 69 112q18 26 65 26zM455 523q6 0 10.5 -16t4.5 -32q0 -10 -4 -14l-332 -389h275q17 0 17 -27q0 -45 -25 -45h-370q-5 0 -11 15.5t-6 30.5q0 11 5 16l333 389h-256q-17 0 -17 27q0 45 25 45
h351z" />
    <glyph glyph-name="Zdotaccent" unicode="&#x17b;" horiz-adv-x="616" 
d="M355 879q38 0 38 -22l-5 -51q-3 -22 -46 -22q-38 0 -38 22l5 51q3 22 46 22zM585 700q5 0 11 -16.5t6 -31.5q0 -12 -5 -17l-468 -559h392q17 0 17 -22q0 -54 -25 -54h-488q-7 0 -13 16.5t-6 31.5q0 12 5 17l468 559h-361q-17 0 -17 22q0 54 25 54h459z" />
    <glyph glyph-name="zdotaccent" unicode="&#x17c;" horiz-adv-x="489" 
d="M292 702q38 0 38 -22l-5 -51q-3 -22 -46 -22q-38 0 -38 22l5 51q3 22 46 22zM455 523q6 0 10.5 -16t4.5 -32q0 -10 -4 -14l-332 -389h275q17 0 17 -27q0 -45 -25 -45h-370q-5 0 -11 15.5t-6 30.5q0 11 5 16l333 389h-256q-17 0 -17 27q0 45 25 45h351z" />
    <glyph glyph-name="Zcaron" unicode="&#x17d;" horiz-adv-x="616" 
d="M456 901q22 0 22 -14q0 -8 -7 -18l-67 -88q-16 -22 -48 -22h-25q-32 0 -44 22l-46 88q-5 9 -5 18q2 14 25 14h2q20 0 33 -13l53 -74l71 74q16 13 34 13h2zM585 700q5 0 11 -16.5t6 -31.5q0 -12 -5 -17l-468 -559h392q17 0 17 -22q0 -54 -25 -54h-488q-7 0 -13 16.5
t-6 31.5q0 12 5 17l468 559h-361q-17 0 -17 22q0 54 25 54h459z" />
    <glyph glyph-name="zcaron" unicode="&#x17e;" horiz-adv-x="489" 
d="M393 724q22 0 22 -14q0 -8 -7 -18l-67 -88q-16 -22 -48 -22h-25q-32 0 -44 22l-46 88q-5 9 -5 18q2 14 25 14h2q20 0 33 -13l53 -74l71 74q16 13 34 13h2zM455 523q6 0 10.5 -16t4.5 -32q0 -10 -4 -14l-332 -389h275q17 0 17 -27q0 -45 -25 -45h-370q-5 0 -11 15.5
t-6 30.5q0 11 5 16l333 389h-256q-17 0 -17 27q0 45 25 45h351z" />
    <glyph glyph-name="longs" unicode="&#x17f;" horiz-adv-x="325" 
d="M278 756q71 0 71 -31q0 -10 -9 -29t-17 -19q-1 0 -6 1.5t-15.5 3.5t-23.5 2q-26 0 -41 -14t-19 -56l-62 -594q-3 -22 -42 -22h-4q-38 0 -38 22l45 431h-40q-17 0 -17 27q0 45 25 45h40l10 101q13 132 143 132z" />
    <glyph glyph-name="uni018F" unicode="&#x18f;" horiz-adv-x="672" 
d="M346 706q266 0 266 -262q0 -92 -19 -171t-56.5 -142t-101.5 -99t-148 -36q-57 0 -101.5 19t-68.5 49.5t-36 62.5t-12 62q0 67 26.5 116t73.5 76t101.5 39t118.5 12q82 0 136 -7q0 119 -46.5 164t-139.5 45q-43 0 -83.5 -11t-64 -23.5t-42.5 -23.5t-25 -11q-7 0 -7 12
q0 19 5 45q10 40 85.5 62t138.5 22zM520 360h-121q-18 0 -32.5 -1t-47 -5t-57.5 -14.5t-51 -27.5t-40.5 -46.5t-14.5 -68.5q0 -53 38.5 -91t101.5 -38q190 0 224 292z" />
    <glyph glyph-name="florin" unicode="&#x192;" horiz-adv-x="332" 
d="M276 756q70 0 70 -30q0 -9 -10 -29t-18 -20q-1 0 -6 1.5t-15.5 3.5t-23.5 2q-26 0 -41 -14t-21 -56l-12 -91h87q15 0 15 -19q0 -5 -3.5 -16t-15 -24t-28.5 -13h-66l-89 -637q-3 -22 -43 -22h-4q-37 0 -37 22l89 637h-40q-16 0 -16 27q0 45 27 45h40l13 101
q17 132 148 132z" />
    <glyph glyph-name="Ohorn" unicode="&#x1a0;" horiz-adv-x="731" 
d="M584 655q94 -71 94 -235q0 -205 -94 -315.5t-257 -110.5q-134 0 -204 73t-70 215q0 66 11 125t36.5 114.5t64.5 96t100 64.5t137 24q78 0 134 -24h2q59 0 59 40q0 13 -10.5 31.5t-10.5 23.5q0 10 11 16l26 16q5 4 12 4q16 0 25.5 -21.5t9.5 -45.5q0 -31 -20 -56t-56 -35z
M335 70q115 0 183 88.5t68 251.5q0 109 -49 164.5t-143 55.5q-116 0 -183 -87t-67 -252q0 -109 48.5 -165t142.5 -56z" />
    <glyph glyph-name="ohorn" unicode="&#x1a1;" horiz-adv-x="569" 
d="M550 569q0 -34 -24.5 -61t-67.5 -34q52 -55 52 -162q0 -153 -68.5 -235.5t-189.5 -82.5q-102 0 -154.5 55t-52.5 160q0 64 15 120t46 101.5t83 72t120 26.5q64 0 109 -24h10q59 0 59 40q0 13 -10.5 31.5t-10.5 23.5q0 10 11 16l26 16q5 4 12 4q16 0 25.5 -21.5t9.5 -45.5
zM257 66q80 0 123 62.5t43 181.5q0 75 -30.5 111t-94.5 36q-81 0 -124 -65t-43 -180q0 -146 126 -146z" />
    <glyph glyph-name="Uhorn" unicode="&#x1af;" horiz-adv-x="712" 
d="M772 766q0 -38 -30.5 -66t-82.5 -31l-47 -445q-11 -109 -88.5 -169.5t-208.5 -60.5q-122 0 -186.5 52t-64.5 147q0 10 50 487q2 22 43 22h8q37 0 37 -22q-49 -464 -49 -474q0 -62 44 -99t126 -37q80 0 137 42.5t64 108.5l48 459q2 22 43 22h35q59 0 59 40
q0 13 -10.5 31.5t-10.5 23.5q0 10 11 16l26 16q5 4 12 4q16 0 25.5 -21.5t9.5 -45.5z" />
    <glyph glyph-name="uhorn" unicode="&#x1b0;" 
d="M601 589q0 -38 -30 -66t-81 -31q-38 -326 -38 -385q0 -15 3 -24t9.5 -12t11 -4t12.5 -1q7 0 16 2.5t11 2.5q6 0 6 -7q0 -15 -4 -37q-3 -17 -22.5 -25t-37.5 -8q-90 0 -90 98v10q-72 -108 -178 -108q-132 0 -132 130l38 379q3 22 42 22h4q38 0 38 -22q-36 -345 -36 -359
q0 -77 76 -77q42 0 86.5 39t73.5 131l28 266q3 21 37 22h35q59 0 59 40q0 13 -10.5 31.5t-10.5 23.5q0 10 11 16l26 16q5 4 12 4q16 0 25.5 -21.5t9.5 -45.5z" />
    <glyph glyph-name="uni01C4" unicode="&#x1c4;" horiz-adv-x="1311" 
d="M1151 901q22 0 22 -14q0 -8 -7 -18l-67 -88q-16 -22 -48 -22h-25q-32 0 -44 22l-46 88q-5 9 -5 18q2 14 25 14h2q20 0 33 -13l53 -74l71 74q16 13 34 13h2zM365 700q127 0 202.5 -68.5t75.5 -216.5q0 -112 -29 -195t-80 -129.5t-111 -68.5t-131 -22h-215q-27 0 -27 24
q0 6 11.5 116.5t29.5 278.5t26 251q3 30 33 30h215zM1280 700q5 0 11 -16.5t6 -31.5q0 -12 -5 -17l-468 -559h392q17 0 17 -22q0 -54 -25 -54h-488q-7 0 -13 16.5t-6 31.5q0 12 5 17l468 559h-361q-17 0 -17 22q0 54 25 54h459zM350 624h-150l-57 -548h150q109 0 184 79.5
t75 245.5q0 118 -54.5 170.5t-147.5 52.5z" />
    <glyph glyph-name="uni01C5" unicode="&#x1c5;" horiz-adv-x="1184" 
d="M1088 724q22 0 22 -14q0 -8 -7 -18l-67 -88q-16 -22 -48 -22h-25q-32 0 -44 22l-46 88q-5 9 -5 18q2 14 25 14h2q20 0 33 -13l53 -74l71 74q16 13 34 13h2zM365 700q127 0 202.5 -68.5t75.5 -216.5q0 -112 -29 -195t-80 -129.5t-111 -68.5t-131 -22h-215q-27 0 -27 24
q0 6 11.5 116.5t29.5 278.5t26 251q3 30 33 30h215zM350 624h-150l-57 -548h150q109 0 184 79.5t75 245.5q0 118 -54.5 170.5t-147.5 52.5zM1150 523q6 0 10.5 -16t4.5 -32q0 -10 -4 -14l-332 -389h275q17 0 17 -27q0 -45 -25 -45h-370q-5 0 -11 15.5t-6 30.5q0 11 5 16
l333 389h-256q-17 0 -17 27q0 45 25 45h351z" />
    <glyph glyph-name="uni01C6" unicode="&#x1c6;" horiz-adv-x="1054" 
d="M538 71q6 0 6 -7q0 -15 -4 -37q-3 -17 -22.5 -25t-37.5 -8q-90 0 -90 98v10q-58 -108 -161 -108q-31 0 -61 10t-60 32.5t-48.5 67t-18.5 106.5q0 141 69 230t182 89q82 0 136 -45l27 246q3 22 42 22h4q38 0 38 -22q-64 -593 -64 -623q0 -15 3 -24t9.5 -12t11 -4t12.5 -1
q7 0 16 2.5t11 2.5zM789 604l-46 88q-5 9 -5 18q2 14 25 14h2q20 0 33 -13l53 -74l71 74q16 13 34 13h2q22 0 22 -14q0 -8 -7 -18l-67 -88q-16 -22 -48 -22h-25q-32 0 -44 22zM1035 475q0 -10 -4 -14l-332 -389h275q17 0 17 -27q0 -45 -25 -45h-370q-5 0 -11 15.5t-6 30.5
q0 11 5 16l333 389h-256q-17 0 -17 27q0 45 25 45h351q6 0 10.5 -16t4.5 -32zM402 234l19 184q-48 38 -117 38q-50 0 -85.5 -20t-54 -55.5t-27 -76t-8.5 -88.5q0 -82 30 -115.5t89 -33.5q41 0 83 39t71 128z" />
    <glyph glyph-name="uni01C7" unicode="&#x1c7;" horiz-adv-x="718" 
d="M168 702q38 0 38 -22l-63 -604h207q17 0 17 -22q0 -54 -25 -54h-265q-16 0 -21.5 7t-5.5 23l68 650q2 22 42 22h8zM619 702q38 0 38 -22l-66 -628q-22 -211 -227 -211q-88 0 -88 32q0 59 15 59q1 0 21.5 -4.5t44.5 -4.5q69 0 103.5 30t41.5 95l67 632q2 22 42 22h8z" />
    <glyph glyph-name="uni01C8" unicode="&#x1c8;" horiz-adv-x="760" 
d="M678 752q38 0 38 -22l-6 -59q0 -22 -38 -22h-12q-42 0 -42 22l6 59q3 22 42 22h12zM168 702q38 0 38 -22l-63 -604h291q17 0 17 -22q0 -54 -25 -54h-349q-16 0 -21.5 7t-5.5 23l68 650q2 22 42 22h8zM650 525q38 0 38 -22l-61 -577q-8 -78 -45.5 -108t-86.5 -30
q-34 0 -56 11.5t-22 29.5q0 48 11 48q1 0 18 -8.5t38 -8.5q26 0 41 16t19 58l60 569q3 22 42 22h4z" />
    <glyph glyph-name="uni01C9" unicode="&#x1c9;" horiz-adv-x="573" 
d="M187 752q38 0 38 -22q-64 -593 -64 -623q0 -15 3 -24t9.5 -12t11 -4t12.5 -1q7 0 16 2.5t11 2.5q6 0 6 -7q0 -15 -4 -37q-3 -17 -22.5 -25t-37.5 -8q-90 0 -90 98q0 20 16 178.5t32 309.5l17 150q3 22 42 22h4zM491 752q38 0 38 -22l-6 -59q0 -22 -38 -22h-12
q-42 0 -42 22l6 59q3 22 42 22h12zM463 525q38 0 38 -22l-61 -577q-8 -78 -45.5 -108t-86.5 -30q-34 0 -56 11.5t-22 29.5q0 48 11 48q1 0 18 -8.5t38 -8.5q26 0 41 16t19 58l60 569q3 22 42 22h4z" />
    <glyph glyph-name="uni01CA" unicode="&#x1ca;" horiz-adv-x="1121" 
d="M628 702q38 0 38 -22l-69 -660q-3 -22 -42 -22h-20q-26 0 -34 14l-284 498l-21 51l-57 -541q-3 -22 -42 -22h-7q-38 0 -38 22l69 660q2 22 42 22h21q29 0 40 -19l275 -482l24 -56l56 535q2 22 42 22h7zM1035 702q38 0 38 -22l-50 -475q-22 -211 -227 -211q-88 0 -88 32
q0 59 15 59q1 0 21.5 -4.5t44.5 -4.5q69 0 103.5 30t41.5 95l51 479q2 22 42 22h8z" />
    <glyph glyph-name="uni01CB" unicode="&#x1cb;" horiz-adv-x="995" 
d="M913 752q38 0 38 -22l-6 -59q0 -22 -38 -22h-12q-42 0 -42 22l6 59q3 22 42 22h12zM628 702q38 0 38 -22l-69 -660q-3 -22 -42 -22h-20q-26 0 -34 14l-284 498l-21 51l-57 -541q-3 -22 -42 -22h-7q-38 0 -38 22l69 660q2 22 42 22h21q29 0 40 -19l275 -482l24 -56l56 535
q2 22 42 22h7zM885 525q38 0 38 -22l-61 -577q-8 -78 -45.5 -108t-86.5 -30q-34 0 -56 11.5t-22 29.5q0 48 11 48q1 0 18 -8.5t38 -8.5q26 0 41 16t19 58l60 569q3 22 42 22h4z" />
    <glyph glyph-name="uni01CC" unicode="&#x1cc;" horiz-adv-x="833" 
d="M751 752q38 0 38 -22l-6 -59q0 -22 -38 -22h-12q-42 0 -42 22l6 59q3 22 42 22h12zM507 27q-3 -17 -22.5 -25t-37.5 -8q-90 0 -90 98q0 18 14 148.5t14 138.5q0 77 -76 77q-41 0 -85.5 -37t-73.5 -124l-29 -275q-3 -22 -42 -22h-4q-38 0 -38 21q44 391 44 438
q0 14 -0.5 23.5t-0.5 10.5q0 23 56 23q26 0 26 -67v-19q74 101 177 101q132 0 132 -130q0 -8 -14.5 -144.5t-14.5 -147.5q0 -15 3 -24t9.5 -12t11 -4t12.5 -1q7 0 16 2.5t11 2.5q6 0 6 -7q0 -15 -4 -37zM723 525q38 0 38 -22l-61 -577q-8 -78 -45.5 -108t-86.5 -30
q-34 0 -56 11.5t-22 29.5q0 48 11 48q1 0 18 -8.5t38 -8.5q26 0 41 16t19 58l60 569q3 22 42 22h4z" />
    <glyph glyph-name="uni01EA" unicode="&#x1ea;" horiz-adv-x="731" 
d="M678 420q0 -180 -72.5 -287.5t-202.5 -131.5q0 -6 -9.5 -31t-9.5 -40q0 -43 58 -43q18 0 40 9t24 9q6 0 6 -13q0 -75 -89 -75q-62 0 -85 27t-23 62q0 54 30 88h-18q-134 0 -204 73t-70 215q0 66 11 125t36.5 114.5t64.5 96t100 64.5t137 24q135 0 205.5 -72.5
t70.5 -213.5zM144 291q0 -109 48.5 -165t142.5 -56q115 0 183 88.5t68 251.5q0 109 -49 164.5t-143 55.5q-116 0 -183 -87t-67 -252z" />
    <glyph glyph-name="uni01EB" unicode="&#x1eb;" horiz-adv-x="569" 
d="M510 312q0 -133 -51.5 -213t-145.5 -99q-1 -5 -10 -29.5t-9 -40.5q0 -43 58 -43q18 0 40 9t24 9q6 0 6 -13q0 -75 -89 -75q-62 0 -85 27t-23 62q0 54 30 88h-3q-102 0 -154.5 55t-52.5 160q0 64 15 120t46 101.5t83 72t120 26.5q98 0 149.5 -55.5t51.5 -161.5zM131 212
q0 -146 126 -146q80 0 123 62.5t43 181.5q0 75 -30.5 111t-94.5 36q-81 0 -124 -65t-43 -180z" />
    <glyph glyph-name="uni01F1" unicode="&#x1f1;" horiz-adv-x="1311" 
d="M365 700q127 0 202.5 -68.5t75.5 -216.5q0 -112 -29 -195t-80 -129.5t-111 -68.5t-131 -22h-215q-27 0 -27 24q0 6 11.5 116.5t29.5 278.5t26 251q3 30 33 30h215zM1280 700q5 0 11 -16.5t6 -31.5q0 -12 -5 -17l-468 -559h392q17 0 17 -22q0 -54 -25 -54h-488
q-7 0 -13 16.5t-6 31.5q0 12 5 17l468 559h-361q-17 0 -17 22q0 54 25 54h459zM350 624h-150l-57 -548h150q109 0 184 79.5t75 245.5q0 118 -54.5 170.5t-147.5 52.5z" />
    <glyph glyph-name="uni01F2" unicode="&#x1f2;" horiz-adv-x="1184" 
d="M365 700q127 0 202.5 -68.5t75.5 -216.5q0 -112 -29 -195t-80 -129.5t-111 -68.5t-131 -22h-215q-27 0 -27 24q0 6 11.5 116.5t29.5 278.5t26 251q3 30 33 30h215zM350 624h-150l-57 -548h150q109 0 184 79.5t75 245.5q0 118 -54.5 170.5t-147.5 52.5zM1150 523
q6 0 10.5 -16t4.5 -32q0 -10 -4 -14l-332 -389h275q17 0 17 -27q0 -45 -25 -45h-370q-5 0 -11 15.5t-6 30.5q0 11 5 16l333 389h-256q-17 0 -17 27q0 45 25 45h351z" />
    <glyph glyph-name="uni01F3" unicode="&#x1f3;" horiz-adv-x="1054" 
d="M538 71q6 0 6 -7q0 -15 -4 -37q-3 -17 -22.5 -25t-37.5 -8q-90 0 -90 98v10q-58 -108 -161 -108q-31 0 -61 10t-60 32.5t-48.5 67t-18.5 106.5q0 141 69 230t182 89q82 0 136 -45l27 246q3 22 42 22h4q38 0 38 -22q-64 -593 -64 -623q0 -15 3 -24t9.5 -12t11 -4t12.5 -1
q7 0 16 2.5t11 2.5zM1035 475q0 -10 -4 -14l-332 -389h275q17 0 17 -27q0 -45 -25 -45h-370q-5 0 -11 15.5t-6 30.5q0 11 5 16l333 389h-256q-17 0 -17 27q0 45 25 45h351q6 0 10.5 -16t4.5 -32zM402 234l19 184q-48 38 -117 38q-50 0 -85.5 -20t-54 -55.5t-27 -76
t-8.5 -88.5q0 -82 30 -115.5t89 -33.5q41 0 83 39t71 128z" />
    <glyph glyph-name="Aringacute" unicode="&#x1fa;" horiz-adv-x="613" 
d="M353 822q-22 0 -22 10q4 7 45 71q17 26 65 26q17 0 26.5 -1t14.5 -4t5 -8t-27 -28q-9 -8 -14.5 -13t-17 -15t-22.5 -20q-18 -18 -53 -18zM564 28q1 -4 1 -10q0 -20 -44 -20h-8q-35 0 -39 16l-42 164h-294l-74 -164q-7 -16 -41 -16h-5q-41 0 -41 16q0 5 5 15l292 630
q-11 17 -11 41q0 38 28 65.5t65 27.5q33 0 54.5 -22t21.5 -54q0 -36 -27 -65zM353 758q-22 0 -38.5 -16t-16.5 -38q0 -20 12 -32.5t32 -12.5q23 0 39 16t16 39q0 19 -12.5 31.5t-31.5 12.5zM174 254h239l-73 298q-6 23 -6 58h-2q-12 -37 -21 -58z" />
    <glyph glyph-name="aringacute" unicode="&#x1fb;" horiz-adv-x="545" 
d="M287 775q-22 0 -22 9q0 12 69 112q18 26 65 26t47 -12q0 -9 -65 -76l-41 -41q-18 -18 -53 -18zM275 564q-33 0 -54.5 21.5t-21.5 54.5q0 38 28 65.5t65 27.5q33 0 54.5 -22t21.5 -54q0 -38 -27.5 -65.5t-65.5 -27.5zM289 698q-22 0 -38.5 -16t-16.5 -38q0 -20 12 -32.5
t32 -12.5q23 0 39 16t16 39q0 19 -12.5 31.5t-31.5 12.5zM511 71q6 0 6 -7q0 -15 -4 -37q-3 -17 -22.5 -25t-37.5 -8q-90 0 -90 98v10q-57 -108 -156 -108q-27 0 -54 10t-53.5 32.5t-43 67t-16.5 106.5q0 141 67 230t178 89q70 0 127 -54q6 19 10 27t13 15.5t22 7.5h6
q25 0 25 -21q-40 -370 -40 -397q0 -15 3 -24t9.5 -12t11 -4t12.5 -1q7 0 16 2.5t11 2.5zM389 367q2 18 8 50q-49 39 -104 39q-166 0 -166 -240q0 -149 99 -149q40 0 81 39.5t69 129.5z" />
    <glyph glyph-name="AEacute" unicode="&#x1fc;" horiz-adv-x="915" 
d="M554 909q47 0 47 -12q0 -9 -65 -76l-41 -41q-18 -18 -53 -18q-22 0 -22 9q0 12 69 112q18 26 65 26zM842 700q17 0 17 -22q0 -54 -25 -54h-366l26 -228h285q17 0 17 -22q0 -54 -25 -54h-269l28 -244h248q17 0 17 -22q0 -54 -25 -54h-292q-30 0 -33 29l-16 149h-295
l-97 -164q-10 -16 -41 -16h-5q-38 0 -38 15q0 7 6 18l388 642q16 27 45 27h450zM389 610h-2l-27 -58l-180 -299h239l-30 299v58z" />
    <glyph glyph-name="aeacute" unicode="&#x1fd;" horiz-adv-x="829" 
d="M399 585q-22 0 -22 9q0 12 69 112q18 26 65 26t47 -12q0 -9 -65 -76l-41 -41q-18 -18 -53 -18zM504 226h-86v-16q0 -79 37.5 -111.5t108.5 -32.5q40 0 75 12t55.5 24.5t24.5 12.5q7 0 7 -12q0 -19 -5 -45q-6 -31 -62 -47.5t-102 -16.5q-126 0 -182 64q-35 -28 -87.5 -46
t-102.5 -18q-71 0 -113.5 32.5t-42.5 96.5q0 53 26.5 88.5t75.5 52.5t96 23.5t112 8.5q12 66 44 118q-21 43 -98 43q-40 0 -77.5 -10.5t-59 -21t-23.5 -10.5q-10 0 -20 19t-10 30q0 21 61.5 43t133.5 22q104 0 150 -51q67 51 166 51q86 0 127 -41.5t41 -91.5
q0 -47 -22.5 -81.5t-62 -53t-85.5 -27t-100 -8.5zM597 457q-143 0 -172 -159h69q20 0 44 2.5t62 10t62.5 27.5t24.5 50q0 32 -24 50.5t-66 18.5zM197 67q73 0 146 50q-12 36 -12 84v25q-211 0 -211 -94q0 -65 77 -65z" />
    <glyph glyph-name="Oslashacute" unicode="&#x1fe;" horiz-adv-x="731" 
d="M462 909q47 0 47 -12q0 -9 -65 -76l-41 -41q-18 -18 -53 -18q-22 0 -22 9q0 12 69 112q18 26 65 26zM402 706q136 0 205 -72l62 61q7 7 14 7t13 -6l2 -2q5 -5 5 -11q0 -7 -7 -14l-65 -65q47 -70 47 -184q0 -205 -94 -315.5t-257 -110.5q-150 0 -219 90l-75 -75
q-8 -8 -14 -8t-12 6l-2 2q-6 6 -6 12t8 14l81 81q-35 67 -35 166q0 66 11 125t36.5 114.5t64.5 96t100 64.5t137 24zM394 630q-116 0 -183 -87t-67 -252q0 -60 15 -104l383 381q-50 62 -148 62zM562 536l-387 -386q47 -80 160 -80q115 0 183 88.5t68 251.5q0 76 -24 126z
" />
    <glyph glyph-name="oslashacute" unicode="&#x1ff;" horiz-adv-x="569" 
d="M269 585q-22 0 -22 9q0 12 69 112q18 26 65 26t47 -12q0 -9 -65 -76l-41 -41q-18 -18 -53 -18zM542 501q0 -4 -5 -11l-49 -50q28 -50 28 -128q0 -153 -68.5 -235.5t-189.5 -82.5q-99 0 -151 51l-38 -39q-6 -6 -10 -6q-5 0 -11 6l-5 5q-6 6 -6 11q0 6 5 11l41 42
q-32 49 -32 134q0 64 15 120t46 101.5t83 72t120 26.5q99 0 151 -57l44 45q4 6 10 6q5 0 11 -6l5 -5q6 -6 6 -11zM304 457q-81 0 -124 -65t-43 -180q0 -42 9 -71l260 269q-30 47 -102 47zM263 66q80 0 123 62.5t43 181.5q0 37 -7 61l-257 -266q32 -39 98 -39z" />
    <glyph glyph-name="Scommaaccent" unicode="&#x218;" horiz-adv-x="500" 
d="M300 706q60 0 112 -18t52 -41q0 -13 -14 -34t-25 -21q-4 0 -17 7q-54 31 -108 31q-61 0 -102 -30.5t-41 -86.5q0 -26 8.5 -46t27.5 -35t35 -24t44 -22t37 -17t34 -17t35 -21.5t27.5 -24.5t24.5 -31t13.5 -36t6.5 -45q0 -85 -64.5 -142.5t-188.5 -57.5q-66 0 -113.5 18.5
t-47.5 61.5q0 47 19 47q4 0 26 -13q60 -38 133 -38q65 0 105 32.5t40 83.5q0 26 -10 45.5t-32.5 35.5t-36.5 23t-44 21q-29 13 -46.5 21.5t-43.5 26.5t-41 36.5t-26.5 47.5t-11.5 63q0 90 66.5 145t166.5 55zM223 -51q37 0 37 -28q0 -41 -46.5 -98.5t-73.5 -57.5t-27 15
q0 11 28.5 56t28.5 81q0 14 12 23t32 9h9z" />
    <glyph glyph-name="scommaaccent" unicode="&#x219;" horiz-adv-x="413" 
d="M233 529q44 0 85 -12t41 -34q0 -13 -13 -31.5t-21 -18.5q-6 0 -14 5q-38 19 -77 19q-43 0 -68 -18t-25 -49q0 -28 20 -45t71 -45q67 -36 95.5 -70.5t28.5 -79.5q0 -67 -52.5 -111.5t-146.5 -44.5q-44 0 -77.5 10.5t-48 23.5t-14.5 25q0 13 10 32.5t16 19.5q3 0 15 -7
q51 -32 103 -32q49 0 79 23.5t30 57.5q0 10 -2.5 19.5t-10 18t-12.5 14t-18 14t-18.5 12t-22.5 12.5t-22 12q-59 33 -85 64t-26 73q0 63 52 103t128 40zM190 -51q37 0 37 -28q0 -41 -46.5 -98.5t-73.5 -57.5t-27 15q0 11 28.5 56t28.5 81q0 14 12 23t32 9h9z" />
    <glyph glyph-name="uni021A" unicode="&#x21a;" horiz-adv-x="549" 
d="M545 700q17 0 17 -22q0 -54 -25 -54h-190l-63 -604q-3 -22 -42 -22h-8q-38 0 -38 22l63 604h-194q-17 0 -17 22q0 54 25 54h472zM230 -53q37 0 37 -28q0 -41 -46.5 -98.5t-73.5 -57.5t-27 15q0 11 28.5 56t28.5 81q0 14 12 23t32 9h9z" />
    <glyph glyph-name="uni021B" unicode="&#x21b;" horiz-adv-x="342" 
d="M185 650q38 0 38 -22l-11 -105h85q16 0 16 -19q0 -5 -3 -16t-14 -24t-28 -13h-64q-34 -308 -34 -328q0 -57 48 -57q18 0 31 3.5t14 3.5q7 0 7 -9q0 -16 -5 -37q-8 -33 -68 -33q-112 0 -112 110l35 347h-50q-17 0 -17 27q0 45 25 45h50l12 105q3 22 41 22h4zM164 -51
q37 0 37 -28q0 -41 -46.5 -98.5t-73.5 -57.5t-27 15q0 11 28.5 56t28.5 81q0 14 12 23t32 9h9z" />
    <glyph glyph-name="uni0237" unicode="&#x237;" horiz-adv-x="276" 
d="M166 525q38 0 38 -22l-61 -577q-8 -78 -45.5 -108t-86.5 -30q-34 0 -56 11.5t-22 29.5q0 48 11 48q1 0 18 -8.5t38 -8.5q26 0 41 16t19 58l60 569q3 22 42 22h4z" />
    <glyph glyph-name="uni0259" unicode="&#x259;" horiz-adv-x="539" 
d="M267 529q226 0 226 -207q0 -145 -68 -236.5t-207 -91.5q-85 0 -126.5 42.5t-41.5 90.5q0 50 22.5 87t62 57t85.5 29.5t100 9.5q49 0 86 -7v10q0 79 -37.5 111.5t-108.5 32.5q-40 0 -75 -12.5t-55.5 -24.5t-24.5 -12q-7 0 -7 12q0 19 5 45q6 31 62 47.5t102 16.5zM227 66
q150 0 174 172h-71q-17 0 -32 -0.5t-47.5 -6t-55 -15.5t-40.5 -31t-18 -50t24.5 -49t65.5 -20z" />
    <glyph glyph-name="uni02BC" unicode="&#x2bc;" horiz-adv-x="200" 
d="M177 721q37 0 37 -28q0 -41 -46.5 -98.5t-73.5 -57.5t-27 15q0 11 28.5 56t28.5 81q0 14 12 23t32 9h9z" />
    <glyph glyph-name="circumflex" unicode="&#x2c6;" horiz-adv-x="320" 
d="M176 718q32 0 44 -22l47 -88q5 -8 5 -17q-2 -15 -26 -15h-2q-19 0 -32 13l-55 74l-69 -74q-16 -13 -35 -13h-2q-21 0 -21 12q0 9 7 20l66 88q16 22 48 22h25z" />
    <glyph glyph-name="caron" unicode="&#x2c7;" horiz-adv-x="320" 
d="M260 724q22 0 22 -14q0 -8 -7 -18l-67 -88q-16 -22 -48 -22h-25q-32 0 -44 22l-46 88q-5 9 -5 18q2 14 25 14h2q20 0 33 -13l53 -74l71 74q16 13 34 13h2z" />
    <glyph glyph-name="uni02C9" unicode="&#x2c9;" horiz-adv-x="320" 
d="M314 683q17 0 17 -26q0 -45 -25 -45h-226q-17 0 -17 27q0 44 25 44h226z" />
    <glyph glyph-name="breve" unicode="&#x2d8;" horiz-adv-x="320" 
d="M293 715q14 0 14 -12q0 -55 -49.5 -86.5t-106.5 -31.5q-55 0 -94.5 27t-39.5 76q0 27 17 27q6 0 9.5 -2t4.5 -4.5t2.5 -8.5t3.5 -10q17 -39 104 -39q86 0 111 39q3 5 6 13t6.5 10t11.5 2z" />
    <glyph glyph-name="dotaccent" unicode="&#x2d9;" horiz-adv-x="320" 
d="M168 702q38 0 38 -22l-5 -51q-3 -22 -46 -22q-38 0 -38 22l5 51q3 22 46 22z" />
    <glyph glyph-name="ring" unicode="&#x2da;" horiz-adv-x="320" 
d="M168 733q33 0 54.5 -22t21.5 -54q0 -38 -27.5 -65.5t-65.5 -27.5q-33 0 -54.5 21.5t-21.5 54.5q0 38 28 65.5t65 27.5zM165 698q-22 0 -38.5 -16t-16.5 -38q0 -20 12 -32.5t32 -12.5q23 0 39 16t16 39q0 19 -12.5 31.5t-31.5 12.5z" />
    <glyph glyph-name="ogonek" unicode="&#x2db;" horiz-adv-x="320" 
d="M125 14q16 0 16 -12q0 -7 -9.5 -31.5t-9.5 -40.5q0 -43 58 -43q18 0 40 9t24 9q6 0 6 -13q0 -75 -89 -75q-62 0 -85 27t-23 62q0 17 5 39.5t23 45.5t44 23z" />
    <glyph glyph-name="tilde" unicode="&#x2dc;" horiz-adv-x="365" 
d="M136 690q31 0 91.5 -21.5t82.5 -21.5q26 0 44 29q13 19 30 12l8 -3q16 -6 7 -26q-30 -68 -91 -68q-33 0 -94 21.5t-83 21.5q-23 0 -42 -30q-7 -11 -12.5 -13.5t-15.5 1.5l-10 4q-14 6 -7 25q30 69 92 69z" />
    <glyph glyph-name="hungarumlaut" unicode="&#x2dd;" horiz-adv-x="384" 
d="M186 732q47 0 47 -12q0 -9 -65 -76l-41 -41q-18 -18 -53 -18q-22 0 -22 9q0 12 69 112q18 26 65 26zM332 732q47 0 47 -12q0 -9 -65 -76l-41 -41q-18 -18 -53 -18q-22 0 -22 9q0 12 69 112q18 26 65 26z" />
    <glyph glyph-name="gravecomb" unicode="&#x300;" horiz-adv-x="0" 
d="M-35 732q47 0 62 -26q58 -99 58 -112q0 -9 -23 -9q-36 0 -51 18q-88 100 -92 109q-2 4 -2 8q1 12 48 12z" />
    <glyph glyph-name="acutecomb" unicode="&#x301;" horiz-adv-x="0" 
d="M134 732q47 0 47 -12q0 -9 -65 -76l-41 -41q-18 -18 -53 -18q-22 0 -22 9q0 12 69 112q18 26 65 26z" />
    <glyph glyph-name="uni0302" unicode="&#x302;" horiz-adv-x="0" 
d="M62 718q32 0 44 -22l47 -88q5 -8 5 -17q-2 -15 -26 -15h-2q-19 0 -32 13l-55 74l-69 -74q-16 -13 -35 -13h-2q-21 0 -21 12q0 9 7 20l66 88q16 22 48 22h25z" />
    <glyph glyph-name="tildecomb" unicode="&#x303;" horiz-adv-x="0" 
d="M-13 690q31 0 91.5 -21.5t82.5 -21.5q26 0 44 29q13 19 30 12l8 -3q16 -6 7 -26q-30 -68 -91 -68q-33 0 -94 21.5t-83 21.5q-23 0 -42 -30q-7 -11 -12.5 -13.5t-15.5 1.5l-10 4q-14 6 -7 25q30 69 92 69z" />
    <glyph glyph-name="uni0304" unicode="&#x304;" horiz-adv-x="0" 
d="M157 683q17 0 17 -26q0 -45 -25 -45h-226q-17 0 -17 27q0 44 25 44h226z" />
    <glyph glyph-name="uni0306" unicode="&#x306;" horiz-adv-x="0" 
d="M182 715q14 0 14 -12q0 -55 -49.5 -86.5t-106.5 -31.5q-55 0 -94.5 27t-39.5 76q0 27 17 27q6 0 9.5 -2t4.5 -4.5t2.5 -8.5t3.5 -10q17 -39 104 -39q86 0 111 39q3 5 6 13t6.5 10t11.5 2z" />
    <glyph glyph-name="uni0307" unicode="&#x307;" horiz-adv-x="0" 
d="M45 702q38 0 38 -22l-5 -51q-3 -22 -46 -22q-38 0 -38 22l5 51q3 22 46 22z" />
    <glyph glyph-name="uni0308" unicode="&#x308;" horiz-adv-x="0" 
d="M-22 702q38 0 38 -22l-5 -51q-3 -22 -46 -22q-38 0 -38 22l5 51q3 22 46 22zM122 702q38 0 38 -22l-5 -51q-3 -22 -46 -22q-38 0 -38 22l5 51q2 22 46 22z" />
    <glyph glyph-name="hookabovecomb" unicode="&#x309;" horiz-adv-x="0" 
d="M-228 674q0 25 -34 25q-14 0 -24.5 -3.5t-16.5 -6.5t-7 -3q-6 0 -13 12.5t-7 20.5q0 10 27.5 20.5t53.5 10.5q32 0 59.5 -17t27.5 -53q0 -24 -14 -47.5t-32 -37.5t-33 -23t-20 -9q-16 0 -27.5 5t-11.5 12q0 11 18 23.5t36 30.5t18 40z" />
    <glyph glyph-name="uni030A" unicode="&#x30a;" horiz-adv-x="0" 
d="M50 733q33 0 54.5 -22t21.5 -54q0 -38 -27.5 -65.5t-65.5 -27.5q-33 0 -54.5 21.5t-21.5 54.5q0 38 28 65.5t65 27.5zM47 698q-22 0 -38.5 -16t-16.5 -38q0 -20 12 -32.5t32 -12.5q23 0 39 16t16 39q0 19 -12.5 31.5t-31.5 12.5z" />
    <glyph glyph-name="uni030B" unicode="&#x30b;" horiz-adv-x="0" 
d="M47 732q47 0 47 -12q0 -9 -65 -76l-41 -41q-18 -18 -53 -18q-22 0 -22 9q0 12 69 112q18 26 65 26zM193 732q47 0 47 -12q0 -9 -65 -76l-41 -41q-18 -18 -53 -18q-22 0 -22 9q0 12 69 112q18 26 65 26z" />
    <glyph glyph-name="uni030C" unicode="&#x30c;" horiz-adv-x="0" 
d="M146 724q22 0 22 -14q0 -8 -7 -18l-67 -88q-16 -22 -48 -22h-25q-32 0 -44 22l-46 88q-5 9 -5 18q2 14 25 14h2q20 0 33 -13l53 -74l71 74q16 13 34 13h2z" />
    <glyph glyph-name="dotbelowcomb" unicode="&#x323;" horiz-adv-x="0" 
d="M-35 -80q38 0 38 -22l-5 -51q-3 -22 -46 -22q-38 0 -38 22l5 51q3 22 46 22z" />
    <glyph glyph-name="uni0326" unicode="&#x326;" horiz-adv-x="0" 
d="M-191 -51q37 0 37 -28q0 -41 -46.5 -98.5t-73.5 -57.5t-27 15q0 11 28.5 56t28.5 81q0 14 12 23t32 9h9z" />
    <glyph glyph-name="uni0327" unicode="&#x327;" horiz-adv-x="0" 
d="M-18 -49q15 0 30 -3t31.5 -18.5t16.5 -40.5q0 -99 -125 -99q-12 0 -26 1.5t-31 5.5t-28.5 12.5t-11.5 21.5q0 33 12 33l10 -6q10 -6 28.5 -12.5t39.5 -6.5q60 0 60 40q0 13 -9.5 20.5t-20.5 10t-20.5 8t-9.5 13.5q6 18 27 69h43l-20 -49h4z" />
    <glyph glyph-name="Delta" unicode="&#x394;" horiz-adv-x="708" 
d="M404 710q25 0 32 -23l198 -620q5 -17 5 -27v-2q0 -38 -34 -38h-579q-26 0 -26 25v2q0 21 11 40l329 620q12 23 38 23h26zM382 619h-5l-292 -551h471z" />
    <glyph glyph-name="Omega" unicode="&#x3a9;" horiz-adv-x="731" 
d="M402 706q135 0 205 -71.5t70 -212.5q0 -246 -136 -358q72 4 98 4q17 0 17 -20q0 -48 -25 -48h-237q-17 0 -17 19q0 30 11 33q92 22 144.5 113t52.5 247q0 108 -48.5 163t-142.5 55q-119 0 -185 -90t-66 -261q0 -191 136 -227q6 -2 6 -9q0 -43 -21 -43h-241q-17 0 -17 19
q0 49 25 49q8 0 96 -4q-75 76 -75 222q0 204 93.5 312t256.5 108z" />
    <glyph glyph-name="mu" unicode="&#x3bc;" horiz-adv-x="566" 
d="M540 71q6 0 6 -7q0 -15 -4 -37q-3 -17 -22.5 -25t-37.5 -8q-90 0 -90 98v10q-72 -108 -178 -108q-30 0 -61 9l-20 -189q-3 -22 -42 -22h-4q-38 0 -38 21l71 690q3 22 42 22h4q38 0 38 -22q-36 -345 -36 -359q0 -77 76 -77q42 0 86.5 39t73.5 131l28 266q3 22 42 22h4
q38 0 38 -22q-39 -366 -39 -396q0 -15 3 -24t9.5 -12t11 -4t12.5 -1q7 0 16 2.5t11 2.5z" />
    <glyph glyph-name="pi" unicode="&#x3c0;" horiz-adv-x="616" 
d="M595 523q22 0 22 -15q0 -5 -1 -11.5t-4 -18t-12 -19.5t-22 -8h-56q-7 -66 -15 -141.5t-12 -109.5t-6.5 -66.5t-2.5 -51.5q0 -8 0.5 -24.5t0.5 -24.5q0 -35 -23 -35h-28q-19 0 -27 13.5t-8 44.5q0 40 3 75l34 320h-194q-17 -101 -51 -227.5t-67 -200.5q-11 -25 -37 -25
h-23q-26 0 -26 19q0 2 1.5 6t1.5 5q36 82 69 202t48 221q-46 0 -75.5 -4.5t-31.5 -4.5q-18 0 -18 26q0 31 37 43t117 12h406z" />
    <glyph glyph-name="uni1E0C" unicode="&#x1e0c;" horiz-adv-x="695" 
d="M365 700q127 0 202.5 -68.5t75.5 -216.5q0 -112 -29 -195t-80 -129.5t-111 -68.5t-131 -22h-215q-27 0 -27 24q0 6 11.5 116.5t29.5 278.5t26 251q3 30 33 30h215zM350 624h-150l-57 -548h150q109 0 184 79.5t75 245.5q0 118 -54.5 170.5t-147.5 52.5zM283 -80
q38 0 38 -22l-5 -51q-3 -22 -46 -22q-38 0 -38 22l5 51q3 22 46 22z" />
    <glyph glyph-name="uni1E0D" unicode="&#x1e0d;" horiz-adv-x="565" 
d="M538 71q6 0 6 -7q0 -15 -4 -37q-3 -17 -22.5 -25t-37.5 -8q-90 0 -90 98v10q-58 -108 -161 -108q-31 0 -61 10t-60 32.5t-48.5 67t-18.5 106.5q0 141 69 230t182 89q82 0 136 -45l27 246q3 22 42 22h4q38 0 38 -22q-64 -593 -64 -623q0 -15 3 -24t9.5 -12t11 -4t12.5 -1
q7 0 16 2.5t11 2.5zM402 234l19 184q-48 38 -117 38q-50 0 -85.5 -20t-54 -55.5t-27 -76t-8.5 -88.5q0 -82 30 -115.5t89 -33.5q41 0 83 39t71 128zM253 -80q38 0 38 -22l-5 -51q-3 -22 -46 -22q-38 0 -38 22l5 51q3 22 46 22z" />
    <glyph glyph-name="uni1E24" unicode="&#x1e24;" horiz-adv-x="733" 
d="M631 702q38 0 38 -22l-69 -660q-3 -22 -42 -22h-8q-38 0 -38 22l31 301h-362l-31 -301q-3 -22 -42 -22h-8q-38 0 -38 22l69 660q2 22 42 22h8q38 0 38 -22l-30 -283h362l30 283q2 22 42 22h8zM341 -78q38 0 38 -22l-5 -51q-3 -22 -46 -22q-38 0 -38 22l5 51q3 22 46 22z
" />
    <glyph glyph-name="uni1E25" unicode="&#x1e25;" horiz-adv-x="565" 
d="M175 752q38 0 38 -22l-32 -298q72 97 175 97q132 0 132 -130q0 -8 -14.5 -144.5t-14.5 -147.5q0 -15 3 -24t9.5 -12t11 -4t12.5 -1q7 0 16 2.5t11 2.5q6 0 6 -7q0 -15 -4 -37q-3 -17 -22.5 -25t-37.5 -8q-90 0 -90 98q0 18 14 148.5t14 138.5q0 77 -76 77
q-41 0 -85 -36.5t-74 -122.5l-29 -277q-3 -22 -42 -22h-4q-38 0 -38 21l75 711q3 22 42 22h4zM263 -80q38 0 38 -22l-5 -51q-3 -22 -46 -22q-38 0 -38 22l5 51q3 22 46 22z" />
    <glyph glyph-name="uni1E44" unicode="&#x1e44;" horiz-adv-x="719" 
d="M408 879q38 0 38 -22l-5 -51q-3 -22 -46 -22q-38 0 -38 22l5 51q3 22 46 22zM628 702q38 0 38 -22l-69 -660q-3 -22 -42 -22h-20q-26 0 -34 14l-284 498l-21 51l-57 -541q-3 -22 -42 -22h-7q-38 0 -38 22l69 660q2 22 42 22h21q29 0 40 -19l275 -482l24 -56l56 535
q2 22 42 22h7z" />
    <glyph glyph-name="uni1E45" unicode="&#x1e45;" 
d="M293 607q-38 0 -38 22l5 51q3 22 46 22q38 0 38 -22l-5 -51q-3 -22 -46 -22zM505 71q6 0 6 -7q0 -15 -4 -37q-3 -17 -22.5 -25t-37.5 -8q-90 0 -90 98q0 18 14 148.5t14 138.5q0 77 -76 77q-41 0 -85.5 -37t-73.5 -124l-29 -275q-3 -22 -42 -22h-4q-38 0 -38 21
q44 391 44 438q0 14 -0.5 23.5t-0.5 10.5q0 23 56 23q26 0 26 -67v-19q74 101 177 101q132 0 132 -130q0 -8 -14.5 -144.5t-14.5 -147.5q0 -15 3 -24t9.5 -12t11 -4t12.5 -1q7 0 16 2.5t11 2.5z" />
    <glyph glyph-name="uni1E5A" unicode="&#x1e5a;" horiz-adv-x="610" 
d="M319 700q111 0 167.5 -36.5t56.5 -115.5q0 -72 -36 -121t-98 -73v-4q26 -10 42.5 -39.5t33.5 -85.5l58 -197q2 -8 2 -11q0 -19 -44 -19h-10q-35 0 -39 16l-55 196q-16 57 -47 77.5t-92 20.5h-90l-30 -288q-3 -22 -42 -22h-8q-38 0 -38 22l68 650q3 30 33 30h168zM326 624
h-125l-25 -240h132q59 0 100.5 42.5t41.5 98.5q0 50 -33 74.5t-91 24.5zM267 -80q38 0 38 -22l-5 -51q-3 -22 -46 -22q-38 0 -38 22l5 51q3 22 46 22z" />
    <glyph glyph-name="uni1E5B" unicode="&#x1e5b;" horiz-adv-x="366" 
d="M319 529q50 0 50 -38q0 -18 -10 -37t-19 -19q-2 0 -13 5.5t-26 5.5q-39 0 -73 -42t-54 -116l-28 -268q-3 -22 -42 -22h-4q-38 0 -38 21l38 354q6 48 6 84q0 10 -0.5 20.5t-0.5 13.5q0 23 56 23q27 0 27 -50q0 -12 -2 -36q23 47 58.5 74t74.5 27zM95 -80q38 0 38 -22
l-5 -51q-3 -22 -46 -22q-38 0 -38 22l5 51q3 22 46 22z" />
    <glyph glyph-name="uni1E62" unicode="&#x1e62;" horiz-adv-x="500" 
d="M300 706q60 0 112 -18t52 -41q0 -13 -14 -34t-25 -21q-4 0 -17 7q-54 31 -108 31q-61 0 -102 -30.5t-41 -86.5q0 -26 8.5 -46t27.5 -35t35 -24t44 -22t37 -17t34 -17t35 -21.5t27.5 -24.5t24.5 -31t13.5 -36t6.5 -45q0 -85 -64.5 -142.5t-188.5 -57.5q-66 0 -113.5 18.5
t-47.5 61.5q0 47 19 47q4 0 26 -13q60 -38 133 -38q65 0 105 32.5t40 83.5q0 26 -10 45.5t-32.5 35.5t-36.5 23t-44 21q-29 13 -46.5 21.5t-43.5 26.5t-41 36.5t-26.5 47.5t-11.5 63q0 90 66.5 145t166.5 55zM212 -80q38 0 38 -22l-5 -51q-3 -22 -46 -22q-38 0 -38 22l5 51
q3 22 46 22z" />
    <glyph glyph-name="uni1E63" unicode="&#x1e63;" horiz-adv-x="413" 
d="M233 529q44 0 85 -12t41 -34q0 -13 -13 -31.5t-21 -18.5q-6 0 -14 5q-38 19 -77 19q-43 0 -68 -18t-25 -49q0 -28 20 -45t71 -45q67 -36 95.5 -70.5t28.5 -79.5q0 -67 -52.5 -111.5t-146.5 -44.5q-44 0 -77.5 10.5t-48 23.5t-14.5 25q0 13 10 32.5t16 19.5q3 0 15 -7
q51 -32 103 -32q49 0 79 23.5t30 57.5q0 10 -2.5 19.5t-10 18t-12.5 14t-18 14t-18.5 12t-22.5 12.5t-22 12q-59 33 -85 64t-26 73q0 63 52 103t128 40zM179 -80q38 0 38 -22l-5 -51q-3 -22 -46 -22q-38 0 -38 22l5 51q3 22 46 22z" />
    <glyph glyph-name="uni1E6C" unicode="&#x1e6c;" horiz-adv-x="549" 
d="M545 700q17 0 17 -22q0 -54 -25 -54h-190l-63 -604q-3 -22 -42 -22h-8q-38 0 -38 22l63 604h-194q-17 0 -17 22q0 54 25 54h472zM219 -82q38 0 38 -22l-5 -51q-3 -22 -46 -22q-38 0 -38 22l5 51q3 22 46 22z" />
    <glyph glyph-name="uni1E6D" unicode="&#x1e6d;" horiz-adv-x="342" 
d="M185 650q38 0 38 -22l-11 -105h85q16 0 16 -19q0 -5 -3 -16t-14 -24t-28 -13h-64q-34 -308 -34 -328q0 -57 48 -57q18 0 31 3.5t14 3.5q7 0 7 -9q0 -16 -5 -37q-8 -33 -68 -33q-112 0 -112 110l35 347h-50q-17 0 -17 27q0 45 25 45h50l12 105q3 22 41 22h4zM153 -80
q38 0 38 -22l-5 -51q-3 -22 -46 -22q-38 0 -38 22l5 51q3 22 46 22z" />
    <glyph glyph-name="Wgrave" unicode="&#x1e80;" horiz-adv-x="882" 
d="M410 909q47 0 62 -26q58 -99 58 -112q0 -9 -23 -9q-36 0 -51 18q-88 100 -92 109q-2 4 -2 8q1 12 48 12zM860 702q42 0 42 -16q0 -4 -247 -672q-5 -16 -41 -16h-41q-36 0 -39 16l-66 407l-7 130l-35 -130l-151 -407q-7 -16 -41 -16h-41q-36 0 -39 16l-105 668q0 20 45 20
h9q36 0 39 -16l76 -492q8 -54 8 -93l35 98l172 486q5 17 40 17h16q35 0 38 -17l72 -492l7 -92l35 100l172 485q5 16 41 16h6z" />
    <glyph glyph-name="wgrave" unicode="&#x1e81;" horiz-adv-x="747" 
d="M323 732q47 0 62 -26q58 -99 58 -112q0 -9 -23 -9q-36 0 -51 18q-88 100 -92 109q-2 4 -2 8q1 12 48 12zM694 525q42 0 42 -15q0 -7 -4 -16l-185 -480q-7 -16 -41 -16h-33q-35 0 -38 16l-53 364l-133 -364q-5 -16 -41 -16h-33q-36 0 -39 16q-85 490 -85 494q2 17 45 17h9
q36 0 39 -16l63 -399l145 398q7 17 41 17h11q34 0 37 -17l64 -398l146 399q5 16 43 16z" />
    <glyph glyph-name="Wacute" unicode="&#x1e82;" horiz-adv-x="882" 
d="M577 909q47 0 47 -12q0 -9 -65 -76l-41 -41q-18 -18 -53 -18q-22 0 -22 9q0 12 69 112q18 26 65 26zM860 702q42 0 42 -16q0 -4 -247 -672q-5 -16 -41 -16h-41q-36 0 -39 16l-66 407l-7 130l-35 -130l-151 -407q-7 -16 -41 -16h-41q-36 0 -39 16l-105 668q0 20 45 20h9
q36 0 39 -16l76 -492q8 -54 8 -93l35 98l172 486q5 17 40 17h16q35 0 38 -17l72 -492l7 -92l35 100l172 485q5 16 41 16h6z" />
    <glyph glyph-name="wacute" unicode="&#x1e83;" horiz-adv-x="747" 
d="M490 732q47 0 47 -12q0 -9 -65 -76l-41 -41q-18 -18 -53 -18q-22 0 -22 9q0 12 69 112q18 26 65 26zM694 525q42 0 42 -15q0 -7 -4 -16l-185 -480q-7 -16 -41 -16h-33q-35 0 -38 16l-53 364l-133 -364q-5 -16 -41 -16h-33q-36 0 -39 16q-85 490 -85 494q2 17 45 17h9
q36 0 39 -16l63 -399l145 398q7 17 41 17h11q34 0 37 -17l64 -398l146 399q5 16 43 16z" />
    <glyph glyph-name="Wdieresis" unicode="&#x1e84;" horiz-adv-x="882" 
d="M426 879q38 0 38 -22l-5 -51q-3 -22 -46 -22q-38 0 -38 22l5 51q3 22 46 22zM570 879q38 0 38 -22l-5 -51q-3 -22 -46 -22q-38 0 -38 22l5 51q2 22 46 22zM860 702q42 0 42 -16q0 -4 -247 -672q-5 -16 -41 -16h-41q-36 0 -39 16l-66 407l-7 130l-35 -130l-151 -407
q-7 -16 -41 -16h-41q-36 0 -39 16l-105 668q0 20 45 20h9q36 0 39 -16l76 -492q8 -54 8 -93l35 98l172 486q5 17 40 17h16q35 0 38 -17l72 -492l7 -92l35 100l172 485q5 16 41 16h6z" />
    <glyph glyph-name="wdieresis" unicode="&#x1e85;" horiz-adv-x="747" 
d="M339 702q38 0 38 -22l-5 -51q-3 -22 -46 -22q-38 0 -38 22l5 51q3 22 46 22zM483 702q38 0 38 -22l-5 -51q-3 -22 -46 -22q-38 0 -38 22l5 51q2 22 46 22zM694 525q42 0 42 -15q0 -7 -4 -16l-185 -480q-7 -16 -41 -16h-33q-35 0 -38 16l-53 364l-133 -364q-5 -16 -41 -16
h-33q-36 0 -39 16q-85 490 -85 494q2 17 45 17h9q36 0 39 -16l63 -399l145 398q7 17 41 17h11q34 0 37 -17l64 -398l146 399q5 16 43 16z" />
    <glyph glyph-name="uni1E92" unicode="&#x1e92;" horiz-adv-x="616" 
d="M585 700q5 0 11 -16.5t6 -31.5q0 -12 -5 -17l-468 -559h392q17 0 17 -22q0 -54 -25 -54h-488q-7 0 -13 16.5t-6 31.5q0 12 5 17l468 559h-361q-17 0 -17 22q0 54 25 54h459zM277 -80q38 0 38 -22l-5 -51q-3 -22 -46 -22q-38 0 -38 22l5 51q3 22 46 22z" />
    <glyph glyph-name="uni1E93" unicode="&#x1e93;" horiz-adv-x="489" 
d="M455 523q6 0 10.5 -16t4.5 -32q0 -10 -4 -14l-332 -389h275q17 0 17 -27q0 -45 -25 -45h-370q-5 0 -11 15.5t-6 30.5q0 11 5 16l333 389h-256q-17 0 -17 27q0 45 25 45h351zM223 -80q38 0 38 -22l-5 -51q-3 -22 -46 -22q-38 0 -38 22l5 51q3 22 46 22z" />
    <glyph glyph-name="uni1E9E" unicode="&#x1e9e;" horiz-adv-x="700" 
d="M412 706q143 0 228 -32q4 -2 12 -21t8 -27q0 -10 -5 -17l-170 -212q91 -18 128.5 -58t37.5 -111q0 -62 -23 -109t-59.5 -73t-75.5 -39t-78 -13q-22 0 -53 3t-67.5 15t-37.5 32q0 59 15 59q1 0 8 -4t19.5 -9.5t29 -10.5t39.5 -9t47 -4q25 0 49 7.5t47.5 24.5t38 50.5
t14.5 79.5q0 58 -38 82t-109 24h-26q-6 0 -12.5 19t-6.5 29t5 17l175 217q-70 14 -155 14q-95 0 -145 -53t-59 -143l-43 -414q-2 -22 -42 -22h-8q-38 0 -38 22l43 410q12 125 85.5 200.5t221.5 75.5z" />
    <glyph glyph-name="uni1EA0" unicode="&#x1ea0;" horiz-adv-x="613" 
d="M357 702q35 0 39 -16l168 -658q1 -4 1 -10q0 -20 -44 -20h-8q-35 0 -39 16l-42 164h-294l-74 -164q-7 -16 -41 -16h-5q-41 0 -41 16q0 5 5 15l305 657q7 16 41 16h29zM334 610h-2q-12 -37 -21 -58l-137 -298h239l-73 298q-6 23 -6 58zM271 -80q38 0 38 -22l-5 -51
q-3 -22 -46 -22q-38 0 -38 22l5 51q3 22 46 22z" />
    <glyph glyph-name="uni1EA1" unicode="&#x1ea1;" horiz-adv-x="545" 
d="M511 71q6 0 6 -7q0 -15 -4 -37q-3 -17 -22.5 -25t-37.5 -8q-90 0 -90 98v10q-57 -108 -156 -108q-27 0 -54 10t-53.5 32.5t-43 67t-16.5 106.5q0 141 67 230t178 89q70 0 127 -54q6 19 10 27t13 15.5t22 7.5h6q25 0 25 -21q-40 -370 -40 -397q0 -15 3 -24t9.5 -12t11 -4
t12.5 -1q7 0 16 2.5t11 2.5zM389 367q2 18 8 50q-49 39 -104 39q-166 0 -166 -240q0 -149 99 -149q40 0 81 39.5t69 129.5zM223 -80q38 0 38 -22l-5 -51q-3 -22 -46 -22q-38 0 -38 22l5 51q3 22 46 22z" />
    <glyph glyph-name="uni1EA2" unicode="&#x1ea2;" horiz-adv-x="613" 
d="M386 851q0 25 -34 25q-14 0 -24.5 -3t-16.5 -6.5t-7 -3.5q-6 0 -13 12.5t-7 20.5q0 10 27.5 20.5t53.5 10.5q32 0 59.5 -17t27.5 -53q0 -24 -14 -47.5t-32 -37.5t-33 -23t-20 -9q-16 0 -27.5 5t-11.5 12q0 11 18 23.5t36 30.5t18 40zM357 702q35 0 39 -16l168 -658
q1 -4 1 -10q0 -20 -44 -20h-8q-35 0 -39 16l-42 164h-294l-74 -164q-7 -16 -41 -16h-5q-41 0 -41 16q0 5 5 15l305 657q7 16 41 16h29zM334 610h-2q-12 -37 -21 -58l-137 -298h239l-73 298q-6 23 -6 58z" />
    <glyph glyph-name="uni1EA3" unicode="&#x1ea3;" horiz-adv-x="545" 
d="M245 686q-6 0 -13 12.5t-7 20.5q0 10 27.5 20.5t53.5 10.5q32 0 59.5 -17t27.5 -53q0 -24 -14 -47.5t-32 -37.5t-33 -23t-20 -9q-16 0 -27.5 5t-11.5 12q0 11 18 23.5t36 30.5t18 40q0 25 -34 25q-14 0 -24.5 -3.5t-16.5 -6.5t-7 -3zM511 71q6 0 6 -7q0 -15 -4 -37
q-3 -17 -22.5 -25t-37.5 -8q-90 0 -90 98v10q-57 -108 -156 -108q-27 0 -54 10t-53.5 32.5t-43 67t-16.5 106.5q0 141 67 230t178 89q70 0 127 -54q6 19 10 27t13 15.5t22 7.5h6q25 0 25 -21q-40 -370 -40 -397q0 -15 3 -24t9.5 -12t11 -4t12.5 -1q7 0 16 2.5t11 2.5z
M389 367q2 18 8 50q-49 39 -104 39q-166 0 -166 -240q0 -149 99 -149q40 0 81 39.5t69 129.5z" />
    <glyph glyph-name="uni1EA4" unicode="&#x1ea4;" horiz-adv-x="613" 
d="M573 961q32 0 32 -12q0 -6 -92 -107q-15 -18 -38 -18q-22 0 -22 9q0 14 55 102q16 26 65 26zM375 895q24 0 34 -22l42 -88q5 -8 5 -17q-2 -15 -26 -15h-2q-25 0 -32 13l-40 74l-69 -74q-16 -13 -35 -13h-2q-21 0 -21 12q0 9 7 20l66 88q16 22 48 22h25zM357 702
q35 0 39 -16l168 -658q1 -4 1 -10q0 -20 -44 -20h-8q-35 0 -39 16l-42 164h-294l-74 -164q-7 -16 -41 -16h-5q-41 0 -41 16q0 5 5 15l305 657q7 16 41 16h29zM334 610h-2q-12 -37 -21 -58l-137 -298h239l-73 298q-6 23 -6 58z" />
    <glyph glyph-name="uni1EA5" unicode="&#x1ea5;" horiz-adv-x="545" 
d="M414 714q-22 0 -22 9q0 12 69 112q18 26 65 26t47 -12q0 -9 -65 -76l-41 -41q-18 -18 -53 -18zM191 576q-21 0 -21 12q0 9 7 20l66 88q16 22 48 22h25q24 0 34 -22l42 -88q5 -8 5 -17q-2 -15 -26 -15h-2q-25 0 -32 13l-40 74l-69 -74q-16 -13 -35 -13h-2zM511 71
q6 0 6 -7q0 -15 -4 -37q-3 -17 -22.5 -25t-37.5 -8q-90 0 -90 98v10q-57 -108 -156 -108q-27 0 -54 10t-53.5 32.5t-43 67t-16.5 106.5q0 141 67 230t178 89q70 0 127 -54q6 19 10 27t13 15.5t22 7.5h6q25 0 25 -21q-40 -370 -40 -397q0 -15 3 -24t9.5 -12t11 -4t12.5 -1
q7 0 16 2.5t11 2.5zM389 367q2 18 8 50q-49 39 -104 39q-166 0 -166 -240q0 -149 99 -149q40 0 81 39.5t69 129.5z" />
    <glyph glyph-name="uni1EA6" unicode="&#x1ea6;" horiz-adv-x="613" 
d="M447 964q38 0 48 -26q37 -90 37 -105q0 -9 -23 -9q-25 0 -36 18q-62 96 -63 110q0 12 37 12zM375 895q24 0 34 -22l42 -88q5 -8 5 -17q-2 -15 -26 -15h-2q-25 0 -32 13l-40 74l-69 -74q-16 -13 -35 -13h-2q-21 0 -21 12q0 9 7 20l66 88q16 22 48 22h25zM357 702
q35 0 39 -16l168 -658q1 -4 1 -10q0 -20 -44 -20h-8q-35 0 -39 16l-42 164h-294l-74 -164q-7 -16 -41 -16h-5q-41 0 -41 16q0 5 5 15l305 657q7 16 41 16h29zM334 610h-2q-12 -37 -21 -58l-137 -298h239l-73 298q-6 23 -6 58z" />
    <glyph glyph-name="uni1EA7" unicode="&#x1ea7;" horiz-adv-x="545" 
d="M456 714q-36 0 -51 18q-88 100 -92 109q-2 4 -2 8q1 12 48 12t62 -26q58 -99 58 -112q0 -9 -23 -9zM191 576q-21 0 -21 12q0 9 7 20l66 88q16 22 48 22h25q24 0 34 -22l42 -88q5 -8 5 -17q-2 -15 -26 -15h-2q-25 0 -32 13l-40 74l-69 -74q-16 -13 -35 -13h-2zM511 71
q6 0 6 -7q0 -15 -4 -37q-3 -17 -22.5 -25t-37.5 -8q-90 0 -90 98v10q-57 -108 -156 -108q-27 0 -54 10t-53.5 32.5t-43 67t-16.5 106.5q0 141 67 230t178 89q70 0 127 -54q6 19 10 27t13 15.5t22 7.5h6q25 0 25 -21q-40 -370 -40 -397q0 -15 3 -24t9.5 -12t11 -4t12.5 -1
q7 0 16 2.5t11 2.5zM389 367q2 18 8 50q-49 39 -104 39q-166 0 -166 -240q0 -149 99 -149q40 0 81 39.5t69 129.5z" />
    <glyph glyph-name="uni1EA8" unicode="&#x1ea8;" horiz-adv-x="613" 
d="M516 904q0 27 -34 27q-14 0 -24.5 -3.5t-16.5 -6.5t-7 -3q-6 0 -13 12.5t-7 20.5q0 10 27 19t54 9q31 0 55 -16.5t24 -51.5q0 -31 -42 -64q-28 -22 -44 -22q-15 0 -24.5 6.5t-9.5 13.5q0 8 27 22q35 18 35 37zM375 895q24 0 34 -22l42 -88q5 -8 5 -17q-2 -15 -26 -15h-2
q-25 0 -32 13l-40 74l-69 -74q-16 -13 -35 -13h-2q-21 0 -21 12q0 9 7 20l66 88q16 22 48 22h25zM357 702q35 0 39 -16l168 -658q1 -4 1 -10q0 -20 -44 -20h-8q-35 0 -39 16l-42 164h-294l-74 -164q-7 -16 -41 -16h-5q-41 0 -41 16q0 5 5 15l305 657q7 16 41 16h29zM334 610
h-2q-12 -37 -21 -58l-137 -298h239l-73 298q-6 23 -6 58z" />
    <glyph glyph-name="uni1EA9" unicode="&#x1ea9;" horiz-adv-x="545" 
d="M392 815q-6 0 -13 12.5t-7 20.5q0 10 27.5 20.5t53.5 10.5q32 0 59.5 -17t27.5 -53q0 -24 -14 -47.5t-32 -37.5t-33 -23t-20 -9q-16 0 -27.5 5t-11.5 12q0 11 18 23.5t36 30.5t18 40q0 25 -34 25q-14 0 -24.5 -3t-16.5 -6.5t-7 -3.5zM191 576q-21 0 -21 12q0 9 7 20
l66 88q16 22 48 22h25q24 0 34 -22l42 -88q5 -8 5 -17q-2 -15 -26 -15h-2q-25 0 -32 13l-40 74l-69 -74q-16 -13 -35 -13h-2zM511 71q6 0 6 -7q0 -15 -4 -37q-3 -17 -22.5 -25t-37.5 -8q-90 0 -90 98v10q-57 -108 -156 -108q-27 0 -54 10t-53.5 32.5t-43 67t-16.5 106.5
q0 141 67 230t178 89q70 0 127 -54q6 19 10 27t13 15.5t22 7.5h6q25 0 25 -21q-40 -370 -40 -397q0 -15 3 -24t9.5 -12t11 -4t12.5 -1q7 0 16 2.5t11 2.5zM389 367q2 18 8 50q-49 39 -104 39q-166 0 -166 -240q0 -149 99 -149q40 0 81 39.5t69 129.5z" />
    <glyph glyph-name="uni1EAA" unicode="&#x1eaa;" horiz-adv-x="613" 
d="M292 1008q28 0 83 -21.5t75 -21.5q23 0 40 29q11 19 27 12l7 -3q15 -6 7 -26q-27 -68 -83 -68q-30 0 -85.5 21.5t-75.5 21.5t-38 -30q-7 -11 -12 -13.5t-14 1.5l-9 4q-13 6 -6 25q27 69 84 69zM370 871q24 0 44 -22l46 -63q5 -8 5 -17q-2 -15 -26 -15h-2q-15 0 -32 13
l-54 49l-70 -49q-22 -13 -35 -13h-2q-21 0 -21 12q0 9 7 20l67 63q27 22 48 22h25zM357 702q35 0 39 -16l168 -658q1 -4 1 -10q0 -20 -44 -20h-8q-35 0 -39 16l-42 164h-294l-74 -164q-7 -16 -41 -16h-5q-41 0 -41 16q0 5 5 15l305 657q7 16 41 16h29zM334 610h-2
q-12 -37 -21 -58l-137 -298h239l-73 298q-6 23 -6 58z" />
    <glyph glyph-name="uni1EAB" unicode="&#x1eab;" horiz-adv-x="545" 
d="M163 786q-13 6 -6 25q27 69 84 69q28 0 83 -21.5t75 -21.5q23 0 40 29q11 19 27 12l7 -3q15 -6 7 -26q-27 -68 -83 -68q-30 0 -85.5 21.5t-75.5 21.5t-38 -30q-7 -11 -12 -13.5t-14 1.5zM308 718q32 0 44 -22l47 -88q5 -8 5 -17q-2 -15 -26 -15h-2q-19 0 -32 13l-55 74
l-69 -74q-16 -13 -35 -13h-2q-21 0 -21 12q0 9 7 20l66 88q16 22 48 22h25zM511 71q6 0 6 -7q0 -15 -4 -37q-3 -17 -22.5 -25t-37.5 -8q-90 0 -90 98v10q-57 -108 -156 -108q-27 0 -54 10t-53.5 32.5t-43 67t-16.5 106.5q0 141 67 230t178 89q70 0 127 -54q6 19 10 27
t13 15.5t22 7.5h6q25 0 25 -21q-40 -370 -40 -397q0 -15 3 -24t9.5 -12t11 -4t12.5 -1q7 0 16 2.5t11 2.5zM389 367q2 18 8 50q-49 39 -104 39q-166 0 -166 -240q0 -149 99 -149q40 0 81 39.5t69 129.5z" />
    <glyph glyph-name="uni1EAC" unicode="&#x1eac;" horiz-adv-x="613" 
d="M367 895q32 0 44 -22l47 -88q5 -8 5 -17q-2 -15 -26 -15h-2q-19 0 -32 13l-55 74l-69 -74q-16 -13 -35 -13h-2q-21 0 -21 12q0 9 7 20l66 88q16 22 48 22h25zM357 702q35 0 39 -16l168 -658q1 -4 1 -10q0 -20 -44 -20h-8q-35 0 -39 16l-42 164h-294l-74 -164
q-7 -16 -41 -16h-5q-41 0 -41 16q0 5 5 15l305 657q7 16 41 16h29zM334 610h-2q-12 -37 -21 -58l-137 -298h239l-73 298q-6 23 -6 58zM271 -80q38 0 38 -22l-5 -51q-3 -22 -46 -22q-38 0 -38 22l5 51q3 22 46 22z" />
    <glyph glyph-name="uni1EAD" unicode="&#x1ead;" horiz-adv-x="545" 
d="M183 576q-21 0 -21 12q0 9 7 20l66 88q16 22 48 22h25q32 0 44 -22l47 -88q5 -8 5 -17q-2 -15 -26 -15h-2q-19 0 -32 13l-55 74l-69 -74q-16 -13 -35 -13h-2zM511 71q6 0 6 -7q0 -15 -4 -37q-3 -17 -22.5 -25t-37.5 -8q-90 0 -90 98v10q-57 -108 -156 -108q-27 0 -54 10
t-53.5 32.5t-43 67t-16.5 106.5q0 141 67 230t178 89q70 0 127 -54q6 19 10 27t13 15.5t22 7.5h6q25 0 25 -21q-40 -370 -40 -397q0 -15 3 -24t9.5 -12t11 -4t12.5 -1q7 0 16 2.5t11 2.5zM389 367q2 18 8 50q-49 39 -104 39q-166 0 -166 -240q0 -149 99 -149q40 0 81 39.5
t69 129.5zM223 -80q38 0 38 -22l-5 -51q-3 -22 -46 -22q-38 0 -38 22l5 51q3 22 46 22z" />
    <glyph glyph-name="uni1EAE" unicode="&#x1eae;" horiz-adv-x="613" 
d="M445 989q32 0 32 -12q0 -6 -92 -107q-15 -18 -38 -18q-22 0 -22 9q0 14 55 102q16 26 65 26zM488 883q14 0 14 -12q0 -49 -50 -79.5t-106 -30.5q-55 0 -94.5 25.5t-39.5 69.5q0 27 17 27q8 0 10.5 -2.5t4.5 -10t5 -12.5q9 -17 39 -30.5t65 -13.5q33 0 67 15t44 29
q3 5 5.5 10.5t4 8t5 4.5t9.5 2zM357 702q35 0 39 -16l168 -658q1 -4 1 -10q0 -20 -44 -20h-8q-35 0 -39 16l-42 164h-294l-74 -164q-7 -16 -41 -16h-5q-41 0 -41 16q0 5 5 15l305 657q7 16 41 16h29zM334 610h-2q-12 -37 -21 -58l-137 -298h239l-73 298q-6 23 -6 58z" />
    <glyph glyph-name="uni1EAF" unicode="&#x1eaf;" horiz-adv-x="545" 
d="M286 733q-22 0 -22 9q0 12 69 112q18 26 65 26t47 -12q0 -9 -65 -76l-41 -41q-18 -18 -53 -18zM288 585q-55 0 -94.5 27t-39.5 76q0 27 17 27q6 0 9.5 -2t4.5 -4.5t2.5 -8.5t3.5 -10q17 -39 104 -39q86 0 111 39q3 5 6 13t6.5 10t11.5 2q14 0 14 -12q0 -55 -49.5 -86.5
t-106.5 -31.5zM511 71q6 0 6 -7q0 -15 -4 -37q-3 -17 -22.5 -25t-37.5 -8q-90 0 -90 98v10q-57 -108 -156 -108q-27 0 -54 10t-53.5 32.5t-43 67t-16.5 106.5q0 141 67 230t178 89q70 0 127 -54q6 19 10 27t13 15.5t22 7.5h6q25 0 25 -21q-40 -370 -40 -397q0 -15 3 -24
t9.5 -12t11 -4t12.5 -1q7 0 16 2.5t11 2.5zM389 367q2 18 8 50q-49 39 -104 39q-166 0 -166 -240q0 -149 99 -149q40 0 81 39.5t69 129.5z" />
    <glyph glyph-name="uni1EB0" unicode="&#x1eb0;" horiz-adv-x="613" 
d="M319 992q38 0 48 -26q37 -90 37 -105q0 -9 -23 -9q-25 0 -36 18q-62 96 -63 110q0 12 37 12zM488 883q14 0 14 -12q0 -49 -50 -79.5t-106 -30.5q-55 0 -94.5 25.5t-39.5 69.5q0 27 17 27q8 0 10.5 -2.5t4.5 -10t5 -12.5q9 -17 39 -30.5t65 -13.5q33 0 67 15t44 29
q3 5 5.5 10.5t4 8t5 4.5t9.5 2zM357 702q35 0 39 -16l168 -658q1 -4 1 -10q0 -20 -44 -20h-8q-35 0 -39 16l-42 164h-294l-74 -164q-7 -16 -41 -16h-5q-41 0 -41 16q0 5 5 15l305 657q7 16 41 16h29zM334 610h-2q-12 -37 -21 -58l-137 -298h239l-73 298q-6 23 -6 58z" />
    <glyph glyph-name="uni1EB1" unicode="&#x1eb1;" horiz-adv-x="545" 
d="M328 733q-36 0 -51 18q-88 100 -92 109q-2 4 -2 8q1 12 48 12t62 -26q58 -99 58 -112q0 -9 -23 -9zM288 585q-55 0 -94.5 27t-39.5 76q0 27 17 27q6 0 9.5 -2t4.5 -4.5t2.5 -8.5t3.5 -10q17 -39 104 -39q86 0 111 39q3 5 6 13t6.5 10t11.5 2q14 0 14 -12
q0 -55 -49.5 -86.5t-106.5 -31.5zM511 71q6 0 6 -7q0 -15 -4 -37q-3 -17 -22.5 -25t-37.5 -8q-90 0 -90 98v10q-57 -108 -156 -108q-27 0 -54 10t-53.5 32.5t-43 67t-16.5 106.5q0 141 67 230t178 89q70 0 127 -54q6 19 10 27t13 15.5t22 7.5h6q25 0 25 -21
q-40 -370 -40 -397q0 -15 3 -24t9.5 -12t11 -4t12.5 -1q7 0 16 2.5t11 2.5zM389 367q2 18 8 50q-49 39 -104 39q-166 0 -166 -240q0 -149 99 -149q40 0 81 39.5t69 129.5z" />
    <glyph glyph-name="uni1EB2" unicode="&#x1eb2;" horiz-adv-x="613" 
d="M388 932q0 27 -34 27q-14 0 -24.5 -3.5t-16.5 -6.5t-7 -3q-6 0 -13 12.5t-7 20.5q0 10 27 19t54 9q31 0 55 -16.5t24 -51.5q0 -31 -42 -64q-27 -22 -44 -22q-15 0 -24.5 6.5t-9.5 13.5q0 8 27 22q35 18 35 37zM488 883q14 0 14 -12q0 -49 -50 -79.5t-106 -30.5
q-55 0 -94.5 25.5t-39.5 69.5q0 27 17 27q8 0 10.5 -2.5t4.5 -10t5 -12.5q9 -17 39 -30.5t65 -13.5q33 0 67 15t44 29q3 5 5.5 10.5t4 8t5 4.5t9.5 2zM357 702q35 0 39 -16l168 -658q1 -4 1 -10q0 -20 -44 -20h-8q-35 0 -39 16l-42 164h-294l-74 -164q-7 -16 -41 -16h-5
q-41 0 -41 16q0 5 5 15l305 657q7 16 41 16h29zM334 610h-2q-12 -37 -21 -58l-137 -298h239l-73 298q-6 23 -6 58z" />
    <glyph glyph-name="uni1EB3" unicode="&#x1eb3;" horiz-adv-x="545" 
d="M264 834q-6 0 -13 12.5t-7 20.5q0 10 27.5 20.5t53.5 10.5q32 0 59.5 -17t27.5 -53q0 -24 -14 -47.5t-32 -37.5t-33 -23t-20 -9q-16 0 -27.5 5t-11.5 12q0 11 18 23.5t36 30.5t18 40q0 25 -34 25q-14 0 -24.5 -3.5t-16.5 -6.5t-7 -3zM288 585q-55 0 -94.5 27t-39.5 76
q0 27 17 27q6 0 9.5 -2t4.5 -4.5t2.5 -8.5t3.5 -10q17 -39 104 -39q86 0 111 39q3 5 6 13t6.5 10t11.5 2q14 0 14 -12q0 -55 -49.5 -86.5t-106.5 -31.5zM511 71q6 0 6 -7q0 -15 -4 -37q-3 -17 -22.5 -25t-37.5 -8q-90 0 -90 98v10q-57 -108 -156 -108q-27 0 -54 10
t-53.5 32.5t-43 67t-16.5 106.5q0 141 67 230t178 89q70 0 127 -54q6 19 10 27t13 15.5t22 7.5h6q25 0 25 -21q-40 -370 -40 -397q0 -15 3 -24t9.5 -12t11 -4t12.5 -1q7 0 16 2.5t11 2.5zM389 367q2 18 8 50q-49 39 -104 39q-166 0 -166 -240q0 -149 99 -149q40 0 81 39.5
t69 129.5z" />
    <glyph glyph-name="uni1EB4" unicode="&#x1eb4;" horiz-adv-x="613" 
d="M293 1008q28 0 83 -21.5t75 -21.5q23 0 40 29q11 19 27 12l7 -3q15 -6 7 -26q-27 -68 -83 -68q-30 0 -85.5 21.5t-75.5 21.5t-38 -30q-7 -11 -12 -13.5t-14 1.5l-9 4q-13 6 -6 25q27 69 84 69zM488 883q14 0 14 -12q0 -49 -50 -79.5t-106 -30.5q-55 0 -94.5 25.5
t-39.5 69.5q0 27 17 27q8 0 10.5 -2.5t4.5 -10t5 -12.5q9 -17 39 -30.5t65 -13.5q33 0 67 15t44 29q3 5 5.5 10.5t4 8t5 4.5t9.5 2zM357 702q35 0 39 -16l168 -658q1 -4 1 -10q0 -20 -44 -20h-8q-35 0 -39 16l-42 164h-294l-74 -164q-7 -16 -41 -16h-5q-41 0 -41 16
q0 5 5 15l305 657q7 16 41 16h29zM334 610h-2q-12 -37 -21 -58l-137 -298h239l-73 298q-6 23 -6 58z" />
    <glyph glyph-name="uni1EB5" unicode="&#x1eb5;" horiz-adv-x="545" 
d="M157 792q-13 6 -6 25q27 69 84 69q28 0 83 -21.5t75 -21.5q23 0 40 29q11 19 27 12l7 -3q15 -6 7 -26q-27 -68 -83 -68q-30 0 -85.5 21.5t-75.5 21.5t-38 -30q-7 -11 -12 -13.5t-14 1.5zM406 690q3 5 6 13t6.5 10t11.5 2q14 0 14 -12q0 -55 -49.5 -86.5t-106.5 -31.5
q-55 0 -94.5 27t-39.5 76q0 27 17 27q6 0 9.5 -2t4.5 -4.5t2.5 -8.5t3.5 -10q17 -39 104 -39q86 0 111 39zM511 71q6 0 6 -7q0 -15 -4 -37q-3 -17 -22.5 -25t-37.5 -8q-90 0 -90 98v10q-57 -108 -156 -108q-27 0 -54 10t-53.5 32.5t-43 67t-16.5 106.5q0 141 67 230t178 89
q70 0 127 -54q6 19 10 27t13 15.5t22 7.5h6q25 0 25 -21q-40 -370 -40 -397q0 -15 3 -24t9.5 -12t11 -4t12.5 -1q7 0 16 2.5t11 2.5zM389 367q2 18 8 50q-49 39 -104 39q-166 0 -166 -240q0 -149 99 -149q40 0 81 39.5t69 129.5z" />
    <glyph glyph-name="uni1EB6" unicode="&#x1eb6;" horiz-adv-x="613" 
d="M489 892q14 0 14 -12q0 -55 -49.5 -86.5t-106.5 -31.5q-55 0 -94.5 27t-39.5 76q0 27 17 27q6 0 9.5 -2t4.5 -4.5t2.5 -8.5t3.5 -10q17 -39 104 -39q86 0 111 39q3 5 6 13t6.5 10t11.5 2zM357 702q35 0 39 -16l168 -658q1 -4 1 -10q0 -20 -44 -20h-8q-35 0 -39 16
l-42 164h-294l-74 -164q-7 -16 -41 -16h-5q-41 0 -41 16q0 5 5 15l305 657q7 16 41 16h29zM334 610h-2q-12 -37 -21 -58l-137 -298h239l-73 298q-6 23 -6 58zM271 -80q38 0 38 -22l-5 -51q-3 -22 -46 -22q-38 0 -38 22l5 51q3 22 46 22z" />
    <glyph glyph-name="uni1EB7" unicode="&#x1eb7;" horiz-adv-x="545" 
d="M288 585q-55 0 -94.5 27t-39.5 76q0 27 17 27q6 0 9.5 -2t4.5 -4.5t2.5 -8.5t3.5 -10q17 -39 104 -39q86 0 111 39q3 5 6 13t6.5 10t11.5 2q14 0 14 -12q0 -55 -49.5 -86.5t-106.5 -31.5zM511 71q6 0 6 -7q0 -15 -4 -37q-3 -17 -22.5 -25t-37.5 -8q-90 0 -90 98v10
q-57 -108 -156 -108q-27 0 -54 10t-53.5 32.5t-43 67t-16.5 106.5q0 141 67 230t178 89q70 0 127 -54q6 19 10 27t13 15.5t22 7.5h6q25 0 25 -21q-40 -370 -40 -397q0 -15 3 -24t9.5 -12t11 -4t12.5 -1q7 0 16 2.5t11 2.5zM389 367q2 18 8 50q-49 39 -104 39
q-166 0 -166 -240q0 -149 99 -149q40 0 81 39.5t69 129.5zM223 -80q38 0 38 -22l-5 -51q-3 -22 -46 -22q-38 0 -38 22l5 51q3 22 46 22z" />
    <glyph glyph-name="uni1EB8" unicode="&#x1eb8;" horiz-adv-x="546" 
d="M498 700q17 0 17 -22q0 -54 -25 -54h-295l-24 -228h264q17 0 17 -22q0 -54 -25 -54h-264l-25 -244h296q17 0 17 -22q0 -54 -25 -54h-354q-27 0 -27 24q0 4 67 646q3 30 33 30h353zM243 -80q38 0 38 -22l-5 -51q-3 -22 -46 -22q-38 0 -38 22l5 51q3 22 46 22z" />
    <glyph glyph-name="uni1EB9" unicode="&#x1eb9;" horiz-adv-x="539" 
d="M219 213q-49 0 -86 7v-10q0 -79 37.5 -111.5t108.5 -32.5q40 0 75 12t55.5 24.5t24.5 12.5q7 0 7 -12q0 -19 -5 -45q-6 -31 -62 -47.5t-102 -16.5q-226 0 -226 207q0 145 68 236.5t207 91.5q85 0 126.5 -42.5t41.5 -90.5q0 -50 -22.5 -87t-62 -57t-85.5 -29.5t-100 -9.5z
M312 457q-150 0 -174 -172h71q17 0 32 0.5t47.5 6t55 15.5t40.5 31t18 50t-24.5 49t-65.5 20zM262 -80q38 0 38 -22l-5 -51q-3 -22 -46 -22q-38 0 -38 22l5 51q3 22 46 22z" />
    <glyph glyph-name="uni1EBA" unicode="&#x1eba;" horiz-adv-x="546" 
d="M367 851q0 25 -34 25q-14 0 -24.5 -3t-16.5 -6.5t-7 -3.5q-6 0 -13 12.5t-7 20.5q0 10 27.5 20.5t53.5 10.5q32 0 59.5 -17t27.5 -53q0 -24 -14 -47.5t-32 -37.5t-33 -23t-20 -9q-16 0 -27.5 5t-11.5 12q0 11 18 23.5t36 30.5t18 40zM498 700q17 0 17 -22q0 -54 -25 -54
h-295l-24 -228h264q17 0 17 -22q0 -54 -25 -54h-264l-25 -244h296q17 0 17 -22q0 -54 -25 -54h-354q-27 0 -27 24q0 4 67 646q3 30 33 30h353z" />
    <glyph glyph-name="uni1EBB" unicode="&#x1ebb;" horiz-adv-x="539" 
d="M272 686q-6 0 -13 12.5t-7 20.5q0 10 27.5 20.5t53.5 10.5q32 0 59.5 -17t27.5 -53q0 -24 -14 -47.5t-32 -37.5t-33 -23t-20 -9q-16 0 -27.5 5t-11.5 12q0 11 18 23.5t36 30.5t18 40q0 25 -34 25q-14 0 -24.5 -3.5t-16.5 -6.5t-7 -3zM219 213q-49 0 -86 7v-10
q0 -79 37.5 -111.5t108.5 -32.5q40 0 75 12t55.5 24.5t24.5 12.5q7 0 7 -12q0 -19 -5 -45q-6 -31 -62 -47.5t-102 -16.5q-226 0 -226 207q0 145 68 236.5t207 91.5q85 0 126.5 -42.5t41.5 -90.5q0 -50 -22.5 -87t-62 -57t-85.5 -29.5t-100 -9.5zM312 457q-150 0 -174 -172
h71q17 0 32 0.5t47.5 6t55 15.5t40.5 31t18 50t-24.5 49t-65.5 20z" />
    <glyph glyph-name="uni1EBC" unicode="&#x1ebc;" horiz-adv-x="546" 
d="M249 867q31 0 91.5 -21.5t82.5 -21.5q26 0 44 29q13 19 30 12l8 -3q16 -6 7 -26q-30 -68 -91 -68q-33 0 -94 21.5t-83 21.5q-23 0 -42 -30q-7 -11 -12.5 -13.5t-15.5 1.5l-10 4q-14 6 -7 25q30 69 92 69zM498 700q17 0 17 -22q0 -54 -25 -54h-295l-24 -228h264
q17 0 17 -22q0 -54 -25 -54h-264l-25 -244h296q17 0 17 -22q0 -54 -25 -54h-354q-27 0 -27 24q0 4 67 646q3 30 33 30h353z" />
    <glyph glyph-name="uni1EBD" unicode="&#x1ebd;" horiz-adv-x="539" 
d="M492 685q16 -6 7 -26q-30 -68 -91 -68q-33 0 -94 21.5t-83 21.5q-23 0 -42 -30q-7 -11 -12.5 -13.5t-15.5 1.5l-10 4q-14 6 -7 25q30 69 92 69q31 0 91.5 -21.5t82.5 -21.5q26 0 44 29q13 19 30 12zM321 529q85 0 126.5 -42.5t41.5 -90.5q0 -50 -22.5 -87t-62 -57
t-85.5 -29.5t-100 -9.5q-49 0 -86 7v-10q0 -79 37.5 -111.5t108.5 -32.5q40 0 75 12t55.5 24.5t24.5 12.5q7 0 7 -12q0 -19 -5 -45q-6 -31 -62 -47.5t-102 -16.5q-226 0 -226 207q0 145 68 236.5t207 91.5zM209 285q17 0 32 0.5t47.5 6t55 15.5t40.5 31t18 50t-24.5 49
t-65.5 20q-150 0 -174 -172h71z" />
    <glyph glyph-name="uni1EBE" unicode="&#x1ebe;" horiz-adv-x="546" 
d="M554 961q32 0 32 -12q0 -6 -92 -107q-15 -18 -38 -18q-22 0 -22 9q0 14 55 102q16 26 65 26zM356 895q24 0 34 -22l42 -88q5 -8 5 -17q-2 -15 -26 -15h-2q-25 0 -32 13l-40 74l-69 -74q-16 -13 -35 -13h-2q-21 0 -21 12q0 9 7 20l66 88q16 22 48 22h25zM498 700
q17 0 17 -22q0 -54 -25 -54h-295l-24 -228h264q17 0 17 -22q0 -54 -25 -54h-264l-25 -244h296q17 0 17 -22q0 -54 -25 -54h-354q-27 0 -27 24q0 4 67 646q3 30 33 30h353z" />
    <glyph glyph-name="uni1EBF" unicode="&#x1ebf;" horiz-adv-x="539" 
d="M553 861q47 0 47 -12q0 -9 -65 -76l-41 -41q-18 -18 -53 -18q-22 0 -22 9q0 12 69 112q18 26 65 26zM218 576q-21 0 -21 12q0 9 7 20l66 88q16 22 48 22h25q24 0 34 -22l42 -88q5 -8 5 -17q-2 -15 -26 -15h-2q-25 0 -32 13l-40 74l-69 -74q-16 -13 -35 -13h-2zM321 529
q85 0 126.5 -42.5t41.5 -90.5q0 -50 -22.5 -87t-62 -57t-85.5 -29.5t-100 -9.5q-49 0 -86 7v-10q0 -79 37.5 -111.5t108.5 -32.5q40 0 75 12t55.5 24.5t24.5 12.5q7 0 7 -12q0 -19 -5 -45q-6 -31 -62 -47.5t-102 -16.5q-226 0 -226 207q0 145 68 236.5t207 91.5zM209 285
q17 0 32 0.5t47.5 6t55 15.5t40.5 31t18 50t-24.5 49t-65.5 20q-150 0 -174 -172h71z" />
    <glyph glyph-name="uni1EC0" unicode="&#x1ec0;" horiz-adv-x="546" 
d="M428 964q38 0 48 -26q37 -90 37 -105q0 -9 -23 -9q-26 0 -36 18q-62 96 -63 110q0 12 37 12zM356 895q24 0 34 -22l42 -88q5 -8 5 -17q-2 -15 -26 -15h-2q-25 0 -32 13l-40 74l-69 -74q-16 -13 -35 -13h-2q-21 0 -21 12q0 9 7 20l66 88q16 22 48 22h25zM498 700
q17 0 17 -22q0 -54 -25 -54h-295l-24 -228h264q17 0 17 -22q0 -54 -25 -54h-264l-25 -244h296q17 0 17 -22q0 -54 -25 -54h-354q-27 0 -27 24q0 4 67 646q3 30 33 30h353z" />
    <glyph glyph-name="uni1EC1" unicode="&#x1ec1;" horiz-adv-x="539" 
d="M448 835q58 -99 58 -112q0 -9 -23 -9q-36 0 -51 18q-88 100 -92 109q-2 4 -2 8q1 12 48 12t62 -26zM218 576q-21 0 -21 12q0 9 7 20l66 88q16 22 48 22h25q24 0 34 -22l42 -88q5 -8 5 -17q-2 -15 -26 -15h-2q-25 0 -32 13l-40 74l-69 -74q-16 -13 -35 -13h-2zM321 529
q85 0 126.5 -42.5t41.5 -90.5q0 -50 -22.5 -87t-62 -57t-85.5 -29.5t-100 -9.5q-49 0 -86 7v-10q0 -79 37.5 -111.5t108.5 -32.5q40 0 75 12t55.5 24.5t24.5 12.5q7 0 7 -12q0 -19 -5 -45q-6 -31 -62 -47.5t-102 -16.5q-226 0 -226 207q0 145 68 236.5t207 91.5zM209 285
q17 0 32 0.5t47.5 6t55 15.5t40.5 31t18 50t-24.5 49t-65.5 20q-150 0 -174 -172h71z" />
    <glyph glyph-name="uni1EC2" unicode="&#x1ec2;" horiz-adv-x="546" 
d="M497 904q0 27 -34 27q-14 0 -24.5 -3.5t-16.5 -6.5t-7 -3q-6 0 -13 12.5t-7 20.5q0 10 27 19t54 9q31 0 55 -16.5t24 -51.5q0 -31 -42 -64q-27 -22 -44 -22q-15 0 -24.5 6.5t-9.5 13.5q0 8 27 22q35 18 35 37zM356 895q24 0 34 -22l42 -88q5 -8 5 -17q-2 -15 -26 -15h-2
q-25 0 -32 13l-40 74l-69 -74q-16 -13 -35 -13h-2q-21 0 -21 12q0 9 7 20l66 88q16 22 48 22h25zM498 700q17 0 17 -22q0 -54 -25 -54h-295l-24 -228h264q17 0 17 -22q0 -54 -25 -54h-264l-25 -244h296q17 0 17 -22q0 -54 -25 -54h-354q-27 0 -27 24q0 4 67 646q3 30 33 30
h353z" />
    <glyph glyph-name="uni1EC3" unicode="&#x1ec3;" horiz-adv-x="539" 
d="M480 879q32 0 59.5 -17t27.5 -53q0 -24 -14 -47.5t-32 -37.5t-33 -23t-20 -9q-16 0 -27.5 5t-11.5 12q0 11 18 23.5t36 30.5t18 40q0 25 -34 25q-14 0 -24.5 -3t-16.5 -6.5t-7 -3.5q-6 0 -13 12.5t-7 20.5q0 10 27.5 20.5t53.5 10.5zM218 576q-21 0 -21 12q0 9 7 20
l66 88q16 22 48 22h25q24 0 34 -22l42 -88q5 -8 5 -17q-2 -15 -26 -15h-2q-25 0 -32 13l-40 74l-69 -74q-16 -13 -35 -13h-2zM321 529q85 0 126.5 -42.5t41.5 -90.5q0 -50 -22.5 -87t-62 -57t-85.5 -29.5t-100 -9.5q-49 0 -86 7v-10q0 -79 37.5 -111.5t108.5 -32.5
q40 0 75 12t55.5 24.5t24.5 12.5q7 0 7 -12q0 -19 -5 -45q-6 -31 -62 -47.5t-102 -16.5q-226 0 -226 207q0 145 68 236.5t207 91.5zM209 285q17 0 32 0.5t47.5 6t55 15.5t40.5 31t18 50t-24.5 49t-65.5 20q-150 0 -174 -172h71z" />
    <glyph glyph-name="uni1EC4" unicode="&#x1ec4;" horiz-adv-x="546" 
d="M273 1008q28 0 83 -21.5t75 -21.5q23 0 40 29q11 19 27 12l7 -3q15 -6 7 -26q-27 -68 -83 -68q-30 0 -85.5 21.5t-75.5 21.5t-38 -30q-7 -11 -12 -13.5t-14 1.5l-9 4q-13 6 -6 25q27 69 84 69zM351 871q24 0 44 -22l46 -63q5 -8 5 -17q-2 -15 -26 -15h-2q-15 0 -32 13
l-54 49l-70 -49q-22 -13 -35 -13h-2q-21 0 -21 12q0 9 7 20l67 63q27 22 48 22h25zM498 700q17 0 17 -22q0 -54 -25 -54h-295l-24 -228h264q17 0 17 -22q0 -54 -25 -54h-264l-25 -244h296q17 0 17 -22q0 -54 -25 -54h-354q-27 0 -27 24q0 4 67 646q3 30 33 30h353z" />
    <glyph glyph-name="uni1EC5" unicode="&#x1ec5;" horiz-adv-x="539" 
d="M500 875q15 -6 7 -26q-27 -68 -83 -68q-30 0 -85.5 21.5t-75.5 21.5t-38 -30q-7 -11 -12 -13.5t-14 1.5l-9 4q-13 6 -6 25q27 69 84 69q28 0 83 -21.5t75 -21.5q23 0 40 29q11 19 27 12zM212 576h-2q-21 0 -21 12q0 9 7 20l66 88q16 22 48 22h25q32 0 44 -22l47 -88
q5 -8 5 -17q-2 -15 -26 -15h-2q-19 0 -32 13l-55 74l-69 -74q-16 -13 -35 -13zM321 529q85 0 126.5 -42.5t41.5 -90.5q0 -50 -22.5 -87t-62 -57t-85.5 -29.5t-100 -9.5q-49 0 -86 7v-10q0 -79 37.5 -111.5t108.5 -32.5q40 0 75 12t55.5 24.5t24.5 12.5q7 0 7 -12
q0 -19 -5 -45q-6 -31 -62 -47.5t-102 -16.5q-226 0 -226 207q0 145 68 236.5t207 91.5zM209 285q17 0 32 0.5t47.5 6t55 15.5t40.5 31t18 50t-24.5 49t-65.5 20q-150 0 -174 -172h71z" />
    <glyph glyph-name="uni1EC6" unicode="&#x1ec6;" horiz-adv-x="546" 
d="M348 895q32 0 44 -22l47 -88q5 -8 5 -17q-2 -15 -26 -15h-2q-19 0 -32 13l-55 74l-69 -74q-16 -13 -35 -13h-2q-21 0 -21 12q0 9 7 20l66 88q16 22 48 22h25zM498 700q17 0 17 -22q0 -54 -25 -54h-295l-24 -228h264q17 0 17 -22q0 -54 -25 -54h-264l-25 -244h296
q17 0 17 -22q0 -54 -25 -54h-354q-27 0 -27 24q0 4 67 646q3 30 33 30h353zM243 -80q38 0 38 -22l-5 -51q-3 -22 -46 -22q-38 0 -38 22l5 51q3 22 46 22z" />
    <glyph glyph-name="uni1EC7" unicode="&#x1ec7;" horiz-adv-x="539" 
d="M210 576q-21 0 -21 12q0 9 7 20l66 88q16 22 48 22h25q32 0 44 -22l47 -88q5 -8 5 -17q-2 -15 -26 -15h-2q-19 0 -32 13l-55 74l-69 -74q-16 -13 -35 -13h-2zM219 213q-49 0 -86 7v-10q0 -79 37.5 -111.5t108.5 -32.5q40 0 75 12t55.5 24.5t24.5 12.5q7 0 7 -12
q0 -19 -5 -45q-6 -31 -62 -47.5t-102 -16.5q-226 0 -226 207q0 145 68 236.5t207 91.5q85 0 126.5 -42.5t41.5 -90.5q0 -50 -22.5 -87t-62 -57t-85.5 -29.5t-100 -9.5zM312 457q-150 0 -174 -172h71q17 0 32 0.5t47.5 6t55 15.5t40.5 31t18 50t-24.5 49t-65.5 20zM262 -80
q38 0 38 -22l-5 -51q-3 -22 -46 -22q-38 0 -38 22l5 51q3 22 46 22z" />
    <glyph glyph-name="uni1EC8" unicode="&#x1ec8;" horiz-adv-x="282" 
d="M224 851q0 25 -34 25q-14 0 -24.5 -3t-16.5 -6.5t-7 -3.5q-6 0 -13 12.5t-7 20.5q0 10 27.5 20.5t53.5 10.5q32 0 59.5 -17t27.5 -53q0 -24 -14 -47.5t-32 -37.5t-33 -23t-20 -9q-16 0 -27.5 5t-11.5 12q0 11 18 23.5t36 30.5t18 40zM181 702q38 0 38 -22l-69 -660
q-3 -22 -42 -22h-8q-38 0 -38 22l69 660q2 22 42 22h8z" />
    <glyph glyph-name="uni1EC9" unicode="&#x1ec9;" horiz-adv-x="265" 
d="M190 674q0 25 -34 25q-14 0 -24.5 -3.5t-16.5 -6.5t-7 -3q-6 0 -13 12.5t-7 20.5q0 10 27.5 20.5t53.5 10.5q32 0 59.5 -17t27.5 -53q0 -24 -14 -47.5t-32 -37.5t-33 -23t-20 -9q-16 0 -27.5 5t-11.5 12q0 11 18 23.5t36 30.5t18 40zM150 525q38 0 38 -22
q-40 -366 -40 -396q0 -19 6 -28.5t12 -11t17 -1.5q7 0 16 2.5t11 2.5q6 0 6 -7q0 -15 -4 -37q-3 -17 -22.5 -25t-37.5 -8q-89 0 -89 95q0 19 10 122t20 197.5t11 94.5q3 22 42 22h4z" />
    <glyph glyph-name="uni1ECA" unicode="&#x1eca;" horiz-adv-x="282" 
d="M181 702q38 0 38 -22l-69 -660q-3 -22 -42 -22h-8q-38 0 -38 22l69 660q2 22 42 22h8zM93 -80q38 0 38 -22l-5 -51q-3 -22 -46 -22q-38 0 -38 22l5 51q3 22 46 22z" />
    <glyph glyph-name="uni1ECB" unicode="&#x1ecb;" horiz-adv-x="265" 
d="M178 752q38 0 38 -22l-6 -59q0 -22 -38 -22h-12q-42 0 -42 22l6 59q3 22 42 22h12zM150 525q38 0 38 -22q-40 -366 -40 -396q0 -19 6 -28.5t12 -11t17 -1.5q7 0 16 2.5t11 2.5q6 0 6 -7q0 -15 -4 -37q-3 -17 -22.5 -25t-37.5 -8q-89 0 -89 95q0 19 10 122t20 197.5
t11 94.5q3 22 42 22h4zM103 -80q38 0 38 -22l-5 -51q-3 -22 -46 -22q-38 0 -38 22l5 51q3 22 46 22z" />
    <glyph glyph-name="uni1ECC" unicode="&#x1ecc;" horiz-adv-x="731" 
d="M402 706q135 0 205.5 -72.5t70.5 -213.5q0 -205 -94 -315.5t-257 -110.5q-134 0 -204 73t-70 215q0 66 11 125t36.5 114.5t64.5 96t100 64.5t137 24zM394 630q-116 0 -183 -87t-67 -252q0 -109 48.5 -165t142.5 -56q115 0 183 88.5t68 251.5q0 109 -49 164.5t-143 55.5z
M319 -80q38 0 38 -22l-5 -51q-3 -22 -46 -22q-38 0 -38 22l5 51q3 22 46 22z" />
    <glyph glyph-name="uni1ECD" unicode="&#x1ecd;" horiz-adv-x="569" 
d="M309 529q98 0 149.5 -55.5t51.5 -161.5q0 -153 -68.5 -235.5t-189.5 -82.5q-102 0 -154.5 55t-52.5 160q0 64 15 120t46 101.5t83 72t120 26.5zM298 457q-81 0 -124 -65t-43 -180q0 -146 126 -146q80 0 123 62.5t43 181.5q0 75 -30.5 111t-94.5 36zM243 -80q38 0 38 -22
l-5 -51q-3 -22 -46 -22q-38 0 -38 22l5 51q3 22 46 22z" />
    <glyph glyph-name="uni1ECE" unicode="&#x1ece;" horiz-adv-x="731" 
d="M446 851q0 25 -34 25q-14 0 -24.5 -3t-16.5 -6.5t-7 -3.5q-6 0 -13 12.5t-7 20.5q0 10 27.5 20.5t53.5 10.5q32 0 59.5 -17t27.5 -53q0 -24 -14 -47.5t-32 -37.5t-33 -23t-20 -9q-16 0 -27.5 5t-11.5 12q0 11 18 23.5t36 30.5t18 40zM402 706q135 0 205.5 -72.5
t70.5 -213.5q0 -205 -94 -315.5t-257 -110.5q-134 0 -204 73t-70 215q0 66 11 125t36.5 114.5t64.5 96t100 64.5t137 24zM394 630q-116 0 -183 -87t-67 -252q0 -109 48.5 -165t142.5 -56q115 0 183 88.5t68 251.5q0 109 -49 164.5t-143 55.5z" />
    <glyph glyph-name="uni1ECF" unicode="&#x1ecf;" horiz-adv-x="569" 
d="M349 674q0 25 -34 25q-14 0 -24.5 -3.5t-16.5 -6.5t-7 -3q-6 0 -13 12.5t-7 20.5q0 10 27.5 20.5t53.5 10.5q32 0 59.5 -17t27.5 -53q0 -24 -14 -47.5t-32 -37.5t-33 -23t-20 -9q-16 0 -27.5 5t-11.5 12q0 11 18 23.5t36 30.5t18 40zM309 529q98 0 149.5 -55.5
t51.5 -161.5q0 -153 -68.5 -235.5t-189.5 -82.5q-102 0 -154.5 55t-52.5 160q0 64 15 120t46 101.5t83 72t120 26.5zM298 457q-81 0 -124 -65t-43 -180q0 -146 126 -146q80 0 123 62.5t43 181.5q0 75 -30.5 111t-94.5 36z" />
    <glyph glyph-name="uni1ED0" unicode="&#x1ed0;" horiz-adv-x="731" 
d="M633 961q32 0 32 -12q0 -6 -92 -107q-15 -18 -38 -18q-22 0 -22 9q0 14 55 102q16 26 65 26zM435 895q24 0 34 -22l42 -88q5 -8 5 -17q-2 -15 -26 -15h-2q-25 0 -32 13l-40 74l-69 -74q-16 -13 -35 -13h-2q-21 0 -21 12q0 9 7 20l66 88q16 22 48 22h25zM402 706
q135 0 205.5 -72.5t70.5 -213.5q0 -205 -94 -315.5t-257 -110.5q-134 0 -204 73t-70 215q0 66 11 125t36.5 114.5t64.5 96t100 64.5t137 24zM394 630q-116 0 -183 -87t-67 -252q0 -109 48.5 -165t142.5 -56q115 0 183 88.5t68 251.5q0 109 -49 164.5t-143 55.5z" />
    <glyph glyph-name="uni1ED1" unicode="&#x1ed1;" horiz-adv-x="569" 
d="M548 861q47 0 47 -12q0 -9 -65 -76l-41 -41q-18 -18 -53 -18q-22 0 -22 9q0 12 69 112q18 26 65 26zM338 718q24 0 34 -22l42 -88q5 -8 5 -17q-2 -15 -26 -15h-2q-25 0 -32 13l-40 74l-69 -74q-16 -13 -35 -13h-2q-21 0 -21 12q0 9 7 20l66 88q16 22 48 22h25zM309 529
q98 0 149.5 -55.5t51.5 -161.5q0 -153 -68.5 -235.5t-189.5 -82.5q-102 0 -154.5 55t-52.5 160q0 64 15 120t46 101.5t83 72t120 26.5zM298 457q-81 0 -124 -65t-43 -180q0 -146 126 -146q80 0 123 62.5t43 181.5q0 75 -30.5 111t-94.5 36z" />
    <glyph glyph-name="uni1ED2" unicode="&#x1ed2;" horiz-adv-x="731" 
d="M507 964q38 0 48 -26q37 -90 37 -105q0 -9 -23 -9q-25 0 -36 18q-62 96 -63 110q0 12 37 12zM435 895q24 0 34 -22l42 -88q5 -8 5 -17q-2 -15 -26 -15h-2q-25 0 -32 13l-40 74l-69 -74q-16 -13 -35 -13h-2q-21 0 -21 12q0 9 7 20l66 88q16 22 48 22h25zM402 706
q135 0 205.5 -72.5t70.5 -213.5q0 -205 -94 -315.5t-257 -110.5q-134 0 -204 73t-70 215q0 66 11 125t36.5 114.5t64.5 96t100 64.5t137 24zM394 630q-116 0 -183 -87t-67 -252q0 -109 48.5 -165t142.5 -56q115 0 183 88.5t68 251.5q0 109 -49 164.5t-143 55.5z" />
    <glyph glyph-name="uni1ED3" unicode="&#x1ed3;" horiz-adv-x="569" 
d="M381 861q47 0 62 -26q58 -99 58 -112q0 -9 -23 -9q-36 0 -51 18q-88 100 -92 109q-2 4 -2 8q1 12 48 12zM338 718q24 0 34 -22l42 -88q5 -8 5 -17q-2 -15 -26 -15h-2q-25 0 -32 13l-40 74l-69 -74q-16 -13 -35 -13h-2q-21 0 -21 12q0 9 7 20l66 88q16 22 48 22h25z
M309 529q98 0 149.5 -55.5t51.5 -161.5q0 -153 -68.5 -235.5t-189.5 -82.5q-102 0 -154.5 55t-52.5 160q0 64 15 120t46 101.5t83 72t120 26.5zM298 457q-81 0 -124 -65t-43 -180q0 -146 126 -146q80 0 123 62.5t43 181.5q0 75 -30.5 111t-94.5 36z" />
    <glyph glyph-name="uni1ED4" unicode="&#x1ed4;" horiz-adv-x="731" 
d="M576 904q0 27 -34 27q-14 0 -24.5 -3.5t-16.5 -6.5t-7 -3q-6 0 -13 12.5t-7 20.5q0 10 27 19t54 9q31 0 55 -16.5t24 -51.5q0 -31 -42 -64q-28 -22 -44 -22q-15 0 -24.5 6.5t-9.5 13.5q0 8 27 22q35 18 35 37zM435 895q24 0 34 -22l42 -88q5 -8 5 -17q-2 -15 -26 -15h-2
q-25 0 -32 13l-40 74l-69 -74q-16 -13 -35 -13h-2q-21 0 -21 12q0 9 7 20l66 88q16 22 48 22h25zM402 706q135 0 205.5 -72.5t70.5 -213.5q0 -205 -94 -315.5t-257 -110.5q-134 0 -204 73t-70 215q0 66 11 125t36.5 114.5t64.5 96t100 64.5t137 24zM394 630q-116 0 -183 -87
t-67 -252q0 -109 48.5 -165t142.5 -56q115 0 183 88.5t68 251.5q0 109 -49 164.5t-143 55.5z" />
    <glyph glyph-name="uni1ED5" unicode="&#x1ed5;" horiz-adv-x="569" 
d="M496 803q0 25 -34 25q-14 0 -24.5 -3t-16.5 -6.5t-7 -3.5q-6 0 -13 12.5t-7 20.5q0 10 27.5 20.5t53.5 10.5q32 0 59.5 -17t27.5 -53q0 -24 -14 -47.5t-32 -37.5t-33 -23t-20 -9q-16 0 -27.5 5t-11.5 12q0 11 18 23.5t36 30.5t18 40zM338 718q24 0 34 -22l42 -88
q5 -8 5 -17q-2 -15 -26 -15h-2q-25 0 -32 13l-40 74l-69 -74q-16 -13 -35 -13h-2q-21 0 -21 12q0 9 7 20l66 88q16 22 48 22h25zM309 529q98 0 149.5 -55.5t51.5 -161.5q0 -153 -68.5 -235.5t-189.5 -82.5q-102 0 -154.5 55t-52.5 160q0 64 15 120t46 101.5t83 72t120 26.5z
M298 457q-81 0 -124 -65t-43 -180q0 -146 126 -146q80 0 123 62.5t43 181.5q0 75 -30.5 111t-94.5 36z" />
    <glyph glyph-name="uni1ED6" unicode="&#x1ed6;" horiz-adv-x="731" 
d="M352 1008q28 0 83 -21.5t75 -21.5q23 0 40 29q11 19 27 12l7 -3q15 -6 7 -26q-27 -68 -83 -68q-30 0 -85.5 21.5t-75.5 21.5t-38 -30q-7 -11 -12 -13.5t-14 1.5l-9 4q-13 6 -6 25q27 69 84 69zM430 871q24 0 44 -22l46 -63q5 -8 5 -17q-2 -15 -26 -15h-2q-15 0 -32 13
l-54 49l-70 -49q-22 -13 -35 -13h-2q-21 0 -21 12q0 9 7 20l67 63q27 22 48 22h25zM402 706q135 0 205.5 -72.5t70.5 -213.5q0 -205 -94 -315.5t-257 -110.5q-134 0 -204 73t-70 215q0 66 11 125t36.5 114.5t64.5 96t100 64.5t137 24zM394 630q-116 0 -183 -87t-67 -252
q0 -109 48.5 -165t142.5 -56q115 0 183 88.5t68 251.5q0 109 -49 164.5t-143 55.5z" />
    <glyph glyph-name="uni1ED7" unicode="&#x1ed7;" horiz-adv-x="569" 
d="M263 880q28 0 83 -21.5t75 -21.5q23 0 40 29q11 19 27 12l7 -3q15 -6 7 -26q-27 -68 -83 -68q-30 0 -85.5 21.5t-75.5 21.5t-38 -30q-7 -11 -12 -13.5t-14 1.5l-9 4q-13 6 -6 25q27 69 84 69zM330 718q32 0 44 -22l47 -88q5 -8 5 -17q-2 -15 -26 -15h-2q-19 0 -32 13
l-55 74l-69 -74q-16 -13 -35 -13h-2q-21 0 -21 12q0 9 7 20l66 88q16 22 48 22h25zM309 529q98 0 149.5 -55.5t51.5 -161.5q0 -153 -68.5 -235.5t-189.5 -82.5q-102 0 -154.5 55t-52.5 160q0 64 15 120t46 101.5t83 72t120 26.5zM298 457q-81 0 -124 -65t-43 -180
q0 -146 126 -146q80 0 123 62.5t43 181.5q0 75 -30.5 111t-94.5 36z" />
    <glyph glyph-name="uni1ED8" unicode="&#x1ed8;" horiz-adv-x="731" 
d="M427 895q32 0 44 -22l47 -88q5 -8 5 -17q-2 -15 -26 -15h-2q-19 0 -32 13l-55 74l-69 -74q-16 -13 -35 -13h-2q-21 0 -21 12q0 9 7 20l66 88q16 22 48 22h25zM402 706q135 0 205.5 -72.5t70.5 -213.5q0 -205 -94 -315.5t-257 -110.5q-134 0 -204 73t-70 215q0 66 11 125
t36.5 114.5t64.5 96t100 64.5t137 24zM394 630q-116 0 -183 -87t-67 -252q0 -109 48.5 -165t142.5 -56q115 0 183 88.5t68 251.5q0 109 -49 164.5t-143 55.5zM319 -80q38 0 38 -22l-5 -51q-3 -22 -46 -22q-38 0 -38 22l5 51q3 22 46 22z" />
    <glyph glyph-name="uni1ED9" unicode="&#x1ed9;" horiz-adv-x="569" 
d="M330 718q32 0 44 -22l47 -88q5 -8 5 -17q-2 -15 -26 -15h-2q-19 0 -32 13l-55 74l-69 -74q-16 -13 -35 -13h-2q-21 0 -21 12q0 9 7 20l66 88q16 22 48 22h25zM309 529q98 0 149.5 -55.5t51.5 -161.5q0 -153 -68.5 -235.5t-189.5 -82.5q-102 0 -154.5 55t-52.5 160
q0 64 15 120t46 101.5t83 72t120 26.5zM298 457q-81 0 -124 -65t-43 -180q0 -146 126 -146q80 0 123 62.5t43 181.5q0 75 -30.5 111t-94.5 36zM243 -80q38 0 38 -22l-5 -51q-3 -22 -46 -22q-38 0 -38 22l5 51q3 22 46 22z" />
    <glyph glyph-name="uni1EDA" unicode="&#x1eda;" horiz-adv-x="731" 
d="M399 764q-22 0 -22 9q0 12 69 112q18 26 65 26t47 -12q0 -9 -65 -76l-41 -41q-18 -18 -53 -18zM584 655q94 -71 94 -235q0 -205 -94 -315.5t-257 -110.5q-134 0 -204 73t-70 215q0 66 11 125t36.5 114.5t64.5 96t100 64.5t137 24q78 0 134 -24h2q59 0 59 40
q0 13 -10.5 31.5t-10.5 23.5q0 10 11 16l26 16q5 4 12 4q16 0 25.5 -21.5t9.5 -45.5q0 -31 -20 -56t-56 -35zM335 70q115 0 183 88.5t68 251.5q0 109 -49 164.5t-143 55.5q-116 0 -183 -87t-67 -252q0 -109 48.5 -165t142.5 -56z" />
    <glyph glyph-name="uni1EDB" unicode="&#x1edb;" horiz-adv-x="569" 
d="M289 587q-22 0 -22 9q0 12 69 112q18 26 65 26t47 -12q0 -9 -65 -76l-41 -41q-18 -18 -53 -18zM550 569q0 -34 -24.5 -61t-67.5 -34q52 -55 52 -162q0 -153 -68.5 -235.5t-189.5 -82.5q-102 0 -154.5 55t-52.5 160q0 64 15 120t46 101.5t83 72t120 26.5q64 0 109 -24h10
q59 0 59 40q0 13 -10.5 31.5t-10.5 23.5q0 10 11 16l26 16q5 4 12 4q16 0 25.5 -21.5t9.5 -45.5zM257 66q80 0 123 62.5t43 181.5q0 75 -30.5 111t-94.5 36q-81 0 -124 -65t-43 -180q0 -146 126 -146z" />
    <glyph glyph-name="uni1EDC" unicode="&#x1edc;" horiz-adv-x="731" 
d="M441 764q-36 0 -51 18q-88 100 -92 109q-2 4 -2 8q1 12 48 12t62 -26q58 -99 58 -112q0 -9 -23 -9zM584 655q94 -71 94 -235q0 -205 -94 -315.5t-257 -110.5q-134 0 -204 73t-70 215q0 66 11 125t36.5 114.5t64.5 96t100 64.5t137 24q78 0 134 -24h2q59 0 59 40
q0 13 -10.5 31.5t-10.5 23.5q0 10 11 16l26 16q5 4 12 4q16 0 25.5 -21.5t9.5 -45.5q0 -31 -20 -56t-56 -35zM335 70q115 0 183 88.5t68 251.5q0 109 -49 164.5t-143 55.5q-116 0 -183 -87t-67 -252q0 -109 48.5 -165t142.5 -56z" />
    <glyph glyph-name="uni1EDD" unicode="&#x1edd;" horiz-adv-x="569" 
d="M331 587q-36 0 -51 18q-88 100 -92 109q-2 4 -2 8q1 12 48 12t62 -26q58 -99 58 -112q0 -9 -23 -9zM550 569q0 -34 -24.5 -61t-67.5 -34q52 -55 52 -162q0 -153 -68.5 -235.5t-189.5 -82.5q-102 0 -154.5 55t-52.5 160q0 64 15 120t46 101.5t83 72t120 26.5q64 0 109 -24
h10q59 0 59 40q0 13 -10.5 31.5t-10.5 23.5q0 10 11 16l26 16q5 4 12 4q16 0 25.5 -21.5t9.5 -45.5zM257 66q80 0 123 62.5t43 181.5q0 75 -30.5 111t-94.5 36q-81 0 -124 -65t-43 -180q0 -146 126 -146z" />
    <glyph glyph-name="uni1EDE" unicode="&#x1ede;" horiz-adv-x="731" 
d="M377 865q-6 0 -13 12.5t-7 20.5q0 10 27.5 20.5t53.5 10.5q32 0 59.5 -17t27.5 -53q0 -24 -14 -47.5t-32 -37.5t-33 -23t-20 -9q-16 0 -27.5 5t-11.5 12q0 11 18 23.5t36 30.5t18 40q0 25 -34 25q-14 0 -24.5 -3t-16.5 -6.5t-7 -3.5zM584 655q94 -71 94 -235
q0 -205 -94 -315.5t-257 -110.5q-134 0 -204 73t-70 215q0 66 11 125t36.5 114.5t64.5 96t100 64.5t137 24q78 0 134 -24h2q59 0 59 40q0 13 -10.5 31.5t-10.5 23.5q0 10 11 16l26 16q5 4 12 4q16 0 25.5 -21.5t9.5 -45.5q0 -31 -20 -56t-56 -35zM335 70q115 0 183 88.5
t68 251.5q0 109 -49 164.5t-143 55.5q-116 0 -183 -87t-67 -252q0 -109 48.5 -165t142.5 -56z" />
    <glyph glyph-name="uni1EDF" unicode="&#x1edf;" horiz-adv-x="569" 
d="M267 688q-6 0 -13 12.5t-7 20.5q0 10 27.5 20.5t53.5 10.5q32 0 59.5 -17t27.5 -53q0 -24 -14 -47.5t-32 -37.5t-33 -23t-20 -9q-16 0 -27.5 5t-11.5 12q0 11 18 23.5t36 30.5t18 40q0 25 -34 25q-14 0 -24.5 -3.5t-16.5 -6.5t-7 -3zM550 569q0 -34 -24.5 -61t-67.5 -34
q52 -55 52 -162q0 -153 -68.5 -235.5t-189.5 -82.5q-102 0 -154.5 55t-52.5 160q0 64 15 120t46 101.5t83 72t120 26.5q64 0 109 -24h10q59 0 59 40q0 13 -10.5 31.5t-10.5 23.5q0 10 11 16l26 16q5 4 12 4q16 0 25.5 -21.5t9.5 -45.5zM257 66q80 0 123 62.5t43 181.5
q0 75 -30.5 111t-94.5 36q-81 0 -124 -65t-43 -180q0 -146 126 -146z" />
    <glyph glyph-name="uni1EE0" unicode="&#x1ee0;" horiz-adv-x="731" 
d="M272 775q-13 6 -6 25q26 69 82 69q28 0 82.5 -21.5t74.5 -21.5q23 0 40 29q11 19 27 12l7 -3q14 -6 6 -26q-27 -68 -82 -68q-30 0 -85 21.5t-74 21.5q-20 0 -38 -30q-7 -11 -11.5 -13.5t-13.5 1.5zM584 655q94 -71 94 -235q0 -205 -94 -315.5t-257 -110.5q-134 0 -204 73
t-70 215q0 66 11 125t36.5 114.5t64.5 96t100 64.5t137 24q78 0 134 -24h2q59 0 59 40q0 13 -10.5 31.5t-10.5 23.5q0 10 11 16l26 16q5 4 12 4q16 0 25.5 -21.5t9.5 -45.5q0 -31 -20 -56t-56 -35zM335 70q115 0 183 88.5t68 251.5q0 109 -49 164.5t-143 55.5
q-116 0 -183 -87t-67 -252q0 -109 48.5 -165t142.5 -56z" />
    <glyph glyph-name="uni1EE1" unicode="&#x1ee1;" horiz-adv-x="569" 
d="M162 598q-13 6 -6 25q26 69 82 69q28 0 82.5 -21.5t74.5 -21.5q23 0 40 29q11 19 27 12l7 -3q14 -6 6 -26q-27 -68 -82 -68q-30 0 -85 21.5t-74 21.5q-20 0 -38 -30q-7 -11 -11.5 -13.5t-13.5 1.5zM550 569q0 -34 -24.5 -61t-67.5 -34q52 -55 52 -162
q0 -153 -68.5 -235.5t-189.5 -82.5q-102 0 -154.5 55t-52.5 160q0 64 15 120t46 101.5t83 72t120 26.5q64 0 109 -24h10q59 0 59 40q0 13 -10.5 31.5t-10.5 23.5q0 10 11 16l26 16q5 4 12 4q16 0 25.5 -21.5t9.5 -45.5zM257 66q80 0 123 62.5t43 181.5q0 75 -30.5 111
t-94.5 36q-81 0 -124 -65t-43 -180q0 -146 126 -146z" />
    <glyph glyph-name="uni1EE2" unicode="&#x1ee2;" horiz-adv-x="731" 
d="M584 655q94 -71 94 -235q0 -205 -94 -315.5t-257 -110.5q-134 0 -204 73t-70 215q0 66 11 125t36.5 114.5t64.5 96t100 64.5t137 24q78 0 134 -24h2q59 0 59 40q0 13 -10.5 31.5t-10.5 23.5q0 10 11 16l26 16q5 4 12 4q16 0 25.5 -21.5t9.5 -45.5q0 -31 -20 -56t-56 -35z
M335 70q115 0 183 88.5t68 251.5q0 109 -49 164.5t-143 55.5q-116 0 -183 -87t-67 -252q0 -109 48.5 -165t142.5 -56zM319 -80q38 0 38 -22l-5 -51q-3 -22 -46 -22q-38 0 -38 22l5 51q3 22 46 22z" />
    </font>
</defs>
</svg>
