<?xml version="1.0" standalone="no"?>
<!DOCTYPE svg PUBLIC "-//W3C//DTD SVG 20010904//EN"
 "http://www.w3.org/TR/2001/REC-SVG-20010904/DTD/svg10.dtd">
<svg version="1.0" xmlns="http://www.w3.org/2000/svg"
 width="171.000000pt" height="171.000000pt" viewBox="0 0 171.000000 171.000000"
 preserveAspectRatio="xMidYMid meet">
<metadata>
Created by potrace 1.11, written by Peter Selinger 2001-2013
</metadata>
<g transform="translate(0.000000,171.000000) scale(0.100000,-0.100000)"
fill="#000000" stroke="none">
<path d="M685 1693 c-222 -47 -423 -183 -546 -371 -195 -296 -182 -694 31
-978 275 -367 790 -452 1170 -194 315 214 449 628 322 990 -98 281 -352 498
-645 555 -90 17 -245 16 -332 -2z m146 -47 c1 -27 1 -1566 0 -1587 -1 -18 -11
-18 -108 -4 l-53 7 0 794 c0 437 3 794 8 795 20 1 97 11 99 13 1 1 14 2 28 2
18 0 25 -5 26 -20z m225 -6 c79 -20 217 -82 264 -119 l25 -20 -232 -1 c-128 0
-233 3 -234 8 -1 10 -1 146 0 153 2 11 96 -1 177 -21z m-432 -786 l-1 -769
-23 3 c-13 1 -50 14 -82 29 l-58 26 0 712 0 712 58 25 c73 33 85 37 97 34 7
-2 10 -267 9 -772z m-208 -5 c0 -368 -3 -669 -6 -669 -11 0 -61 39 -112 89
l-48 45 0 541 0 541 48 45 c61 59 104 91 111 83 3 -3 6 -307 7 -675z m1025
564 c25 -27 58 -64 72 -84 l27 -36 -326 1 c-234 1 -327 4 -332 13 -5 8 -8 137
-3 151 1 1 117 2 259 2 l258 0 45 -47z m-1232 -560 c1 -487 1 -488 -19 -463
-37 47 -100 185 -121 265 -33 121 -30 299 5 418 14 49 38 111 52 140 26 51 74
127 80 127 2 0 3 -219 3 -487z m1384 339 c15 -32 28 -69 29 -83 l3 -23 -372
-1 -373 0 -1 22 c0 13 -1 43 -1 68 0 25 1 52 1 60 1 13 46 15 345 15 l343 0
26 -58z m62 -199 c3 -27 9 -60 11 -75 3 -15 0 -29 -7 -34 -9 -5 -717 -10 -774
-5 -8 1 -12 102 -6 154 1 4 174 7 385 7 l385 0 6 -47z m3 -162 c9 -1 12 -11 8
-33 -2 -18 -8 -54 -11 -80 l-7 -48 -52 0 c-300 -2 -708 0 -713 3 -6 4 -9 102
-4 152 1 7 135 9 383 8 211 -1 389 -2 396 -2z m-33 -231 c-4 -14 -18 -51 -32
-82 l-26 -58 -343 0 c-268 0 -344 3 -345 13 -4 65 -4 125 2 137 6 13 58 15
378 15 l372 0 -6 -25z m-95 -190 c0 -11 -39 -61 -89 -112 l-45 -48 -258 0
c-290 0 -260 -8 -260 75 0 19 0 48 1 63 l1 28 325 0 c179 1 325 -3 325 -6z
m-234 -235 c-88 -63 -251 -120 -367 -128 -54 -5 -51 -10 -51 85 -1 82 -16 77
237 76 l227 0 -46 -33z"/>
</g>
</svg>
